%TF.GenerationSoftware,KiCad,Pcbnew,9.0.4*%
%TF.CreationDate,2026-03-31T17:48:18-04:00*%
%TF.ProjectId,MainPCB,4d61696e-5043-4422-9e6b-696361645f70,rev?*%
%TF.SameCoordinates,Original*%
%TF.FileFunction,Soldermask,Top*%
%TF.FilePolarity,Negative*%
%FSLAX46Y46*%
G04 Gerber Fmt 4.6, Leading zero omitted, Abs format (unit mm)*
G04 Created by KiCad (PCBNEW 9.0.4) date 2026-03-31 17:48:18*
%MOMM*%
%LPD*%
G01*
G04 APERTURE LIST*
G04 Aperture macros list*
%AMRoundRect*
0 Rectangle with rounded corners*
0 $1 Rounding radius*
0 $2 $3 $4 $5 $6 $7 $8 $9 X,Y pos of 4 corners*
0 Add a 4 corners polygon primitive as box body*
4,1,4,$2,$3,$4,$5,$6,$7,$8,$9,$2,$3,0*
0 Add four circle primitives for the rounded corners*
1,1,$1+$1,$2,$3*
1,1,$1+$1,$4,$5*
1,1,$1+$1,$6,$7*
1,1,$1+$1,$8,$9*
0 Add four rect primitives between the rounded corners*
20,1,$1+$1,$2,$3,$4,$5,0*
20,1,$1+$1,$4,$5,$6,$7,0*
20,1,$1+$1,$6,$7,$8,$9,0*
20,1,$1+$1,$8,$9,$2,$3,0*%
%AMHorizOval*
0 Thick line with rounded ends*
0 $1 width*
0 $2 $3 position (X,Y) of the first rounded end (center of the circle)*
0 $4 $5 position (X,Y) of the second rounded end (center of the circle)*
0 Add line between two ends*
20,1,$1,$2,$3,$4,$5,0*
0 Add two circle primitives to create the rounded ends*
1,1,$1,$2,$3*
1,1,$1,$4,$5*%
%AMFreePoly0*
4,1,23,0.500000,-0.750000,0.000000,-0.750000,0.000000,-0.745722,-0.065263,-0.745722,-0.191342,-0.711940,-0.304381,-0.646677,-0.396677,-0.554381,-0.461940,-0.441342,-0.495722,-0.315263,-0.495722,-0.250000,-0.500000,-0.250000,-0.500000,0.250000,-0.495722,0.250000,-0.495722,0.315263,-0.461940,0.441342,-0.396677,0.554381,-0.304381,0.646677,-0.191342,0.711940,-0.065263,0.745722,0.000000,0.745722,
0.000000,0.750000,0.500000,0.750000,0.500000,-0.750000,0.500000,-0.750000,$1*%
%AMFreePoly1*
4,1,23,0.000000,0.745722,0.065263,0.745722,0.191342,0.711940,0.304381,0.646677,0.396677,0.554381,0.461940,0.441342,0.495722,0.315263,0.495722,0.250000,0.500000,0.250000,0.500000,-0.250000,0.495722,-0.250000,0.495722,-0.315263,0.461940,-0.441342,0.396677,-0.554381,0.304381,-0.646677,0.191342,-0.711940,0.065263,-0.745722,0.000000,-0.745722,0.000000,-0.750000,-0.500000,-0.750000,
-0.500000,0.750000,0.000000,0.750000,0.000000,0.745722,0.000000,0.745722,$1*%
G04 Aperture macros list end*
%ADD10R,0.203200X0.762000*%
%ADD11R,0.203200X0.711200*%
%ADD12RoundRect,0.250000X-0.725000X0.600000X-0.725000X-0.600000X0.725000X-0.600000X0.725000X0.600000X0*%
%ADD13O,1.950000X1.700000*%
%ADD14C,4.700000*%
%ADD15R,1.295400X1.295400*%
%ADD16C,1.295400*%
%ADD17R,1.240000X0.600000*%
%ADD18R,1.240000X0.300000*%
%ADD19O,2.100000X1.000000*%
%ADD20O,1.800000X1.000000*%
%ADD21RoundRect,0.250000X0.475000X-0.250000X0.475000X0.250000X-0.475000X0.250000X-0.475000X-0.250000X0*%
%ADD22RoundRect,0.250000X-0.475000X0.250000X-0.475000X-0.250000X0.475000X-0.250000X0.475000X0.250000X0*%
%ADD23C,2.032000*%
%ADD24C,1.879600*%
%ADD25RoundRect,0.250000X0.938031X-0.075648X0.249739X0.907334X-0.938031X0.075648X-0.249739X-0.907334X0*%
%ADD26HorizOval,1.700000X0.102394X0.071697X-0.102394X-0.071697X0*%
%ADD27R,0.300000X2.600000*%
%ADD28O,1.500000X3.300000*%
%ADD29O,1.500000X2.300000*%
%ADD30RoundRect,0.075000X-0.075000X-0.200000X0.075000X-0.200000X0.075000X0.200000X-0.075000X0.200000X0*%
%ADD31RoundRect,0.250000X-0.600000X-0.750000X0.600000X-0.750000X0.600000X0.750000X-0.600000X0.750000X0*%
%ADD32O,1.700000X2.000000*%
%ADD33R,1.700000X1.700000*%
%ADD34C,1.700000*%
%ADD35RoundRect,1.500000X1.500000X-1.500000X1.500000X1.500000X-1.500000X1.500000X-1.500000X-1.500000X0*%
%ADD36C,6.000000*%
%ADD37C,2.083600*%
%ADD38RoundRect,0.125000X-0.175000X-0.125000X0.175000X-0.125000X0.175000X0.125000X-0.175000X0.125000X0*%
%ADD39R,1.905000X2.000000*%
%ADD40O,1.905000X2.000000*%
%ADD41FreePoly0,0.000000*%
%ADD42FreePoly1,0.000000*%
%ADD43RoundRect,0.250000X0.250000X0.475000X-0.250000X0.475000X-0.250000X-0.475000X0.250000X-0.475000X0*%
%ADD44RoundRect,0.250000X0.600000X0.725000X-0.600000X0.725000X-0.600000X-0.725000X0.600000X-0.725000X0*%
%ADD45O,1.700000X1.950000*%
%ADD46C,5.600000*%
%ADD47RoundRect,0.100000X-0.217500X-0.100000X0.217500X-0.100000X0.217500X0.100000X-0.217500X0.100000X0*%
%ADD48R,1.600000X1.600000*%
%ADD49C,1.600000*%
%ADD50RoundRect,0.140000X0.140000X0.170000X-0.140000X0.170000X-0.140000X-0.170000X0.140000X-0.170000X0*%
%ADD51C,2.000000*%
%ADD52RoundRect,0.135000X0.135000X0.185000X-0.135000X0.185000X-0.135000X-0.185000X0.135000X-0.185000X0*%
%ADD53R,2.000000X1.905000*%
%ADD54O,2.000000X1.905000*%
%ADD55R,0.600000X1.240000*%
%ADD56R,0.300000X1.240000*%
%ADD57O,1.000000X2.100000*%
%ADD58O,1.000000X1.800000*%
%ADD59C,1.400000*%
%ADD60RoundRect,0.102000X-0.355000X-1.500000X0.355000X-1.500000X0.355000X1.500000X-0.355000X1.500000X0*%
%ADD61RoundRect,0.102000X-0.700000X-1.500000X0.700000X-1.500000X0.700000X1.500000X-0.700000X1.500000X0*%
%ADD62RoundRect,0.250000X0.600000X0.750000X-0.600000X0.750000X-0.600000X-0.750000X0.600000X-0.750000X0*%
%ADD63RoundRect,0.125000X0.125000X-0.175000X0.125000X0.175000X-0.125000X0.175000X-0.125000X-0.175000X0*%
%ADD64C,6.100000*%
%ADD65R,0.200000X0.700000*%
%ADD66RoundRect,0.135000X-0.185000X0.135000X-0.185000X-0.135000X0.185000X-0.135000X0.185000X0.135000X0*%
%ADD67RoundRect,0.102000X1.050000X0.700000X-1.050000X0.700000X-1.050000X-0.700000X1.050000X-0.700000X0*%
%ADD68R,1.300000X0.300000*%
%ADD69R,2.200000X1.800000*%
%ADD70RoundRect,0.250000X0.600000X0.600000X-0.600000X0.600000X-0.600000X-0.600000X0.600000X-0.600000X0*%
G04 APERTURE END LIST*
%TO.C,JP1*%
G36*
X58760000Y-97890000D02*
G01*
X59060000Y-97890000D01*
X59060000Y-99390000D01*
X58760000Y-99390000D01*
X58760000Y-97890000D01*
G37*
%TO.C,JP2*%
G36*
X58760000Y-101440000D02*
G01*
X59060000Y-101440000D01*
X59060000Y-102940000D01*
X58760000Y-102940000D01*
X58760000Y-101440000D01*
G37*
%TD*%
D10*
%TO.C,D403*%
X110470001Y-76910000D03*
D11*
X109969999Y-76884600D03*
X109470000Y-76884600D03*
X108970001Y-76884600D03*
X108469999Y-76884600D03*
X108469999Y-77875200D03*
X108970001Y-77875200D03*
X109470000Y-77875200D03*
X109969999Y-77875200D03*
X110470001Y-77875200D03*
%TD*%
D12*
%TO.C,J11*%
X144230000Y-124940000D03*
D13*
X144230000Y-127440000D03*
X144230000Y-129940000D03*
%TD*%
D14*
%TO.C,H4*%
X129000000Y-75500000D03*
%TD*%
D15*
%TO.C,SW6*%
X39200000Y-85100000D03*
D16*
X39200000Y-87100000D03*
X39200000Y-89100001D03*
%TD*%
D17*
%TO.C,J101*%
X147685000Y-78400000D03*
X147685000Y-77600000D03*
D18*
X147685000Y-76450000D03*
X147685000Y-75450000D03*
X147685000Y-74950000D03*
X147685000Y-73950000D03*
D17*
X147685000Y-72800000D03*
X147685000Y-72000000D03*
X147685000Y-72000000D03*
X147685000Y-72800000D03*
D18*
X147685000Y-73450000D03*
X147685000Y-74450000D03*
X147685000Y-75950000D03*
X147685000Y-76950000D03*
D17*
X147685000Y-77600000D03*
X147685000Y-78400000D03*
D19*
X148285000Y-79520000D03*
D20*
X152485000Y-79520000D03*
D19*
X148285000Y-70880000D03*
D20*
X152485000Y-70880000D03*
%TD*%
D21*
%TO.C,C3*%
X34720000Y-109470000D03*
X34720000Y-107570000D03*
%TD*%
D22*
%TO.C,C2*%
X51370000Y-87230000D03*
X51370000Y-89130000D03*
%TD*%
D23*
%TO.C,U4*%
X91700000Y-74900000D03*
X91700000Y-77440000D03*
X91700000Y-79980000D03*
X91700000Y-82520000D03*
D24*
X76460000Y-72360000D03*
X76460000Y-74900000D03*
X76460000Y-77440000D03*
X76460000Y-79980000D03*
X76460000Y-82520000D03*
X76460000Y-85060000D03*
%TD*%
D25*
%TO.C,J7*%
X46991823Y-135193640D03*
D26*
X45557882Y-133145760D03*
X44123941Y-131097880D03*
X42690000Y-129050000D03*
%TD*%
D27*
%TO.C,J501*%
X101450000Y-74190000D03*
X101950000Y-74190000D03*
X102450000Y-74190000D03*
X102950000Y-74190000D03*
X103450000Y-74190000D03*
X103950000Y-74190000D03*
X104450000Y-74190000D03*
X104950000Y-74190000D03*
X105450000Y-74190000D03*
X105950000Y-74190000D03*
X106450000Y-74190000D03*
X106950000Y-74190000D03*
X107450000Y-74190000D03*
X107950000Y-74190000D03*
X108450000Y-74190000D03*
X108950000Y-74190000D03*
X109450000Y-74190000D03*
X109950000Y-74190000D03*
X110450000Y-74190000D03*
D28*
X98700000Y-73460000D03*
X113200000Y-73460000D03*
D29*
X113200000Y-67500000D03*
X98700000Y-67500000D03*
%TD*%
D30*
%TO.C,U401*%
X56500000Y-87100000D03*
X57000000Y-87100000D03*
X57500000Y-87100000D03*
X58000000Y-87100000D03*
X58500000Y-87100000D03*
X58500000Y-86330000D03*
X58000000Y-86330000D03*
X57500000Y-86330000D03*
X57000000Y-86330000D03*
X56500000Y-86330000D03*
%TD*%
D14*
%TO.C,H1*%
X129000000Y-124500000D03*
%TD*%
D31*
%TO.C,J9*%
X77300000Y-121600000D03*
D32*
X79800000Y-121600000D03*
%TD*%
D33*
%TO.C,J1*%
X46900000Y-76840000D03*
D34*
X46900000Y-79380000D03*
X46900000Y-81920000D03*
X46900000Y-84460000D03*
X46900000Y-87000000D03*
X46900000Y-89540000D03*
%TD*%
D22*
%TO.C,C1*%
X54630000Y-87160000D03*
X54630000Y-89060000D03*
%TD*%
D35*
%TO.C,J5*%
X55600000Y-123400000D03*
D36*
X55600000Y-116200000D03*
%TD*%
D14*
%TO.C,H2*%
X71000000Y-124500000D03*
%TD*%
D37*
%TO.C,MOD1*%
X121810000Y-146580000D03*
X144670000Y-149120000D03*
X144670000Y-151660000D03*
X121810000Y-144040000D03*
X144670000Y-138960000D03*
X144670000Y-141500000D03*
X144670000Y-144040000D03*
X144670000Y-146580000D03*
X121810000Y-151660000D03*
X121810000Y-149120000D03*
%TD*%
D38*
%TO.C,D701*%
X147300000Y-68050000D03*
X147300000Y-69050000D03*
X148600000Y-68550000D03*
%TD*%
D21*
%TO.C,C4*%
X32000000Y-109420000D03*
X32000000Y-107520000D03*
%TD*%
D39*
%TO.C,U6*%
X76040000Y-113350000D03*
D40*
X73500000Y-113350000D03*
X70960000Y-113350000D03*
%TD*%
D41*
%TO.C,JP1*%
X58260000Y-98640000D03*
D42*
X59560000Y-98640000D03*
%TD*%
D43*
%TO.C,C701*%
X145230000Y-75800000D03*
X143330000Y-75800000D03*
%TD*%
D44*
%TO.C,J2*%
X92700000Y-115400000D03*
D45*
X90200000Y-115400000D03*
X87700000Y-115400000D03*
X85200000Y-115400000D03*
X82700000Y-115400000D03*
%TD*%
D15*
%TO.C,SW1*%
X88700000Y-128200000D03*
D16*
X90700000Y-128200000D03*
X92700001Y-128200000D03*
%TD*%
D46*
%TO.C,H8*%
X81539000Y-128887000D03*
%TD*%
D22*
%TO.C,C6*%
X121650000Y-121840000D03*
X121650000Y-123740000D03*
%TD*%
D47*
%TO.C,D605*%
X124000000Y-66390000D03*
X124815000Y-66390000D03*
%TD*%
D10*
%TO.C,D402*%
X101309999Y-79975200D03*
D11*
X101810001Y-80000600D03*
X102310000Y-80000600D03*
X102809999Y-80000600D03*
X103310001Y-80000600D03*
X103310001Y-79010000D03*
X102809999Y-79010000D03*
X102310000Y-79010000D03*
X101810001Y-79010000D03*
X101309999Y-79010000D03*
%TD*%
D46*
%TO.C,H3*%
X118416000Y-71113000D03*
%TD*%
D14*
%TO.C,H6*%
X71000000Y-75500000D03*
%TD*%
D48*
%TO.C,U12*%
X37980000Y-109040000D03*
D49*
X40520000Y-109040000D03*
X43060000Y-109040000D03*
X45600000Y-109040000D03*
X48140000Y-109040000D03*
X50680000Y-109040000D03*
X53220000Y-109040000D03*
X55760000Y-109040000D03*
X58300000Y-109040000D03*
X60840000Y-109040000D03*
X63380000Y-109040000D03*
X65920000Y-109040000D03*
X68460000Y-109040000D03*
X71000000Y-109040000D03*
X73540000Y-109040000D03*
X76080000Y-109040000D03*
X78620000Y-109040000D03*
X81160000Y-109040000D03*
X83700000Y-109040000D03*
X86240000Y-109040000D03*
X88780000Y-109040000D03*
X91320000Y-109040000D03*
X93860000Y-109040000D03*
X96400000Y-109040000D03*
X96400000Y-93800000D03*
X93860000Y-93800000D03*
X91320000Y-93800000D03*
X88780000Y-93800000D03*
X86240000Y-93800000D03*
X83700000Y-93800000D03*
X81160000Y-93800000D03*
X78620000Y-93800000D03*
X76080000Y-93800000D03*
X73540000Y-93800000D03*
X71000000Y-93800000D03*
X68460000Y-93800000D03*
X65920000Y-93800000D03*
X63380000Y-93800000D03*
X60840000Y-93800000D03*
X58300000Y-93800000D03*
X55760000Y-93800000D03*
X53220000Y-93800000D03*
X50680000Y-93800000D03*
X48140000Y-93800000D03*
X45600000Y-93800000D03*
X43060000Y-93800000D03*
X40520000Y-93800000D03*
X37980000Y-93800000D03*
%TD*%
D31*
%TO.C,J10*%
X69410000Y-88215000D03*
D32*
X71910000Y-88215000D03*
%TD*%
D31*
%TO.C,M2*%
X135700000Y-75900000D03*
D32*
X138200000Y-75900000D03*
%TD*%
D50*
%TO.C,C602*%
X134850000Y-125480000D03*
X133890000Y-125480000D03*
%TD*%
D31*
%TO.C,M5*%
X129870000Y-68150000D03*
D32*
X132370000Y-68150000D03*
%TD*%
D25*
%TO.C,J6*%
X38600000Y-123240000D03*
D26*
X37166059Y-121192120D03*
X35732118Y-119144240D03*
X34298177Y-117096360D03*
%TD*%
D51*
%TO.C,U3*%
X54270000Y-132250000D03*
X54270000Y-152750000D03*
X100270000Y-132250000D03*
X100270000Y-152750000D03*
%TD*%
D31*
%TO.C,J8*%
X86000000Y-121600000D03*
D32*
X88500000Y-121600000D03*
%TD*%
D30*
%TO.C,U402*%
X59880000Y-87120000D03*
X60380000Y-87120000D03*
X60880000Y-87120000D03*
X61380000Y-87120000D03*
X61880000Y-87120000D03*
X61880000Y-86350000D03*
X61380000Y-86350000D03*
X60880000Y-86350000D03*
X60380000Y-86350000D03*
X59880000Y-86350000D03*
%TD*%
D52*
%TO.C,R605*%
X124140000Y-67820000D03*
X123120000Y-67820000D03*
%TD*%
D53*
%TO.C,U10*%
X65250000Y-119740000D03*
D54*
X65250000Y-117200000D03*
X65250000Y-114660000D03*
%TD*%
D55*
%TO.C,USB701*%
X144420000Y-71485000D03*
X143620000Y-71485000D03*
D56*
X142470000Y-71485000D03*
X141470000Y-71485000D03*
X140970000Y-71485000D03*
X139970000Y-71485000D03*
D55*
X138820000Y-71485000D03*
X138020000Y-71485000D03*
X138020000Y-71485000D03*
X138820000Y-71485000D03*
D56*
X139470000Y-71485000D03*
X140470000Y-71485000D03*
X141970000Y-71485000D03*
X142970000Y-71485000D03*
D55*
X143620000Y-71485000D03*
X144420000Y-71485000D03*
D57*
X145540000Y-70885000D03*
D58*
X145540000Y-66685000D03*
D57*
X136900000Y-70885000D03*
D58*
X136900000Y-66685000D03*
%TD*%
D46*
%TO.C,H7*%
X81584000Y-71113000D03*
%TD*%
%TO.C,H5*%
X118416000Y-128887000D03*
%TD*%
D59*
%TO.C,T401*%
X55000000Y-79415000D03*
X62000000Y-79415000D03*
D60*
X51870000Y-82915000D03*
X52890000Y-82915000D03*
X53910000Y-82915000D03*
X54930000Y-82915000D03*
X55950000Y-82915000D03*
X56970000Y-82915000D03*
X57990000Y-82915000D03*
X59010000Y-82915000D03*
X60030000Y-82915000D03*
X61050000Y-82915000D03*
X62070000Y-82915000D03*
X63090000Y-82915000D03*
X64110000Y-82915000D03*
X65130000Y-82915000D03*
D61*
X49775000Y-69215000D03*
X67225000Y-69215000D03*
%TD*%
D62*
%TO.C,M3*%
X111000000Y-125190000D03*
D32*
X108500000Y-125190000D03*
%TD*%
D41*
%TO.C,JP2*%
X58260000Y-102190000D03*
D42*
X59560000Y-102190000D03*
%TD*%
D47*
%TO.C,D606*%
X95225000Y-66250000D03*
X96040000Y-66250000D03*
%TD*%
D63*
%TO.C,D101*%
X150050000Y-68650000D03*
X151050000Y-68650000D03*
X150550000Y-67350000D03*
%TD*%
D64*
%TO.C,Module1*%
X102000000Y-117440000D03*
X150000000Y-117440000D03*
X102000000Y-84440000D03*
X150000000Y-84440000D03*
D65*
X118700000Y-119480000D03*
X118700000Y-116400000D03*
X119100000Y-119480000D03*
X119100000Y-116400000D03*
X119500000Y-119480000D03*
X119500000Y-116400000D03*
X119900000Y-119480000D03*
X119900000Y-116400000D03*
X120300000Y-119480000D03*
X120300000Y-116400000D03*
X120700000Y-119480000D03*
X120700000Y-116400000D03*
X121100000Y-119480000D03*
X121100000Y-116400000D03*
X121500000Y-119480000D03*
X121500000Y-116400000D03*
X121900000Y-119480000D03*
X121900000Y-116400000D03*
X122300000Y-119480000D03*
X122300000Y-116400000D03*
X122700000Y-119480000D03*
X122700000Y-116400000D03*
X123100000Y-119480000D03*
X123100000Y-116400000D03*
X123500000Y-119480000D03*
X123500000Y-116400000D03*
X123900000Y-119480000D03*
X123900000Y-116400000D03*
X124300000Y-119480000D03*
X124300000Y-116400000D03*
X124700000Y-119480000D03*
X124700000Y-116400000D03*
X125100000Y-119480000D03*
X125100000Y-116400000D03*
X125500000Y-119480000D03*
X125500000Y-116400000D03*
X125900000Y-119480000D03*
X125900000Y-116400000D03*
X126300000Y-119480000D03*
X126300000Y-116400000D03*
X126700000Y-119480000D03*
X126700000Y-116400000D03*
X127100000Y-119480000D03*
X127100000Y-116400000D03*
X127500000Y-119480000D03*
X127500000Y-116400000D03*
X127900000Y-119480000D03*
X127900000Y-116400000D03*
X128300000Y-119480000D03*
X128300000Y-116400000D03*
X128700000Y-119480000D03*
X128700000Y-116400000D03*
X129100000Y-119480000D03*
X129100000Y-116400000D03*
X129500000Y-119480000D03*
X129500000Y-116400000D03*
X129900000Y-119480000D03*
X129900000Y-116400000D03*
X130300000Y-119480000D03*
X130300000Y-116400000D03*
X130700000Y-119480000D03*
X130700000Y-116400000D03*
X131100000Y-119480000D03*
X131100000Y-116400000D03*
X131500000Y-119480000D03*
X131500000Y-116400000D03*
X131900000Y-119480000D03*
X131900000Y-116400000D03*
X132300000Y-119480000D03*
X132300000Y-116400000D03*
X132700000Y-119480000D03*
X132700000Y-116400000D03*
X133100000Y-119480000D03*
X133100000Y-116400000D03*
X133500000Y-119480000D03*
X133500000Y-116400000D03*
X133900000Y-119480000D03*
X133900000Y-116400000D03*
X134300000Y-119480000D03*
X134300000Y-116400000D03*
X134700000Y-119480000D03*
X134700000Y-116400000D03*
X135100000Y-119480000D03*
X135100000Y-116400000D03*
X135500000Y-119480000D03*
X135500000Y-116400000D03*
X135900000Y-119480000D03*
X135900000Y-116400000D03*
X136300000Y-119480000D03*
X136300000Y-116400000D03*
X136700000Y-119480000D03*
X136700000Y-116400000D03*
X137100000Y-119480000D03*
X137100000Y-116400000D03*
X137500000Y-119480000D03*
X137500000Y-116400000D03*
X137900000Y-119480000D03*
X137900000Y-116400000D03*
X138300000Y-119480000D03*
X138300000Y-116400000D03*
X118700000Y-85480000D03*
X118700000Y-82400000D03*
X119100000Y-85480000D03*
X119100000Y-82400000D03*
X119500000Y-85480000D03*
X119500000Y-82400000D03*
X119900000Y-85480000D03*
X119900000Y-82400000D03*
X120300000Y-85480000D03*
X120300000Y-82400000D03*
X120700000Y-85480000D03*
X120700000Y-82400000D03*
X121100000Y-85480000D03*
X121100000Y-82400000D03*
X121500000Y-85480000D03*
X121500000Y-82400000D03*
X121900000Y-85480000D03*
X121900000Y-82400000D03*
X122300000Y-85480000D03*
X122300000Y-82400000D03*
X122700000Y-85480000D03*
X122700000Y-82400000D03*
X123100000Y-85480000D03*
X123100000Y-82400000D03*
X123500000Y-85480000D03*
X123500000Y-82400000D03*
X123900000Y-85480000D03*
X123900000Y-82400000D03*
X124300000Y-85480000D03*
X124300000Y-82400000D03*
X124700000Y-85480000D03*
X124700000Y-82400000D03*
X125100000Y-85480000D03*
X125100000Y-82400000D03*
X125500000Y-85480000D03*
X125500000Y-82400000D03*
X125900000Y-85480000D03*
X125900000Y-82400000D03*
X126300000Y-85480000D03*
X126300000Y-82400000D03*
X126700000Y-85480000D03*
X126700000Y-82400000D03*
X127100000Y-85480000D03*
X127100000Y-82400000D03*
X127500000Y-85480000D03*
X127500000Y-82400000D03*
X127900000Y-85480000D03*
X127900000Y-82400000D03*
X128300000Y-85480000D03*
X128300000Y-82400000D03*
X128700000Y-85480000D03*
X128700000Y-82400000D03*
X129100000Y-85480000D03*
X129100000Y-82400000D03*
X129500000Y-85480000D03*
X129500000Y-82400000D03*
X129900000Y-85480000D03*
X129900000Y-82400000D03*
X130300000Y-85480000D03*
X130300000Y-82400000D03*
X130700000Y-85480000D03*
X130700000Y-82400000D03*
X131100000Y-85480000D03*
X131100000Y-82400000D03*
X131500000Y-85480000D03*
X131500000Y-82400000D03*
X131900000Y-85480000D03*
X131900000Y-82400000D03*
X132300000Y-85480000D03*
X132300000Y-82400000D03*
X132700000Y-85480000D03*
X132700000Y-82400000D03*
X133100000Y-85480000D03*
X133100000Y-82400000D03*
X133500000Y-85480000D03*
X133500000Y-82400000D03*
X133900000Y-85480000D03*
X133900000Y-82400000D03*
X134300000Y-85480000D03*
X134300000Y-82400000D03*
X134700000Y-85480000D03*
X134700000Y-82400000D03*
X135100000Y-85480000D03*
X135100000Y-82400000D03*
X135500000Y-85480000D03*
X135500000Y-82400000D03*
X135900000Y-85480000D03*
X135900000Y-82400000D03*
X136300000Y-85480000D03*
X136300000Y-82400000D03*
X136700000Y-85480000D03*
X136700000Y-82400000D03*
X137100000Y-85480000D03*
X137100000Y-82400000D03*
X137500000Y-85480000D03*
X137500000Y-82400000D03*
X137900000Y-85480000D03*
X137900000Y-82400000D03*
X138300000Y-85480000D03*
X138300000Y-82400000D03*
%TD*%
D43*
%TO.C,C601*%
X135330000Y-122770000D03*
X133430000Y-122770000D03*
%TD*%
D33*
%TO.C,J20*%
X149745000Y-122780000D03*
D34*
X152285000Y-122780000D03*
%TD*%
D66*
%TO.C,R606*%
X95110000Y-69110000D03*
X95110000Y-70130000D03*
%TD*%
D67*
%TO.C,S1*%
X137012500Y-150650000D03*
X137012500Y-146150000D03*
X127912500Y-150650000D03*
X127912500Y-146150000D03*
%TD*%
D10*
%TO.C,D401*%
X104629999Y-77854600D03*
D11*
X105130001Y-77880000D03*
X105630000Y-77880000D03*
X106129999Y-77880000D03*
X106630001Y-77880000D03*
X106630001Y-76889400D03*
X106129999Y-76889400D03*
X105630000Y-76889400D03*
X105130001Y-76889400D03*
X104629999Y-76889400D03*
%TD*%
D62*
%TO.C,M1*%
X108290000Y-132385000D03*
D32*
X105790000Y-132385000D03*
%TD*%
D68*
%TO.C,J802*%
X104000000Y-139100000D03*
X104000000Y-139600000D03*
X104000000Y-140100000D03*
X104000000Y-140600000D03*
X104000000Y-141100000D03*
X104000000Y-141600000D03*
X104000000Y-142100000D03*
X104000000Y-142600000D03*
X104000000Y-143100000D03*
X104000000Y-143600000D03*
X104000000Y-144100000D03*
X104000000Y-144600000D03*
X104000000Y-145100000D03*
X104000000Y-145600000D03*
X104000000Y-146100000D03*
X104000000Y-146600000D03*
X104000000Y-147100000D03*
X104000000Y-147600000D03*
X104000000Y-148100000D03*
X104000000Y-148600000D03*
X104000000Y-149100000D03*
X104000000Y-149600000D03*
D69*
X107250000Y-151500000D03*
X107250000Y-137200000D03*
%TD*%
D33*
%TO.C,J4*%
X47420000Y-116260000D03*
D34*
X47420000Y-113720000D03*
%TD*%
D22*
%TO.C,C5*%
X124200000Y-121860000D03*
X124200000Y-123760000D03*
%TD*%
D62*
%TO.C,M4*%
X102500000Y-125500000D03*
D32*
X100000000Y-125500000D03*
%TD*%
D52*
%TO.C,R701*%
X143890000Y-73480000D03*
X142870000Y-73480000D03*
%TD*%
D70*
%TO.C,J3*%
X32600000Y-90660000D03*
D34*
X30060000Y-90660000D03*
X32600000Y-93200000D03*
X30060000Y-93200000D03*
X32600000Y-95740000D03*
X30060000Y-95740000D03*
X32600000Y-98280000D03*
X30060000Y-98280000D03*
X32600000Y-100820000D03*
X30060000Y-100820000D03*
X32600000Y-103360000D03*
X30060000Y-103360000D03*
%TD*%
M02*
