%TF.GenerationSoftware,KiCad,Pcbnew,9.0.4*%
%TF.CreationDate,2025-11-15T17:02:01-05:00*%
%TF.ProjectId,MainPCB,4d61696e-5043-4422-9e6b-696361645f70,rev?*%
%TF.SameCoordinates,Original*%
%TF.FileFunction,Paste,Bot*%
%TF.FilePolarity,Positive*%
%FSLAX46Y46*%
G04 Gerber Fmt 4.6, Leading zero omitted, Abs format (unit mm)*
G04 Created by KiCad (PCBNEW 9.0.4) date 2025-11-15 17:02:01*
%MOMM*%
%LPD*%
G01*
G04 APERTURE LIST*
G04 Aperture macros list*
%AMRoundRect*
0 Rectangle with rounded corners*
0 $1 Rounding radius*
0 $2 $3 $4 $5 $6 $7 $8 $9 X,Y pos of 4 corners*
0 Add a 4 corners polygon primitive as box body*
4,1,4,$2,$3,$4,$5,$6,$7,$8,$9,$2,$3,0*
0 Add four circle primitives for the rounded corners*
1,1,$1+$1,$2,$3*
1,1,$1+$1,$4,$5*
1,1,$1+$1,$6,$7*
1,1,$1+$1,$8,$9*
0 Add four rect primitives between the rounded corners*
20,1,$1+$1,$2,$3,$4,$5,0*
20,1,$1+$1,$4,$5,$6,$7,0*
20,1,$1+$1,$6,$7,$8,$9,0*
20,1,$1+$1,$8,$9,$2,$3,0*%
G04 Aperture macros list end*
%ADD10R,1.525000X0.650000*%
%ADD11RoundRect,0.250000X-0.475000X0.337500X-0.475000X-0.337500X0.475000X-0.337500X0.475000X0.337500X0*%
%ADD12R,0.650000X1.525000*%
%ADD13RoundRect,0.250000X0.350000X0.450000X-0.350000X0.450000X-0.350000X-0.450000X0.350000X-0.450000X0*%
%ADD14RoundRect,0.250000X0.475000X-0.250000X0.475000X0.250000X-0.475000X0.250000X-0.475000X-0.250000X0*%
%ADD15RoundRect,0.250000X-0.250000X-0.475000X0.250000X-0.475000X0.250000X0.475000X-0.250000X0.475000X0*%
%ADD16RoundRect,0.250000X-0.450000X0.350000X-0.450000X-0.350000X0.450000X-0.350000X0.450000X0.350000X0*%
%ADD17RoundRect,0.250000X-0.350000X-0.450000X0.350000X-0.450000X0.350000X0.450000X-0.350000X0.450000X0*%
%ADD18RoundRect,0.250000X-0.337500X-0.475000X0.337500X-0.475000X0.337500X0.475000X-0.337500X0.475000X0*%
%ADD19RoundRect,0.250000X0.450000X-0.350000X0.450000X0.350000X-0.450000X0.350000X-0.450000X-0.350000X0*%
%ADD20RoundRect,0.250000X0.475000X-0.337500X0.475000X0.337500X-0.475000X0.337500X-0.475000X-0.337500X0*%
G04 APERTURE END LIST*
D10*
%TO.C,IC3*%
X81888000Y-122995000D03*
X81888000Y-121725000D03*
X81888000Y-120455000D03*
X81888000Y-119185000D03*
X81888000Y-117915000D03*
X81888000Y-116645000D03*
X81888000Y-115375000D03*
X81888000Y-114105000D03*
X87312000Y-114105000D03*
X87312000Y-115375000D03*
X87312000Y-116645000D03*
X87312000Y-117915000D03*
X87312000Y-119185000D03*
X87312000Y-120455000D03*
X87312000Y-121725000D03*
X87312000Y-122995000D03*
%TD*%
D11*
%TO.C,C13*%
X66400000Y-117150000D03*
X66400000Y-119225000D03*
%TD*%
D12*
%TO.C,IC2*%
X111455000Y-77438000D03*
X112725000Y-77438000D03*
X113995000Y-77438000D03*
X115265000Y-77438000D03*
X116535000Y-77438000D03*
X117805000Y-77438000D03*
X119075000Y-77438000D03*
X120345000Y-77438000D03*
X120345000Y-82862000D03*
X119075000Y-82862000D03*
X117805000Y-82862000D03*
X116535000Y-82862000D03*
X115265000Y-82862000D03*
X113995000Y-82862000D03*
X112725000Y-82862000D03*
X111455000Y-82862000D03*
%TD*%
D13*
%TO.C,R10*%
X125650000Y-76200000D03*
X123650000Y-76200000D03*
%TD*%
D14*
%TO.C,C3*%
X136980000Y-101220000D03*
X136980000Y-99320000D03*
%TD*%
D13*
%TO.C,R8*%
X78930000Y-85290000D03*
X76930000Y-85290000D03*
%TD*%
D15*
%TO.C,C6*%
X138860000Y-77090000D03*
X140760000Y-77090000D03*
%TD*%
D16*
%TO.C,R15*%
X129350000Y-110850000D03*
X129350000Y-112850000D03*
%TD*%
D17*
%TO.C,R16*%
X113400000Y-117400000D03*
X115400000Y-117400000D03*
%TD*%
D13*
%TO.C,R17*%
X118850000Y-105450000D03*
X116850000Y-105450000D03*
%TD*%
D12*
%TO.C,IC4*%
X125800000Y-114650000D03*
X124530000Y-114650000D03*
X123260000Y-114650000D03*
X121990000Y-114650000D03*
X120720000Y-114650000D03*
X119450000Y-114650000D03*
X118180000Y-114650000D03*
X116910000Y-114650000D03*
X116910000Y-109226000D03*
X118180000Y-109226000D03*
X119450000Y-109226000D03*
X120720000Y-109226000D03*
X121990000Y-109226000D03*
X123260000Y-109226000D03*
X124530000Y-109226000D03*
X125800000Y-109226000D03*
%TD*%
D18*
%TO.C,R2*%
X57975000Y-75600000D03*
X60050000Y-75600000D03*
%TD*%
D16*
%TO.C,R12*%
X78750000Y-120850000D03*
X78750000Y-122850000D03*
%TD*%
D19*
%TO.C,R7*%
X92480000Y-80370000D03*
X92480000Y-78370000D03*
%TD*%
D14*
%TO.C,C4*%
X139780000Y-101230000D03*
X139780000Y-99330000D03*
%TD*%
D15*
%TO.C,C5*%
X138930000Y-74570000D03*
X140830000Y-74570000D03*
%TD*%
D17*
%TO.C,R1*%
X74850000Y-79500000D03*
X76850000Y-79500000D03*
%TD*%
D16*
%TO.C,R13*%
X78650000Y-116050000D03*
X78650000Y-118050000D03*
%TD*%
D20*
%TO.C,R5*%
X58200000Y-118937500D03*
X58200000Y-116862500D03*
%TD*%
%TO.C,R6*%
X58150000Y-112887500D03*
X58150000Y-110812500D03*
%TD*%
%TO.C,R3*%
X59250000Y-81137500D03*
X59250000Y-79062500D03*
%TD*%
D17*
%TO.C,R9*%
X106400000Y-81900000D03*
X108400000Y-81900000D03*
%TD*%
D13*
%TO.C,R11*%
X117450000Y-86150000D03*
X115450000Y-86150000D03*
%TD*%
D14*
%TO.C,C8*%
X120730000Y-101330000D03*
X120730000Y-99430000D03*
%TD*%
D11*
%TO.C,R18*%
X66450000Y-125762500D03*
X66450000Y-127837500D03*
%TD*%
D20*
%TO.C,R4*%
X58900000Y-86887500D03*
X58900000Y-84812500D03*
%TD*%
%TO.C,C14*%
X127230000Y-120307500D03*
X127230000Y-118232500D03*
%TD*%
D14*
%TO.C,C7*%
X123370000Y-101330000D03*
X123370000Y-99430000D03*
%TD*%
D18*
%TO.C,C12*%
X106212500Y-79250000D03*
X108287500Y-79250000D03*
%TD*%
D19*
%TO.C,R14*%
X91250000Y-118250000D03*
X91250000Y-116250000D03*
%TD*%
D12*
%TO.C,IC1*%
X80410000Y-77400000D03*
X81680000Y-77400000D03*
X82950000Y-77400000D03*
X84220000Y-77400000D03*
X85490000Y-77400000D03*
X86760000Y-77400000D03*
X88030000Y-77400000D03*
X89300000Y-77400000D03*
X89300000Y-82824000D03*
X88030000Y-82824000D03*
X86760000Y-82824000D03*
X85490000Y-82824000D03*
X84220000Y-82824000D03*
X82950000Y-82824000D03*
X81680000Y-82824000D03*
X80410000Y-82824000D03*
%TD*%
D18*
%TO.C,C11*%
X101500000Y-76670000D03*
X103575000Y-76670000D03*
%TD*%
M02*
