%TF.GenerationSoftware,KiCad,Pcbnew,9.0.4*%
%TF.CreationDate,2025-11-15T17:02:01-05:00*%
%TF.ProjectId,MainPCB,4d61696e-5043-4422-9e6b-696361645f70,rev?*%
%TF.SameCoordinates,Original*%
%TF.FileFunction,Soldermask,Bot*%
%TF.FilePolarity,Negative*%
%FSLAX46Y46*%
G04 Gerber Fmt 4.6, Leading zero omitted, Abs format (unit mm)*
G04 Created by KiCad (PCBNEW 9.0.4) date 2025-11-15 17:02:01*
%MOMM*%
%LPD*%
G01*
G04 APERTURE LIST*
G04 Aperture macros list*
%AMRoundRect*
0 Rectangle with rounded corners*
0 $1 Rounding radius*
0 $2 $3 $4 $5 $6 $7 $8 $9 X,Y pos of 4 corners*
0 Add a 4 corners polygon primitive as box body*
4,1,4,$2,$3,$4,$5,$6,$7,$8,$9,$2,$3,0*
0 Add four circle primitives for the rounded corners*
1,1,$1+$1,$2,$3*
1,1,$1+$1,$4,$5*
1,1,$1+$1,$6,$7*
1,1,$1+$1,$8,$9*
0 Add four rect primitives between the rounded corners*
20,1,$1+$1,$2,$3,$4,$5,0*
20,1,$1+$1,$4,$5,$6,$7,0*
20,1,$1+$1,$6,$7,$8,$9,0*
20,1,$1+$1,$8,$9,$2,$3,0*%
G04 Aperture macros list end*
%ADD10R,1.295400X1.295400*%
%ADD11C,1.295400*%
%ADD12C,1.524000*%
%ADD13R,2.000000X0.900000*%
%ADD14RoundRect,1.025000X-1.025000X1.025000X-1.025000X-1.025000X1.025000X-1.025000X1.025000X1.025000X0*%
%ADD15C,4.100000*%
%ADD16C,5.600000*%
%ADD17C,4.700000*%
%ADD18RoundRect,0.250000X-0.600000X-0.725000X0.600000X-0.725000X0.600000X0.725000X-0.600000X0.725000X0*%
%ADD19O,1.700000X1.950000*%
%ADD20C,2.083600*%
%ADD21RoundRect,0.250000X-0.600000X-0.750000X0.600000X-0.750000X0.600000X0.750000X-0.600000X0.750000X0*%
%ADD22O,1.700000X2.000000*%
%ADD23RoundRect,0.250000X0.750000X-0.600000X0.750000X0.600000X-0.750000X0.600000X-0.750000X-0.600000X0*%
%ADD24O,2.000000X1.700000*%
%ADD25R,1.700000X1.700000*%
%ADD26C,1.700000*%
%ADD27R,2.000000X1.905000*%
%ADD28O,2.000000X1.905000*%
%ADD29C,2.032000*%
%ADD30C,1.879600*%
%ADD31RoundRect,0.250000X-0.750000X0.600000X-0.750000X-0.600000X0.750000X-0.600000X0.750000X0.600000X0*%
%ADD32C,2.000000*%
%ADD33R,1.905000X2.000000*%
%ADD34O,1.905000X2.000000*%
%ADD35RoundRect,0.250000X-0.725000X0.600000X-0.725000X-0.600000X0.725000X-0.600000X0.725000X0.600000X0*%
%ADD36O,1.950000X1.700000*%
%ADD37R,1.600000X1.600000*%
%ADD38C,1.600000*%
%ADD39R,1.525000X0.650000*%
%ADD40RoundRect,0.250000X-0.475000X0.337500X-0.475000X-0.337500X0.475000X-0.337500X0.475000X0.337500X0*%
%ADD41R,0.650000X1.525000*%
%ADD42RoundRect,0.250000X0.350000X0.450000X-0.350000X0.450000X-0.350000X-0.450000X0.350000X-0.450000X0*%
%ADD43RoundRect,0.250000X-0.600000X0.600000X-0.600000X-0.600000X0.600000X-0.600000X0.600000X0.600000X0*%
%ADD44RoundRect,0.250000X0.475000X-0.250000X0.475000X0.250000X-0.475000X0.250000X-0.475000X-0.250000X0*%
%ADD45RoundRect,0.250000X-0.250000X-0.475000X0.250000X-0.475000X0.250000X0.475000X-0.250000X0.475000X0*%
%ADD46RoundRect,0.250000X-0.450000X0.350000X-0.450000X-0.350000X0.450000X-0.350000X0.450000X0.350000X0*%
%ADD47RoundRect,0.250000X-0.350000X-0.450000X0.350000X-0.450000X0.350000X0.450000X-0.350000X0.450000X0*%
%ADD48RoundRect,0.250000X-0.337500X-0.475000X0.337500X-0.475000X0.337500X0.475000X-0.337500X0.475000X0*%
%ADD49RoundRect,0.250000X0.450000X-0.350000X0.450000X0.350000X-0.450000X0.350000X-0.450000X-0.350000X0*%
%ADD50RoundRect,0.250000X0.475000X-0.337500X0.475000X0.337500X-0.475000X0.337500X-0.475000X-0.337500X0*%
%ADD51RoundRect,0.250000X0.600000X0.725000X-0.600000X0.725000X-0.600000X-0.725000X0.600000X-0.725000X0*%
G04 APERTURE END LIST*
D10*
%TO.C,SW1*%
X49650000Y-71750000D03*
D11*
X51650000Y-71750000D03*
X53650001Y-71750000D03*
%TD*%
D12*
%TO.C,U1*%
X90470000Y-110125000D03*
X87930000Y-110125000D03*
X85390000Y-110125000D03*
X82850000Y-110125000D03*
X80310000Y-110125000D03*
%TD*%
D13*
%TO.C,J5*%
X151550000Y-109350000D03*
X151550000Y-122850000D03*
D14*
X145550000Y-119700000D03*
D15*
X145550000Y-112500000D03*
%TD*%
D16*
%TO.C,H3*%
X81584000Y-71112800D03*
%TD*%
D17*
%TO.C,H6*%
X129000000Y-124500000D03*
%TD*%
D18*
%TO.C,J2*%
X138800000Y-69250000D03*
D19*
X141300000Y-69250000D03*
X143800000Y-69250000D03*
X146300000Y-69250000D03*
%TD*%
D10*
%TO.C,SW4*%
X49350000Y-86053000D03*
D11*
X51350000Y-86053000D03*
X53350001Y-86053000D03*
%TD*%
D10*
%TO.C,SW6*%
X56700000Y-126700000D03*
D11*
X58700000Y-126700000D03*
X60700001Y-126700000D03*
%TD*%
D10*
%TO.C,SW3*%
X49550000Y-111847000D03*
D11*
X51550000Y-111847000D03*
X53550001Y-111847000D03*
%TD*%
D20*
%TO.C,MOD1*%
X122120000Y-147800000D03*
X144980000Y-150340000D03*
X144980000Y-152880000D03*
X122120000Y-145260000D03*
X144980000Y-140180000D03*
X144980000Y-142720000D03*
X144980000Y-145260000D03*
X144980000Y-147800000D03*
X122120000Y-152880000D03*
X122120000Y-150340000D03*
%TD*%
D21*
%TO.C,M2*%
X108260000Y-68825000D03*
D22*
X110760000Y-68825000D03*
%TD*%
D17*
%TO.C,H2*%
X71000000Y-75500000D03*
%TD*%
D23*
%TO.C,M4*%
X120600000Y-122300000D03*
D24*
X120600000Y-119800000D03*
%TD*%
D16*
%TO.C,H7*%
X81584000Y-128887200D03*
%TD*%
D21*
%TO.C,J10*%
X127950000Y-68950000D03*
D22*
X130450000Y-68950000D03*
%TD*%
D10*
%TO.C,SW2*%
X49550000Y-117800000D03*
D11*
X51550000Y-117800000D03*
X53550001Y-117800000D03*
%TD*%
D21*
%TO.C,J9*%
X71600000Y-68525000D03*
D22*
X74100000Y-68525000D03*
%TD*%
D16*
%TO.C,H8*%
X118416000Y-128887200D03*
%TD*%
%TO.C,H5*%
X118416000Y-71112800D03*
%TD*%
D21*
%TO.C,J7*%
X87940000Y-69195000D03*
D22*
X90440000Y-69195000D03*
%TD*%
D25*
%TO.C,J1*%
X170100000Y-94550000D03*
D26*
X170100000Y-97090000D03*
X170100000Y-99630000D03*
X170100000Y-102170000D03*
X170100000Y-104710000D03*
X170100000Y-107250000D03*
%TD*%
D27*
%TO.C,U6*%
X105600000Y-133510000D03*
D28*
X105600000Y-136050000D03*
X105600000Y-138590000D03*
%TD*%
D29*
%TO.C,U4*%
X110990000Y-98870000D03*
X110990000Y-96330000D03*
X110990000Y-93790000D03*
X110990000Y-91250000D03*
D30*
X126230000Y-101410000D03*
X126230000Y-98870000D03*
X126230000Y-96330000D03*
X126230000Y-93790000D03*
X126230000Y-91250000D03*
X126230000Y-88710000D03*
%TD*%
D17*
%TO.C,H4*%
X71000000Y-124500000D03*
%TD*%
D31*
%TO.C,M3*%
X73075000Y-115300000D03*
D24*
X73075000Y-117800000D03*
%TD*%
D32*
%TO.C,U3*%
X53400000Y-131000000D03*
X53400000Y-151500000D03*
X99400000Y-131000000D03*
X99400000Y-151500000D03*
%TD*%
D23*
%TO.C,J8*%
X146600000Y-129950000D03*
D24*
X146600000Y-127450000D03*
%TD*%
D21*
%TO.C,M1*%
X98900000Y-68955000D03*
D22*
X101400000Y-68955000D03*
%TD*%
D33*
%TO.C,U10*%
X153620000Y-104200000D03*
D34*
X156160000Y-104200000D03*
X158700000Y-104200000D03*
%TD*%
D18*
%TO.C,J12*%
X143500000Y-82050000D03*
D19*
X146000000Y-82050000D03*
X148500000Y-82050000D03*
%TD*%
D10*
%TO.C,SW5*%
X49350000Y-80100000D03*
D11*
X51350000Y-80100000D03*
X53350001Y-80100000D03*
%TD*%
D25*
%TO.C,J4*%
X164790000Y-108470000D03*
D26*
X164790000Y-105930000D03*
%TD*%
D17*
%TO.C,H1*%
X129000000Y-75500000D03*
%TD*%
D35*
%TO.C,J6*%
X107050000Y-145000000D03*
D36*
X107050000Y-147500000D03*
X107050000Y-150000000D03*
%TD*%
D12*
%TO.C,U2*%
X103530000Y-127975000D03*
X106070000Y-127975000D03*
X108610000Y-127975000D03*
X111150000Y-127975000D03*
X113690000Y-127975000D03*
%TD*%
D37*
%TO.C,U12*%
X47480000Y-106190000D03*
D38*
X50020000Y-106190000D03*
X52560000Y-106190000D03*
X55100000Y-106190000D03*
X57640000Y-106190000D03*
X60180000Y-106190000D03*
X62720000Y-106190000D03*
X65260000Y-106190000D03*
X67800000Y-106190000D03*
X70340000Y-106190000D03*
X72880000Y-106190000D03*
X75420000Y-106190000D03*
X77960000Y-106190000D03*
X80500000Y-106190000D03*
X83040000Y-106190000D03*
X85580000Y-106190000D03*
X88120000Y-106190000D03*
X90660000Y-106190000D03*
X93200000Y-106190000D03*
X95740000Y-106190000D03*
X98280000Y-106190000D03*
X100820000Y-106190000D03*
X103360000Y-106190000D03*
X105900000Y-106190000D03*
X105900000Y-90950000D03*
X103360000Y-90950000D03*
X100820000Y-90950000D03*
X98280000Y-90950000D03*
X95740000Y-90950000D03*
X93200000Y-90950000D03*
X90660000Y-90950000D03*
X88120000Y-90950000D03*
X85580000Y-90950000D03*
X83040000Y-90950000D03*
X80500000Y-90950000D03*
X77960000Y-90950000D03*
X75420000Y-90950000D03*
X72880000Y-90950000D03*
X70340000Y-90950000D03*
X67800000Y-90950000D03*
X65260000Y-90950000D03*
X62720000Y-90950000D03*
X60180000Y-90950000D03*
X57640000Y-90950000D03*
X55100000Y-90950000D03*
X52560000Y-90950000D03*
X50020000Y-90950000D03*
X47480000Y-90950000D03*
%TD*%
D39*
%TO.C,IC3*%
X81888000Y-122995000D03*
X81888000Y-121725000D03*
X81888000Y-120455000D03*
X81888000Y-119185000D03*
X81888000Y-117915000D03*
X81888000Y-116645000D03*
X81888000Y-115375000D03*
X81888000Y-114105000D03*
X87312000Y-114105000D03*
X87312000Y-115375000D03*
X87312000Y-116645000D03*
X87312000Y-117915000D03*
X87312000Y-119185000D03*
X87312000Y-120455000D03*
X87312000Y-121725000D03*
X87312000Y-122995000D03*
%TD*%
D40*
%TO.C,C13*%
X66400000Y-117150000D03*
X66400000Y-119225000D03*
%TD*%
D41*
%TO.C,IC2*%
X111455000Y-77438000D03*
X112725000Y-77438000D03*
X113995000Y-77438000D03*
X115265000Y-77438000D03*
X116535000Y-77438000D03*
X117805000Y-77438000D03*
X119075000Y-77438000D03*
X120345000Y-77438000D03*
X120345000Y-82862000D03*
X119075000Y-82862000D03*
X117805000Y-82862000D03*
X116535000Y-82862000D03*
X115265000Y-82862000D03*
X113995000Y-82862000D03*
X112725000Y-82862000D03*
X111455000Y-82862000D03*
%TD*%
D42*
%TO.C,R10*%
X125650000Y-76200000D03*
X123650000Y-76200000D03*
%TD*%
D43*
%TO.C,J3*%
X149860000Y-92860000D03*
D26*
X149860000Y-95400000D03*
X152400000Y-92860000D03*
X152400000Y-95400000D03*
X154940000Y-92860000D03*
X154940000Y-95400000D03*
X157480000Y-92860000D03*
X157480000Y-95400000D03*
X160020000Y-92860000D03*
X160020000Y-95400000D03*
X162560000Y-92860000D03*
X162560000Y-95400000D03*
%TD*%
D44*
%TO.C,C3*%
X136980000Y-101220000D03*
X136980000Y-99320000D03*
%TD*%
D42*
%TO.C,R8*%
X78930000Y-85290000D03*
X76930000Y-85290000D03*
%TD*%
D45*
%TO.C,C6*%
X138860000Y-77090000D03*
X140760000Y-77090000D03*
%TD*%
D46*
%TO.C,R15*%
X129350000Y-110850000D03*
X129350000Y-112850000D03*
%TD*%
D47*
%TO.C,R16*%
X113400000Y-117400000D03*
X115400000Y-117400000D03*
%TD*%
D42*
%TO.C,R17*%
X118850000Y-105450000D03*
X116850000Y-105450000D03*
%TD*%
D41*
%TO.C,IC4*%
X125800000Y-114650000D03*
X124530000Y-114650000D03*
X123260000Y-114650000D03*
X121990000Y-114650000D03*
X120720000Y-114650000D03*
X119450000Y-114650000D03*
X118180000Y-114650000D03*
X116910000Y-114650000D03*
X116910000Y-109226000D03*
X118180000Y-109226000D03*
X119450000Y-109226000D03*
X120720000Y-109226000D03*
X121990000Y-109226000D03*
X123260000Y-109226000D03*
X124530000Y-109226000D03*
X125800000Y-109226000D03*
%TD*%
D48*
%TO.C,R2*%
X57975000Y-75600000D03*
X60050000Y-75600000D03*
%TD*%
D46*
%TO.C,R12*%
X78750000Y-120850000D03*
X78750000Y-122850000D03*
%TD*%
D49*
%TO.C,R7*%
X92480000Y-80370000D03*
X92480000Y-78370000D03*
%TD*%
D44*
%TO.C,C4*%
X139780000Y-101230000D03*
X139780000Y-99330000D03*
%TD*%
D45*
%TO.C,C5*%
X138930000Y-74570000D03*
X140830000Y-74570000D03*
%TD*%
D47*
%TO.C,R1*%
X74850000Y-79500000D03*
X76850000Y-79500000D03*
%TD*%
D46*
%TO.C,R13*%
X78650000Y-116050000D03*
X78650000Y-118050000D03*
%TD*%
D50*
%TO.C,R5*%
X58200000Y-118937500D03*
X58200000Y-116862500D03*
%TD*%
%TO.C,R6*%
X58150000Y-112887500D03*
X58150000Y-110812500D03*
%TD*%
%TO.C,R3*%
X59250000Y-81137500D03*
X59250000Y-79062500D03*
%TD*%
D47*
%TO.C,R9*%
X106400000Y-81900000D03*
X108400000Y-81900000D03*
%TD*%
D42*
%TO.C,R11*%
X117450000Y-86150000D03*
X115450000Y-86150000D03*
%TD*%
D44*
%TO.C,C8*%
X120730000Y-101330000D03*
X120730000Y-99430000D03*
%TD*%
D40*
%TO.C,R18*%
X66450000Y-125762500D03*
X66450000Y-127837500D03*
%TD*%
D50*
%TO.C,R4*%
X58900000Y-86887500D03*
X58900000Y-84812500D03*
%TD*%
%TO.C,C14*%
X127230000Y-120307500D03*
X127230000Y-118232500D03*
%TD*%
D44*
%TO.C,C7*%
X123370000Y-101330000D03*
X123370000Y-99430000D03*
%TD*%
D48*
%TO.C,C12*%
X106212500Y-79250000D03*
X108287500Y-79250000D03*
%TD*%
D51*
%TO.C,J11*%
X65250000Y-68600000D03*
D19*
X62750000Y-68600000D03*
X60250000Y-68600000D03*
%TD*%
D49*
%TO.C,R14*%
X91250000Y-118250000D03*
X91250000Y-116250000D03*
%TD*%
D41*
%TO.C,IC1*%
X80410000Y-77400000D03*
X81680000Y-77400000D03*
X82950000Y-77400000D03*
X84220000Y-77400000D03*
X85490000Y-77400000D03*
X86760000Y-77400000D03*
X88030000Y-77400000D03*
X89300000Y-77400000D03*
X89300000Y-82824000D03*
X88030000Y-82824000D03*
X86760000Y-82824000D03*
X85490000Y-82824000D03*
X84220000Y-82824000D03*
X82950000Y-82824000D03*
X81680000Y-82824000D03*
X80410000Y-82824000D03*
%TD*%
D48*
%TO.C,C11*%
X101500000Y-76670000D03*
X103575000Y-76670000D03*
%TD*%
M02*
