%TF.GenerationSoftware,KiCad,Pcbnew,9.0.4*%
%TF.CreationDate,2026-03-31T17:48:17-04:00*%
%TF.ProjectId,MainPCB,4d61696e-5043-4422-9e6b-696361645f70,rev?*%
%TF.SameCoordinates,Original*%
%TF.FileFunction,Paste,Bot*%
%TF.FilePolarity,Positive*%
%FSLAX46Y46*%
G04 Gerber Fmt 4.6, Leading zero omitted, Abs format (unit mm)*
G04 Created by KiCad (PCBNEW 9.0.4) date 2026-03-31 17:48:17*
%MOMM*%
%LPD*%
G01*
G04 APERTURE LIST*
G04 Aperture macros list*
%AMRoundRect*
0 Rectangle with rounded corners*
0 $1 Rounding radius*
0 $2 $3 $4 $5 $6 $7 $8 $9 X,Y pos of 4 corners*
0 Add a 4 corners polygon primitive as box body*
4,1,4,$2,$3,$4,$5,$6,$7,$8,$9,$2,$3,0*
0 Add four circle primitives for the rounded corners*
1,1,$1+$1,$2,$3*
1,1,$1+$1,$4,$5*
1,1,$1+$1,$6,$7*
1,1,$1+$1,$8,$9*
0 Add four rect primitives between the rounded corners*
20,1,$1+$1,$2,$3,$4,$5,0*
20,1,$1+$1,$4,$5,$6,$7,0*
20,1,$1+$1,$6,$7,$8,$9,0*
20,1,$1+$1,$8,$9,$2,$3,0*%
G04 Aperture macros list end*
%ADD10RoundRect,0.250000X-0.350000X-0.450000X0.350000X-0.450000X0.350000X0.450000X-0.350000X0.450000X0*%
%ADD11RoundRect,0.250000X-0.250000X-0.475000X0.250000X-0.475000X0.250000X0.475000X-0.250000X0.475000X0*%
%ADD12RoundRect,0.135000X0.135000X0.185000X-0.135000X0.185000X-0.135000X-0.185000X0.135000X-0.185000X0*%
%ADD13RoundRect,0.250000X0.337500X0.475000X-0.337500X0.475000X-0.337500X-0.475000X0.337500X-0.475000X0*%
%ADD14RoundRect,0.250000X-0.450000X0.350000X-0.450000X-0.350000X0.450000X-0.350000X0.450000X0.350000X0*%
%ADD15RoundRect,0.250000X0.350000X0.450000X-0.350000X0.450000X-0.350000X-0.450000X0.350000X-0.450000X0*%
%ADD16RoundRect,0.250000X-0.475000X0.250000X-0.475000X-0.250000X0.475000X-0.250000X0.475000X0.250000X0*%
%ADD17RoundRect,0.140000X-0.170000X0.140000X-0.170000X-0.140000X0.170000X-0.140000X0.170000X0.140000X0*%
%ADD18RoundRect,0.250000X0.250000X0.475000X-0.250000X0.475000X-0.250000X-0.475000X0.250000X-0.475000X0*%
%ADD19RoundRect,0.140000X0.140000X0.170000X-0.140000X0.170000X-0.140000X-0.170000X0.140000X-0.170000X0*%
%ADD20R,1.525000X0.650000*%
%ADD21RoundRect,0.250000X-0.337500X-0.475000X0.337500X-0.475000X0.337500X0.475000X-0.337500X0.475000X0*%
%ADD22RoundRect,0.135000X-0.135000X-0.185000X0.135000X-0.185000X0.135000X0.185000X-0.135000X0.185000X0*%
%ADD23RoundRect,0.250000X0.785000X1.045000X-0.785000X1.045000X-0.785000X-1.045000X0.785000X-1.045000X0*%
%ADD24RoundRect,0.150000X0.150000X-0.512500X0.150000X0.512500X-0.150000X0.512500X-0.150000X-0.512500X0*%
%ADD25RoundRect,0.100000X0.225000X0.100000X-0.225000X0.100000X-0.225000X-0.100000X0.225000X-0.100000X0*%
%ADD26RoundRect,0.250000X0.475000X-0.337500X0.475000X0.337500X-0.475000X0.337500X-0.475000X-0.337500X0*%
%ADD27RoundRect,0.250000X0.450000X-0.350000X0.450000X0.350000X-0.450000X0.350000X-0.450000X-0.350000X0*%
G04 APERTURE END LIST*
D10*
%TO.C,R9*%
X128620000Y-89890000D03*
X130620000Y-89890000D03*
%TD*%
D11*
%TO.C,C703*%
X141720000Y-68230000D03*
X143620000Y-68230000D03*
%TD*%
D10*
%TO.C,R4*%
X142860000Y-103920000D03*
X144860000Y-103920000D03*
%TD*%
D12*
%TO.C,R104*%
X124200000Y-113110000D03*
X123180000Y-113110000D03*
%TD*%
D13*
%TO.C,C13*%
X110627500Y-122660000D03*
X108552500Y-122660000D03*
%TD*%
D14*
%TO.C,R14*%
X118950000Y-107890000D03*
X118950000Y-109890000D03*
%TD*%
D15*
%TO.C,R11*%
X122740000Y-105080000D03*
X120740000Y-105080000D03*
%TD*%
D16*
%TO.C,C8*%
X79760000Y-76500000D03*
X79760000Y-78400000D03*
%TD*%
D17*
%TO.C,C501*%
X105970000Y-67630000D03*
X105970000Y-68590000D03*
%TD*%
D18*
%TO.C,C9*%
X44340000Y-90620000D03*
X42440000Y-90620000D03*
%TD*%
D15*
%TO.C,R17*%
X103120000Y-103200000D03*
X101120000Y-103200000D03*
%TD*%
D19*
%TO.C,C502*%
X109850000Y-70810000D03*
X108890000Y-70810000D03*
%TD*%
%TO.C,C401*%
X68730000Y-86210000D03*
X67770000Y-86210000D03*
%TD*%
D13*
%TO.C,C11*%
X108067500Y-129780000D03*
X105992500Y-129780000D03*
%TD*%
D20*
%TO.C,IC4*%
X111424000Y-92090000D03*
X111424000Y-93360000D03*
X111424000Y-94630000D03*
X111424000Y-95900000D03*
X111424000Y-97170000D03*
X111424000Y-98440000D03*
X111424000Y-99710000D03*
X111424000Y-100980000D03*
X106000000Y-100980000D03*
X106000000Y-99710000D03*
X106000000Y-98440000D03*
X106000000Y-97170000D03*
X106000000Y-95900000D03*
X106000000Y-94630000D03*
X106000000Y-93360000D03*
X106000000Y-92090000D03*
%TD*%
D21*
%TO.C,C15*%
X130215000Y-70700000D03*
X132290000Y-70700000D03*
%TD*%
D10*
%TO.C,R15*%
X108160000Y-85120000D03*
X110160000Y-85120000D03*
%TD*%
D22*
%TO.C,R703*%
X138820000Y-67090000D03*
X139840000Y-67090000D03*
%TD*%
D20*
%TO.C,IC2*%
X128424000Y-92090000D03*
X128424000Y-93360000D03*
X128424000Y-94630000D03*
X128424000Y-95900000D03*
X128424000Y-97170000D03*
X128424000Y-98440000D03*
X128424000Y-99710000D03*
X128424000Y-100980000D03*
X123000000Y-100980000D03*
X123000000Y-99710000D03*
X123000000Y-98440000D03*
X123000000Y-97170000D03*
X123000000Y-95900000D03*
X123000000Y-94630000D03*
X123000000Y-93360000D03*
X123000000Y-92090000D03*
%TD*%
D16*
%TO.C,C7*%
X82570000Y-76470000D03*
X82570000Y-78370000D03*
%TD*%
D23*
%TO.C,C702*%
X145200000Y-80340000D03*
X138960000Y-80340000D03*
%TD*%
D22*
%TO.C,R702*%
X138880000Y-68780000D03*
X139900000Y-68780000D03*
%TD*%
D21*
%TO.C,C12*%
X134240000Y-78530000D03*
X136315000Y-78530000D03*
%TD*%
D10*
%TO.C,R1*%
X134870000Y-88710000D03*
X136870000Y-88710000D03*
%TD*%
D24*
%TO.C,U701*%
X144830000Y-75850000D03*
X143880000Y-75850000D03*
X142930000Y-75850000D03*
X142930000Y-73575000D03*
X143880000Y-73575000D03*
X144830000Y-73575000D03*
%TD*%
D14*
%TO.C,R8*%
X131360000Y-103150000D03*
X131360000Y-105150000D03*
%TD*%
D13*
%TO.C,C14*%
X102047500Y-127970000D03*
X99972500Y-127970000D03*
%TD*%
D25*
%TO.C,U602*%
X125540000Y-70310000D03*
X125540000Y-70960000D03*
X125540000Y-71610000D03*
X123640000Y-71610000D03*
X123640000Y-70310000D03*
%TD*%
D13*
%TO.C,R18*%
X74535000Y-115890000D03*
X72460000Y-115890000D03*
%TD*%
D20*
%TO.C,IC5*%
X147152000Y-92025000D03*
X147152000Y-93295000D03*
X147152000Y-94565000D03*
X147152000Y-95835000D03*
X147152000Y-97105000D03*
X147152000Y-98375000D03*
X147152000Y-99645000D03*
X147152000Y-100915000D03*
X141728000Y-100915000D03*
X141728000Y-99645000D03*
X141728000Y-98375000D03*
X141728000Y-97105000D03*
X141728000Y-95835000D03*
X141728000Y-94565000D03*
X141728000Y-93295000D03*
X141728000Y-92025000D03*
%TD*%
D26*
%TO.C,R2*%
X61860000Y-118237500D03*
X61860000Y-116162500D03*
%TD*%
D18*
%TO.C,C10*%
X44340000Y-88310000D03*
X42440000Y-88310000D03*
%TD*%
D10*
%TO.C,R16*%
X109280000Y-104010000D03*
X111280000Y-104010000D03*
%TD*%
%TO.C,R3*%
X142290000Y-88640000D03*
X144290000Y-88640000D03*
%TD*%
%TO.C,R12*%
X112940000Y-84390000D03*
X114940000Y-84390000D03*
%TD*%
D20*
%TO.C,IC3*%
X119924000Y-92090000D03*
X119924000Y-93360000D03*
X119924000Y-94630000D03*
X119924000Y-95900000D03*
X119924000Y-97170000D03*
X119924000Y-98440000D03*
X119924000Y-99710000D03*
X119924000Y-100980000D03*
X114500000Y-100980000D03*
X114500000Y-99710000D03*
X114500000Y-98440000D03*
X114500000Y-97170000D03*
X114500000Y-95900000D03*
X114500000Y-94630000D03*
X114500000Y-93360000D03*
X114500000Y-92090000D03*
%TD*%
D27*
%TO.C,R13*%
X118410000Y-105390000D03*
X118410000Y-103390000D03*
%TD*%
D24*
%TO.C,U405*%
X110200000Y-69097500D03*
X109250000Y-69097500D03*
X108300000Y-69097500D03*
X108300000Y-66822500D03*
X110200000Y-66822500D03*
%TD*%
D12*
%TO.C,R401*%
X65570000Y-88770000D03*
X64550000Y-88770000D03*
%TD*%
D27*
%TO.C,R10*%
X128120000Y-105100000D03*
X128120000Y-103100000D03*
%TD*%
D14*
%TO.C,R5*%
X139550000Y-103530000D03*
X139550000Y-105530000D03*
%TD*%
D10*
%TO.C,R7*%
X134260000Y-103720000D03*
X136260000Y-103720000D03*
%TD*%
D20*
%TO.C,IC1*%
X136924000Y-92090000D03*
X136924000Y-93360000D03*
X136924000Y-94630000D03*
X136924000Y-95900000D03*
X136924000Y-97170000D03*
X136924000Y-98440000D03*
X136924000Y-99710000D03*
X136924000Y-100980000D03*
X131500000Y-100980000D03*
X131500000Y-99710000D03*
X131500000Y-98440000D03*
X131500000Y-97170000D03*
X131500000Y-95900000D03*
X131500000Y-94630000D03*
X131500000Y-93360000D03*
X131500000Y-92090000D03*
%TD*%
D22*
%TO.C,R402*%
X65090000Y-86820000D03*
X66110000Y-86820000D03*
%TD*%
M02*
