M48
; DRILL file {KiCad 9.0.4} date 2025-11-15T17:02:03-0500
; FORMAT={-:-/ absolute / metric / decimal}
; #@! TF.CreationDate,2025-11-15T17:02:03-05:00
; #@! TF.GenerationSoftware,Kicad,Pcbnew,9.0.4
; #@! TF.FileFunction,Plated,1,4,PTH
FMAT,2
METRIC
; #@! TA.AperFunction,Plated,PTH,ViaDrill
T1C0.300
; #@! TA.AperFunction,Plated,PTH,ComponentDrill
T2C0.600
; #@! TA.AperFunction,Plated,PTH,ComponentDrill
T3C0.762
; #@! TA.AperFunction,Plated,PTH,ComponentDrill
T4C0.787
; #@! TA.AperFunction,Plated,PTH,ComponentDrill
T5C0.900
; #@! TA.AperFunction,Plated,PTH,ComponentDrill
T6C0.950
; #@! TA.AperFunction,Plated,PTH,ComponentDrill
T7C1.000
; #@! TA.AperFunction,Plated,PTH,ComponentDrill
T8C1.100
; #@! TA.AperFunction,Plated,PTH,ComponentDrill
T9C2.700
; #@! TA.AperFunction,Plated,PTH,ComponentDrill
T10C3.200
%
G90
G05
T1
X50.622Y-97.064
X58.431Y-88.019
X60.429Y-86.975
X62.046Y-116.138
X62.196Y-114.228
X64.981Y-77.905
X64.981Y-86.56
X68.165Y-84.621
X69.118Y-106.966
X73.725Y-88.932
X73.874Y-109.374
X74.11Y-77.779
X74.951Y-86.345
X76.429Y-114.848
X76.724Y-102.275
X77.39Y-88.308
X81.19Y-115.37
X81.22Y-117.92
X81.22Y-119.17
X81.22Y-121.73
X81.68Y-76.77
X81.68Y-77.4
X81.68Y-78.04
X81.68Y-82.19
X81.68Y-82.824
X81.69Y-83.49
X81.888Y-115.375
X81.888Y-117.915
X81.888Y-119.185
X81.888Y-121.725
X82.57Y-115.37
X82.58Y-117.93
X82.58Y-119.2
X82.6Y-121.74
X84.22Y-77.4
X84.23Y-76.73
X84.23Y-78.06
X84.447Y-68.265
X85.41Y-120.087
X85.48Y-76.7
X85.48Y-83.53
X85.49Y-77.4
X85.49Y-82.824
X85.5Y-82.17
X85.52Y-78.06
X86.6Y-121.75
X86.61Y-117.93
X86.64Y-115.37
X87.029Y-108.899
X87.312Y-115.375
X87.312Y-117.915
X87.312Y-121.725
X87.97Y-121.75
X87.99Y-117.92
X88.02Y-76.78
X88.03Y-77.4
X88.03Y-78.05
X88.03Y-82.18
X88.03Y-82.824
X88.03Y-83.48
X88.03Y-115.39
X89.123Y-116.137
X91.5Y-95.68
X91.91Y-98.77
X94.337Y-93.303
X97.251Y-80.975
X97.273Y-109.007
X101.328Y-116.445
X106.08Y-84.255
X108.57Y-89.074
X111.694Y-101.492
X112.71Y-76.77
X112.71Y-82.24
X112.725Y-77.438
X112.725Y-82.862
X112.73Y-83.51
X112.74Y-78.09
X113.4Y-114.594
X115.265Y-77.438
X115.29Y-76.74
X115.29Y-78.15
X116.52Y-76.78
X116.52Y-82.19
X116.535Y-77.438
X116.535Y-82.862
X116.54Y-78.08
X116.55Y-83.56
X117.246Y-107.493
X118.18Y-108.61
X118.18Y-109.226
X118.18Y-114.65
X118.19Y-115.34
X118.22Y-109.87
X118.22Y-113.97
X119.075Y-77.438
X119.075Y-82.862
X119.08Y-82.22
X119.09Y-76.81
X119.09Y-78.12
X119.09Y-83.53
X120.703Y-109.883
X120.72Y-109.226
X120.72Y-114.65
X120.72Y-115.37
X120.73Y-113.98
X120.74Y-108.58
X121.96Y-114.0
X121.99Y-114.65
X122.02Y-115.34
X122.804Y-104.87
X124.51Y-108.57
X124.52Y-113.97
X124.53Y-109.226
X124.53Y-109.89
X124.53Y-114.65
X124.53Y-115.33
X126.629Y-81.277
X126.629Y-108.858
X126.998Y-111.638
X138.371Y-103.102
X138.8Y-74.56
X138.8Y-77.08
X139.13Y-76.56
X139.19Y-74.06
X147.055Y-103.023
X148.927Y-85.993
X149.163Y-80.649
X151.265Y-89.213
X155.605Y-89.237
X167.727Y-90.315
T3
X80.31Y-110.125
X82.85Y-110.125
X85.39Y-110.125
X87.93Y-110.125
X90.47Y-110.125
X103.53Y-127.975
X106.07Y-127.975
X108.61Y-127.975
X111.15Y-127.975
X113.69Y-127.975
T4
X49.35Y-80.1
X49.35Y-86.053
X49.55Y-111.847
X49.55Y-117.8
X49.65Y-71.75
X51.35Y-80.1
X51.35Y-86.053
X51.55Y-111.847
X51.55Y-117.8
X51.65Y-71.75
X53.35Y-80.1
X53.35Y-86.053
X53.55Y-111.847
X53.55Y-117.8
X53.65Y-71.75
X56.7Y-126.7
X58.7Y-126.7
X60.7Y-126.7
T5
X122.12Y-145.26
X122.12Y-147.8
X122.12Y-150.34
X122.12Y-152.88
X144.98Y-140.18
X144.98Y-142.72
X144.98Y-145.26
X144.98Y-147.8
X144.98Y-150.34
X144.98Y-152.88
T6
X60.25Y-68.6
X62.75Y-68.6
X65.25Y-68.6
X107.05Y-145.0
X107.05Y-147.5
X107.05Y-150.0
X138.8Y-69.25
X141.3Y-69.25
X143.5Y-82.05
X143.8Y-69.25
X146.0Y-82.05
X146.3Y-69.25
X148.5Y-82.05
T7
X53.4Y-131.0
X53.4Y-151.5
X71.6Y-68.525
X73.075Y-115.3
X73.075Y-117.8
X74.1Y-68.525
X87.94Y-69.195
X90.44Y-69.195
X98.9Y-68.955
X99.4Y-131.0
X99.4Y-151.5
X101.4Y-68.955
X108.26Y-68.825
X110.76Y-68.825
X110.99Y-91.25
X110.99Y-93.79
X110.99Y-96.33
X110.99Y-98.87
X120.6Y-119.8
X120.6Y-122.3
X126.23Y-88.71
X126.23Y-91.25
X126.23Y-93.79
X126.23Y-96.33
X126.23Y-98.87
X126.23Y-101.41
X127.95Y-68.95
X130.45Y-68.95
X146.6Y-127.45
X146.6Y-129.95
X149.86Y-92.86
X149.86Y-95.4
X152.4Y-92.86
X152.4Y-95.4
X154.94Y-92.86
X154.94Y-95.4
X157.48Y-92.86
X157.48Y-95.4
X160.02Y-92.86
X160.02Y-95.4
X162.56Y-92.86
X162.56Y-95.4
X164.79Y-105.93
X164.79Y-108.47
X170.1Y-94.55
X170.1Y-97.09
X170.1Y-99.63
X170.1Y-102.17
X170.1Y-104.71
X170.1Y-107.25
T8
X47.48Y-90.95
X47.48Y-106.19
X50.02Y-90.95
X50.02Y-106.19
X52.56Y-90.95
X52.56Y-106.19
X55.1Y-90.95
X55.1Y-106.19
X57.64Y-90.95
X57.64Y-106.19
X60.18Y-90.95
X60.18Y-106.19
X62.72Y-90.95
X62.72Y-106.19
X65.26Y-90.95
X65.26Y-106.19
X67.8Y-90.95
X67.8Y-106.19
X70.34Y-90.95
X70.34Y-106.19
X72.88Y-90.95
X72.88Y-106.19
X75.42Y-90.95
X75.42Y-106.19
X77.96Y-90.95
X77.96Y-106.19
X80.5Y-90.95
X80.5Y-106.19
X83.04Y-90.95
X83.04Y-106.19
X85.58Y-90.95
X85.58Y-106.19
X88.12Y-90.95
X88.12Y-106.19
X90.66Y-90.95
X90.66Y-106.19
X93.2Y-90.95
X93.2Y-106.19
X95.74Y-90.95
X95.74Y-106.19
X98.28Y-90.95
X98.28Y-106.19
X100.82Y-90.95
X100.82Y-106.19
X103.36Y-90.95
X103.36Y-106.19
X105.6Y-133.51
X105.6Y-136.05
X105.6Y-138.59
X105.9Y-90.95
X105.9Y-106.19
X153.62Y-104.2
X156.16Y-104.2
X158.7Y-104.2
T9
X71.0Y-75.5
X71.0Y-124.5
X129.0Y-75.5
X129.0Y-124.5
X145.55Y-112.5
X145.55Y-119.7
T10
X81.584Y-71.113
X81.584Y-128.887
X118.416Y-71.113
X118.416Y-128.887
T2
G00X152.1Y-109.35
M15
G01X151.0Y-109.35
M16
G05
G00X152.1Y-122.85
M15
G01X151.0Y-122.85
M16
G05
M30
