%TF.GenerationSoftware,KiCad,Pcbnew,9.0.4*%
%TF.CreationDate,2026-03-31T17:48:18-04:00*%
%TF.ProjectId,MainPCB,4d61696e-5043-4422-9e6b-696361645f70,rev?*%
%TF.SameCoordinates,Original*%
%TF.FileFunction,Legend,Bot*%
%TF.FilePolarity,Positive*%
%FSLAX46Y46*%
G04 Gerber Fmt 4.6, Leading zero omitted, Abs format (unit mm)*
G04 Created by KiCad (PCBNEW 9.0.4) date 2026-03-31 17:48:18*
%MOMM*%
%LPD*%
G01*
G04 APERTURE LIST*
%ADD10C,0.150000*%
%ADD11C,0.254000*%
%ADD12C,0.120000*%
%ADD13C,0.200000*%
G04 APERTURE END LIST*
D10*
X129786666Y-91994819D02*
X130119999Y-91518628D01*
X130358094Y-91994819D02*
X130358094Y-90994819D01*
X130358094Y-90994819D02*
X129977142Y-90994819D01*
X129977142Y-90994819D02*
X129881904Y-91042438D01*
X129881904Y-91042438D02*
X129834285Y-91090057D01*
X129834285Y-91090057D02*
X129786666Y-91185295D01*
X129786666Y-91185295D02*
X129786666Y-91328152D01*
X129786666Y-91328152D02*
X129834285Y-91423390D01*
X129834285Y-91423390D02*
X129881904Y-91471009D01*
X129881904Y-91471009D02*
X129977142Y-91518628D01*
X129977142Y-91518628D02*
X130358094Y-91518628D01*
X129310475Y-91994819D02*
X129119999Y-91994819D01*
X129119999Y-91994819D02*
X129024761Y-91947200D01*
X129024761Y-91947200D02*
X128977142Y-91899580D01*
X128977142Y-91899580D02*
X128881904Y-91756723D01*
X128881904Y-91756723D02*
X128834285Y-91566247D01*
X128834285Y-91566247D02*
X128834285Y-91185295D01*
X128834285Y-91185295D02*
X128881904Y-91090057D01*
X128881904Y-91090057D02*
X128929523Y-91042438D01*
X128929523Y-91042438D02*
X129024761Y-90994819D01*
X129024761Y-90994819D02*
X129215237Y-90994819D01*
X129215237Y-90994819D02*
X129310475Y-91042438D01*
X129310475Y-91042438D02*
X129358094Y-91090057D01*
X129358094Y-91090057D02*
X129405713Y-91185295D01*
X129405713Y-91185295D02*
X129405713Y-91423390D01*
X129405713Y-91423390D02*
X129358094Y-91518628D01*
X129358094Y-91518628D02*
X129310475Y-91566247D01*
X129310475Y-91566247D02*
X129215237Y-91613866D01*
X129215237Y-91613866D02*
X129024761Y-91613866D01*
X129024761Y-91613866D02*
X128929523Y-91566247D01*
X128929523Y-91566247D02*
X128881904Y-91518628D01*
X128881904Y-91518628D02*
X128834285Y-91423390D01*
X143789047Y-70269580D02*
X143836666Y-70317200D01*
X143836666Y-70317200D02*
X143979523Y-70364819D01*
X143979523Y-70364819D02*
X144074761Y-70364819D01*
X144074761Y-70364819D02*
X144217618Y-70317200D01*
X144217618Y-70317200D02*
X144312856Y-70221961D01*
X144312856Y-70221961D02*
X144360475Y-70126723D01*
X144360475Y-70126723D02*
X144408094Y-69936247D01*
X144408094Y-69936247D02*
X144408094Y-69793390D01*
X144408094Y-69793390D02*
X144360475Y-69602914D01*
X144360475Y-69602914D02*
X144312856Y-69507676D01*
X144312856Y-69507676D02*
X144217618Y-69412438D01*
X144217618Y-69412438D02*
X144074761Y-69364819D01*
X144074761Y-69364819D02*
X143979523Y-69364819D01*
X143979523Y-69364819D02*
X143836666Y-69412438D01*
X143836666Y-69412438D02*
X143789047Y-69460057D01*
X143455713Y-69364819D02*
X142789047Y-69364819D01*
X142789047Y-69364819D02*
X143217618Y-70364819D01*
X142217618Y-69364819D02*
X142122380Y-69364819D01*
X142122380Y-69364819D02*
X142027142Y-69412438D01*
X142027142Y-69412438D02*
X141979523Y-69460057D01*
X141979523Y-69460057D02*
X141931904Y-69555295D01*
X141931904Y-69555295D02*
X141884285Y-69745771D01*
X141884285Y-69745771D02*
X141884285Y-69983866D01*
X141884285Y-69983866D02*
X141931904Y-70174342D01*
X141931904Y-70174342D02*
X141979523Y-70269580D01*
X141979523Y-70269580D02*
X142027142Y-70317200D01*
X142027142Y-70317200D02*
X142122380Y-70364819D01*
X142122380Y-70364819D02*
X142217618Y-70364819D01*
X142217618Y-70364819D02*
X142312856Y-70317200D01*
X142312856Y-70317200D02*
X142360475Y-70269580D01*
X142360475Y-70269580D02*
X142408094Y-70174342D01*
X142408094Y-70174342D02*
X142455713Y-69983866D01*
X142455713Y-69983866D02*
X142455713Y-69745771D01*
X142455713Y-69745771D02*
X142408094Y-69555295D01*
X142408094Y-69555295D02*
X142360475Y-69460057D01*
X142360475Y-69460057D02*
X142312856Y-69412438D01*
X142312856Y-69412438D02*
X142217618Y-69364819D01*
X141550951Y-69364819D02*
X140931904Y-69364819D01*
X140931904Y-69364819D02*
X141265237Y-69745771D01*
X141265237Y-69745771D02*
X141122380Y-69745771D01*
X141122380Y-69745771D02*
X141027142Y-69793390D01*
X141027142Y-69793390D02*
X140979523Y-69841009D01*
X140979523Y-69841009D02*
X140931904Y-69936247D01*
X140931904Y-69936247D02*
X140931904Y-70174342D01*
X140931904Y-70174342D02*
X140979523Y-70269580D01*
X140979523Y-70269580D02*
X141027142Y-70317200D01*
X141027142Y-70317200D02*
X141122380Y-70364819D01*
X141122380Y-70364819D02*
X141408094Y-70364819D01*
X141408094Y-70364819D02*
X141503332Y-70317200D01*
X141503332Y-70317200D02*
X141550951Y-70269580D01*
X144026666Y-106024819D02*
X144359999Y-105548628D01*
X144598094Y-106024819D02*
X144598094Y-105024819D01*
X144598094Y-105024819D02*
X144217142Y-105024819D01*
X144217142Y-105024819D02*
X144121904Y-105072438D01*
X144121904Y-105072438D02*
X144074285Y-105120057D01*
X144074285Y-105120057D02*
X144026666Y-105215295D01*
X144026666Y-105215295D02*
X144026666Y-105358152D01*
X144026666Y-105358152D02*
X144074285Y-105453390D01*
X144074285Y-105453390D02*
X144121904Y-105501009D01*
X144121904Y-105501009D02*
X144217142Y-105548628D01*
X144217142Y-105548628D02*
X144598094Y-105548628D01*
X143169523Y-105358152D02*
X143169523Y-106024819D01*
X143407618Y-104977200D02*
X143645713Y-105691485D01*
X143645713Y-105691485D02*
X143026666Y-105691485D01*
X124809047Y-112394819D02*
X125142380Y-111918628D01*
X125380475Y-112394819D02*
X125380475Y-111394819D01*
X125380475Y-111394819D02*
X124999523Y-111394819D01*
X124999523Y-111394819D02*
X124904285Y-111442438D01*
X124904285Y-111442438D02*
X124856666Y-111490057D01*
X124856666Y-111490057D02*
X124809047Y-111585295D01*
X124809047Y-111585295D02*
X124809047Y-111728152D01*
X124809047Y-111728152D02*
X124856666Y-111823390D01*
X124856666Y-111823390D02*
X124904285Y-111871009D01*
X124904285Y-111871009D02*
X124999523Y-111918628D01*
X124999523Y-111918628D02*
X125380475Y-111918628D01*
X123856666Y-112394819D02*
X124428094Y-112394819D01*
X124142380Y-112394819D02*
X124142380Y-111394819D01*
X124142380Y-111394819D02*
X124237618Y-111537676D01*
X124237618Y-111537676D02*
X124332856Y-111632914D01*
X124332856Y-111632914D02*
X124428094Y-111680533D01*
X123237618Y-111394819D02*
X123142380Y-111394819D01*
X123142380Y-111394819D02*
X123047142Y-111442438D01*
X123047142Y-111442438D02*
X122999523Y-111490057D01*
X122999523Y-111490057D02*
X122951904Y-111585295D01*
X122951904Y-111585295D02*
X122904285Y-111775771D01*
X122904285Y-111775771D02*
X122904285Y-112013866D01*
X122904285Y-112013866D02*
X122951904Y-112204342D01*
X122951904Y-112204342D02*
X122999523Y-112299580D01*
X122999523Y-112299580D02*
X123047142Y-112347200D01*
X123047142Y-112347200D02*
X123142380Y-112394819D01*
X123142380Y-112394819D02*
X123237618Y-112394819D01*
X123237618Y-112394819D02*
X123332856Y-112347200D01*
X123332856Y-112347200D02*
X123380475Y-112299580D01*
X123380475Y-112299580D02*
X123428094Y-112204342D01*
X123428094Y-112204342D02*
X123475713Y-112013866D01*
X123475713Y-112013866D02*
X123475713Y-111775771D01*
X123475713Y-111775771D02*
X123428094Y-111585295D01*
X123428094Y-111585295D02*
X123380475Y-111490057D01*
X123380475Y-111490057D02*
X123332856Y-111442438D01*
X123332856Y-111442438D02*
X123237618Y-111394819D01*
X122047142Y-111728152D02*
X122047142Y-112394819D01*
X122285237Y-111347200D02*
X122523332Y-112061485D01*
X122523332Y-112061485D02*
X121904285Y-112061485D01*
X110232857Y-121339580D02*
X110280476Y-121387200D01*
X110280476Y-121387200D02*
X110423333Y-121434819D01*
X110423333Y-121434819D02*
X110518571Y-121434819D01*
X110518571Y-121434819D02*
X110661428Y-121387200D01*
X110661428Y-121387200D02*
X110756666Y-121291961D01*
X110756666Y-121291961D02*
X110804285Y-121196723D01*
X110804285Y-121196723D02*
X110851904Y-121006247D01*
X110851904Y-121006247D02*
X110851904Y-120863390D01*
X110851904Y-120863390D02*
X110804285Y-120672914D01*
X110804285Y-120672914D02*
X110756666Y-120577676D01*
X110756666Y-120577676D02*
X110661428Y-120482438D01*
X110661428Y-120482438D02*
X110518571Y-120434819D01*
X110518571Y-120434819D02*
X110423333Y-120434819D01*
X110423333Y-120434819D02*
X110280476Y-120482438D01*
X110280476Y-120482438D02*
X110232857Y-120530057D01*
X109280476Y-121434819D02*
X109851904Y-121434819D01*
X109566190Y-121434819D02*
X109566190Y-120434819D01*
X109566190Y-120434819D02*
X109661428Y-120577676D01*
X109661428Y-120577676D02*
X109756666Y-120672914D01*
X109756666Y-120672914D02*
X109851904Y-120720533D01*
X108947142Y-120434819D02*
X108328095Y-120434819D01*
X108328095Y-120434819D02*
X108661428Y-120815771D01*
X108661428Y-120815771D02*
X108518571Y-120815771D01*
X108518571Y-120815771D02*
X108423333Y-120863390D01*
X108423333Y-120863390D02*
X108375714Y-120911009D01*
X108375714Y-120911009D02*
X108328095Y-121006247D01*
X108328095Y-121006247D02*
X108328095Y-121244342D01*
X108328095Y-121244342D02*
X108375714Y-121339580D01*
X108375714Y-121339580D02*
X108423333Y-121387200D01*
X108423333Y-121387200D02*
X108518571Y-121434819D01*
X108518571Y-121434819D02*
X108804285Y-121434819D01*
X108804285Y-121434819D02*
X108899523Y-121387200D01*
X108899523Y-121387200D02*
X108947142Y-121339580D01*
X117754819Y-108247142D02*
X117278628Y-107913809D01*
X117754819Y-107675714D02*
X116754819Y-107675714D01*
X116754819Y-107675714D02*
X116754819Y-108056666D01*
X116754819Y-108056666D02*
X116802438Y-108151904D01*
X116802438Y-108151904D02*
X116850057Y-108199523D01*
X116850057Y-108199523D02*
X116945295Y-108247142D01*
X116945295Y-108247142D02*
X117088152Y-108247142D01*
X117088152Y-108247142D02*
X117183390Y-108199523D01*
X117183390Y-108199523D02*
X117231009Y-108151904D01*
X117231009Y-108151904D02*
X117278628Y-108056666D01*
X117278628Y-108056666D02*
X117278628Y-107675714D01*
X117754819Y-109199523D02*
X117754819Y-108628095D01*
X117754819Y-108913809D02*
X116754819Y-108913809D01*
X116754819Y-108913809D02*
X116897676Y-108818571D01*
X116897676Y-108818571D02*
X116992914Y-108723333D01*
X116992914Y-108723333D02*
X117040533Y-108628095D01*
X117088152Y-110056666D02*
X117754819Y-110056666D01*
X116707200Y-109818571D02*
X117421485Y-109580476D01*
X117421485Y-109580476D02*
X117421485Y-110199523D01*
X122382857Y-103884819D02*
X122716190Y-103408628D01*
X122954285Y-103884819D02*
X122954285Y-102884819D01*
X122954285Y-102884819D02*
X122573333Y-102884819D01*
X122573333Y-102884819D02*
X122478095Y-102932438D01*
X122478095Y-102932438D02*
X122430476Y-102980057D01*
X122430476Y-102980057D02*
X122382857Y-103075295D01*
X122382857Y-103075295D02*
X122382857Y-103218152D01*
X122382857Y-103218152D02*
X122430476Y-103313390D01*
X122430476Y-103313390D02*
X122478095Y-103361009D01*
X122478095Y-103361009D02*
X122573333Y-103408628D01*
X122573333Y-103408628D02*
X122954285Y-103408628D01*
X121430476Y-103884819D02*
X122001904Y-103884819D01*
X121716190Y-103884819D02*
X121716190Y-102884819D01*
X121716190Y-102884819D02*
X121811428Y-103027676D01*
X121811428Y-103027676D02*
X121906666Y-103122914D01*
X121906666Y-103122914D02*
X122001904Y-103170533D01*
X120478095Y-103884819D02*
X121049523Y-103884819D01*
X120763809Y-103884819D02*
X120763809Y-102884819D01*
X120763809Y-102884819D02*
X120859047Y-103027676D01*
X120859047Y-103027676D02*
X120954285Y-103122914D01*
X120954285Y-103122914D02*
X121049523Y-103170533D01*
X78439580Y-77283333D02*
X78487200Y-77235714D01*
X78487200Y-77235714D02*
X78534819Y-77092857D01*
X78534819Y-77092857D02*
X78534819Y-76997619D01*
X78534819Y-76997619D02*
X78487200Y-76854762D01*
X78487200Y-76854762D02*
X78391961Y-76759524D01*
X78391961Y-76759524D02*
X78296723Y-76711905D01*
X78296723Y-76711905D02*
X78106247Y-76664286D01*
X78106247Y-76664286D02*
X77963390Y-76664286D01*
X77963390Y-76664286D02*
X77772914Y-76711905D01*
X77772914Y-76711905D02*
X77677676Y-76759524D01*
X77677676Y-76759524D02*
X77582438Y-76854762D01*
X77582438Y-76854762D02*
X77534819Y-76997619D01*
X77534819Y-76997619D02*
X77534819Y-77092857D01*
X77534819Y-77092857D02*
X77582438Y-77235714D01*
X77582438Y-77235714D02*
X77630057Y-77283333D01*
X77963390Y-77854762D02*
X77915771Y-77759524D01*
X77915771Y-77759524D02*
X77868152Y-77711905D01*
X77868152Y-77711905D02*
X77772914Y-77664286D01*
X77772914Y-77664286D02*
X77725295Y-77664286D01*
X77725295Y-77664286D02*
X77630057Y-77711905D01*
X77630057Y-77711905D02*
X77582438Y-77759524D01*
X77582438Y-77759524D02*
X77534819Y-77854762D01*
X77534819Y-77854762D02*
X77534819Y-78045238D01*
X77534819Y-78045238D02*
X77582438Y-78140476D01*
X77582438Y-78140476D02*
X77630057Y-78188095D01*
X77630057Y-78188095D02*
X77725295Y-78235714D01*
X77725295Y-78235714D02*
X77772914Y-78235714D01*
X77772914Y-78235714D02*
X77868152Y-78188095D01*
X77868152Y-78188095D02*
X77915771Y-78140476D01*
X77915771Y-78140476D02*
X77963390Y-78045238D01*
X77963390Y-78045238D02*
X77963390Y-77854762D01*
X77963390Y-77854762D02*
X78011009Y-77759524D01*
X78011009Y-77759524D02*
X78058628Y-77711905D01*
X78058628Y-77711905D02*
X78153866Y-77664286D01*
X78153866Y-77664286D02*
X78344342Y-77664286D01*
X78344342Y-77664286D02*
X78439580Y-77711905D01*
X78439580Y-77711905D02*
X78487200Y-77759524D01*
X78487200Y-77759524D02*
X78534819Y-77854762D01*
X78534819Y-77854762D02*
X78534819Y-78045238D01*
X78534819Y-78045238D02*
X78487200Y-78140476D01*
X78487200Y-78140476D02*
X78439580Y-78188095D01*
X78439580Y-78188095D02*
X78344342Y-78235714D01*
X78344342Y-78235714D02*
X78153866Y-78235714D01*
X78153866Y-78235714D02*
X78058628Y-78188095D01*
X78058628Y-78188095D02*
X78011009Y-78140476D01*
X78011009Y-78140476D02*
X77963390Y-78045238D01*
X105169580Y-66990952D02*
X105217200Y-66943333D01*
X105217200Y-66943333D02*
X105264819Y-66800476D01*
X105264819Y-66800476D02*
X105264819Y-66705238D01*
X105264819Y-66705238D02*
X105217200Y-66562381D01*
X105217200Y-66562381D02*
X105121961Y-66467143D01*
X105121961Y-66467143D02*
X105026723Y-66419524D01*
X105026723Y-66419524D02*
X104836247Y-66371905D01*
X104836247Y-66371905D02*
X104693390Y-66371905D01*
X104693390Y-66371905D02*
X104502914Y-66419524D01*
X104502914Y-66419524D02*
X104407676Y-66467143D01*
X104407676Y-66467143D02*
X104312438Y-66562381D01*
X104312438Y-66562381D02*
X104264819Y-66705238D01*
X104264819Y-66705238D02*
X104264819Y-66800476D01*
X104264819Y-66800476D02*
X104312438Y-66943333D01*
X104312438Y-66943333D02*
X104360057Y-66990952D01*
X104264819Y-67895714D02*
X104264819Y-67419524D01*
X104264819Y-67419524D02*
X104741009Y-67371905D01*
X104741009Y-67371905D02*
X104693390Y-67419524D01*
X104693390Y-67419524D02*
X104645771Y-67514762D01*
X104645771Y-67514762D02*
X104645771Y-67752857D01*
X104645771Y-67752857D02*
X104693390Y-67848095D01*
X104693390Y-67848095D02*
X104741009Y-67895714D01*
X104741009Y-67895714D02*
X104836247Y-67943333D01*
X104836247Y-67943333D02*
X105074342Y-67943333D01*
X105074342Y-67943333D02*
X105169580Y-67895714D01*
X105169580Y-67895714D02*
X105217200Y-67848095D01*
X105217200Y-67848095D02*
X105264819Y-67752857D01*
X105264819Y-67752857D02*
X105264819Y-67514762D01*
X105264819Y-67514762D02*
X105217200Y-67419524D01*
X105217200Y-67419524D02*
X105169580Y-67371905D01*
X104264819Y-68562381D02*
X104264819Y-68657619D01*
X104264819Y-68657619D02*
X104312438Y-68752857D01*
X104312438Y-68752857D02*
X104360057Y-68800476D01*
X104360057Y-68800476D02*
X104455295Y-68848095D01*
X104455295Y-68848095D02*
X104645771Y-68895714D01*
X104645771Y-68895714D02*
X104883866Y-68895714D01*
X104883866Y-68895714D02*
X105074342Y-68848095D01*
X105074342Y-68848095D02*
X105169580Y-68800476D01*
X105169580Y-68800476D02*
X105217200Y-68752857D01*
X105217200Y-68752857D02*
X105264819Y-68657619D01*
X105264819Y-68657619D02*
X105264819Y-68562381D01*
X105264819Y-68562381D02*
X105217200Y-68467143D01*
X105217200Y-68467143D02*
X105169580Y-68419524D01*
X105169580Y-68419524D02*
X105074342Y-68371905D01*
X105074342Y-68371905D02*
X104883866Y-68324286D01*
X104883866Y-68324286D02*
X104645771Y-68324286D01*
X104645771Y-68324286D02*
X104455295Y-68371905D01*
X104455295Y-68371905D02*
X104360057Y-68419524D01*
X104360057Y-68419524D02*
X104312438Y-68467143D01*
X104312438Y-68467143D02*
X104264819Y-68562381D01*
X105264819Y-69848095D02*
X105264819Y-69276667D01*
X105264819Y-69562381D02*
X104264819Y-69562381D01*
X104264819Y-69562381D02*
X104407676Y-69467143D01*
X104407676Y-69467143D02*
X104502914Y-69371905D01*
X104502914Y-69371905D02*
X104550533Y-69276667D01*
X43556666Y-89299580D02*
X43604285Y-89347200D01*
X43604285Y-89347200D02*
X43747142Y-89394819D01*
X43747142Y-89394819D02*
X43842380Y-89394819D01*
X43842380Y-89394819D02*
X43985237Y-89347200D01*
X43985237Y-89347200D02*
X44080475Y-89251961D01*
X44080475Y-89251961D02*
X44128094Y-89156723D01*
X44128094Y-89156723D02*
X44175713Y-88966247D01*
X44175713Y-88966247D02*
X44175713Y-88823390D01*
X44175713Y-88823390D02*
X44128094Y-88632914D01*
X44128094Y-88632914D02*
X44080475Y-88537676D01*
X44080475Y-88537676D02*
X43985237Y-88442438D01*
X43985237Y-88442438D02*
X43842380Y-88394819D01*
X43842380Y-88394819D02*
X43747142Y-88394819D01*
X43747142Y-88394819D02*
X43604285Y-88442438D01*
X43604285Y-88442438D02*
X43556666Y-88490057D01*
X43080475Y-89394819D02*
X42889999Y-89394819D01*
X42889999Y-89394819D02*
X42794761Y-89347200D01*
X42794761Y-89347200D02*
X42747142Y-89299580D01*
X42747142Y-89299580D02*
X42651904Y-89156723D01*
X42651904Y-89156723D02*
X42604285Y-88966247D01*
X42604285Y-88966247D02*
X42604285Y-88585295D01*
X42604285Y-88585295D02*
X42651904Y-88490057D01*
X42651904Y-88490057D02*
X42699523Y-88442438D01*
X42699523Y-88442438D02*
X42794761Y-88394819D01*
X42794761Y-88394819D02*
X42985237Y-88394819D01*
X42985237Y-88394819D02*
X43080475Y-88442438D01*
X43080475Y-88442438D02*
X43128094Y-88490057D01*
X43128094Y-88490057D02*
X43175713Y-88585295D01*
X43175713Y-88585295D02*
X43175713Y-88823390D01*
X43175713Y-88823390D02*
X43128094Y-88918628D01*
X43128094Y-88918628D02*
X43080475Y-88966247D01*
X43080475Y-88966247D02*
X42985237Y-89013866D01*
X42985237Y-89013866D02*
X42794761Y-89013866D01*
X42794761Y-89013866D02*
X42699523Y-88966247D01*
X42699523Y-88966247D02*
X42651904Y-88918628D01*
X42651904Y-88918628D02*
X42604285Y-88823390D01*
X102762857Y-102004819D02*
X103096190Y-101528628D01*
X103334285Y-102004819D02*
X103334285Y-101004819D01*
X103334285Y-101004819D02*
X102953333Y-101004819D01*
X102953333Y-101004819D02*
X102858095Y-101052438D01*
X102858095Y-101052438D02*
X102810476Y-101100057D01*
X102810476Y-101100057D02*
X102762857Y-101195295D01*
X102762857Y-101195295D02*
X102762857Y-101338152D01*
X102762857Y-101338152D02*
X102810476Y-101433390D01*
X102810476Y-101433390D02*
X102858095Y-101481009D01*
X102858095Y-101481009D02*
X102953333Y-101528628D01*
X102953333Y-101528628D02*
X103334285Y-101528628D01*
X101810476Y-102004819D02*
X102381904Y-102004819D01*
X102096190Y-102004819D02*
X102096190Y-101004819D01*
X102096190Y-101004819D02*
X102191428Y-101147676D01*
X102191428Y-101147676D02*
X102286666Y-101242914D01*
X102286666Y-101242914D02*
X102381904Y-101290533D01*
X101477142Y-101004819D02*
X100810476Y-101004819D01*
X100810476Y-101004819D02*
X101239047Y-102004819D01*
X110489047Y-70009580D02*
X110536666Y-70057200D01*
X110536666Y-70057200D02*
X110679523Y-70104819D01*
X110679523Y-70104819D02*
X110774761Y-70104819D01*
X110774761Y-70104819D02*
X110917618Y-70057200D01*
X110917618Y-70057200D02*
X111012856Y-69961961D01*
X111012856Y-69961961D02*
X111060475Y-69866723D01*
X111060475Y-69866723D02*
X111108094Y-69676247D01*
X111108094Y-69676247D02*
X111108094Y-69533390D01*
X111108094Y-69533390D02*
X111060475Y-69342914D01*
X111060475Y-69342914D02*
X111012856Y-69247676D01*
X111012856Y-69247676D02*
X110917618Y-69152438D01*
X110917618Y-69152438D02*
X110774761Y-69104819D01*
X110774761Y-69104819D02*
X110679523Y-69104819D01*
X110679523Y-69104819D02*
X110536666Y-69152438D01*
X110536666Y-69152438D02*
X110489047Y-69200057D01*
X109584285Y-69104819D02*
X110060475Y-69104819D01*
X110060475Y-69104819D02*
X110108094Y-69581009D01*
X110108094Y-69581009D02*
X110060475Y-69533390D01*
X110060475Y-69533390D02*
X109965237Y-69485771D01*
X109965237Y-69485771D02*
X109727142Y-69485771D01*
X109727142Y-69485771D02*
X109631904Y-69533390D01*
X109631904Y-69533390D02*
X109584285Y-69581009D01*
X109584285Y-69581009D02*
X109536666Y-69676247D01*
X109536666Y-69676247D02*
X109536666Y-69914342D01*
X109536666Y-69914342D02*
X109584285Y-70009580D01*
X109584285Y-70009580D02*
X109631904Y-70057200D01*
X109631904Y-70057200D02*
X109727142Y-70104819D01*
X109727142Y-70104819D02*
X109965237Y-70104819D01*
X109965237Y-70104819D02*
X110060475Y-70057200D01*
X110060475Y-70057200D02*
X110108094Y-70009580D01*
X108917618Y-69104819D02*
X108822380Y-69104819D01*
X108822380Y-69104819D02*
X108727142Y-69152438D01*
X108727142Y-69152438D02*
X108679523Y-69200057D01*
X108679523Y-69200057D02*
X108631904Y-69295295D01*
X108631904Y-69295295D02*
X108584285Y-69485771D01*
X108584285Y-69485771D02*
X108584285Y-69723866D01*
X108584285Y-69723866D02*
X108631904Y-69914342D01*
X108631904Y-69914342D02*
X108679523Y-70009580D01*
X108679523Y-70009580D02*
X108727142Y-70057200D01*
X108727142Y-70057200D02*
X108822380Y-70104819D01*
X108822380Y-70104819D02*
X108917618Y-70104819D01*
X108917618Y-70104819D02*
X109012856Y-70057200D01*
X109012856Y-70057200D02*
X109060475Y-70009580D01*
X109060475Y-70009580D02*
X109108094Y-69914342D01*
X109108094Y-69914342D02*
X109155713Y-69723866D01*
X109155713Y-69723866D02*
X109155713Y-69485771D01*
X109155713Y-69485771D02*
X109108094Y-69295295D01*
X109108094Y-69295295D02*
X109060475Y-69200057D01*
X109060475Y-69200057D02*
X109012856Y-69152438D01*
X109012856Y-69152438D02*
X108917618Y-69104819D01*
X108203332Y-69200057D02*
X108155713Y-69152438D01*
X108155713Y-69152438D02*
X108060475Y-69104819D01*
X108060475Y-69104819D02*
X107822380Y-69104819D01*
X107822380Y-69104819D02*
X107727142Y-69152438D01*
X107727142Y-69152438D02*
X107679523Y-69200057D01*
X107679523Y-69200057D02*
X107631904Y-69295295D01*
X107631904Y-69295295D02*
X107631904Y-69390533D01*
X107631904Y-69390533D02*
X107679523Y-69533390D01*
X107679523Y-69533390D02*
X108250951Y-70104819D01*
X108250951Y-70104819D02*
X107631904Y-70104819D01*
X65399047Y-84879580D02*
X65446666Y-84927200D01*
X65446666Y-84927200D02*
X65589523Y-84974819D01*
X65589523Y-84974819D02*
X65684761Y-84974819D01*
X65684761Y-84974819D02*
X65827618Y-84927200D01*
X65827618Y-84927200D02*
X65922856Y-84831961D01*
X65922856Y-84831961D02*
X65970475Y-84736723D01*
X65970475Y-84736723D02*
X66018094Y-84546247D01*
X66018094Y-84546247D02*
X66018094Y-84403390D01*
X66018094Y-84403390D02*
X65970475Y-84212914D01*
X65970475Y-84212914D02*
X65922856Y-84117676D01*
X65922856Y-84117676D02*
X65827618Y-84022438D01*
X65827618Y-84022438D02*
X65684761Y-83974819D01*
X65684761Y-83974819D02*
X65589523Y-83974819D01*
X65589523Y-83974819D02*
X65446666Y-84022438D01*
X65446666Y-84022438D02*
X65399047Y-84070057D01*
X64541904Y-84308152D02*
X64541904Y-84974819D01*
X64779999Y-83927200D02*
X65018094Y-84641485D01*
X65018094Y-84641485D02*
X64399047Y-84641485D01*
X63827618Y-83974819D02*
X63732380Y-83974819D01*
X63732380Y-83974819D02*
X63637142Y-84022438D01*
X63637142Y-84022438D02*
X63589523Y-84070057D01*
X63589523Y-84070057D02*
X63541904Y-84165295D01*
X63541904Y-84165295D02*
X63494285Y-84355771D01*
X63494285Y-84355771D02*
X63494285Y-84593866D01*
X63494285Y-84593866D02*
X63541904Y-84784342D01*
X63541904Y-84784342D02*
X63589523Y-84879580D01*
X63589523Y-84879580D02*
X63637142Y-84927200D01*
X63637142Y-84927200D02*
X63732380Y-84974819D01*
X63732380Y-84974819D02*
X63827618Y-84974819D01*
X63827618Y-84974819D02*
X63922856Y-84927200D01*
X63922856Y-84927200D02*
X63970475Y-84879580D01*
X63970475Y-84879580D02*
X64018094Y-84784342D01*
X64018094Y-84784342D02*
X64065713Y-84593866D01*
X64065713Y-84593866D02*
X64065713Y-84355771D01*
X64065713Y-84355771D02*
X64018094Y-84165295D01*
X64018094Y-84165295D02*
X63970475Y-84070057D01*
X63970475Y-84070057D02*
X63922856Y-84022438D01*
X63922856Y-84022438D02*
X63827618Y-83974819D01*
X62541904Y-84974819D02*
X63113332Y-84974819D01*
X62827618Y-84974819D02*
X62827618Y-83974819D01*
X62827618Y-83974819D02*
X62922856Y-84117676D01*
X62922856Y-84117676D02*
X63018094Y-84212914D01*
X63018094Y-84212914D02*
X63113332Y-84260533D01*
X107672857Y-128459580D02*
X107720476Y-128507200D01*
X107720476Y-128507200D02*
X107863333Y-128554819D01*
X107863333Y-128554819D02*
X107958571Y-128554819D01*
X107958571Y-128554819D02*
X108101428Y-128507200D01*
X108101428Y-128507200D02*
X108196666Y-128411961D01*
X108196666Y-128411961D02*
X108244285Y-128316723D01*
X108244285Y-128316723D02*
X108291904Y-128126247D01*
X108291904Y-128126247D02*
X108291904Y-127983390D01*
X108291904Y-127983390D02*
X108244285Y-127792914D01*
X108244285Y-127792914D02*
X108196666Y-127697676D01*
X108196666Y-127697676D02*
X108101428Y-127602438D01*
X108101428Y-127602438D02*
X107958571Y-127554819D01*
X107958571Y-127554819D02*
X107863333Y-127554819D01*
X107863333Y-127554819D02*
X107720476Y-127602438D01*
X107720476Y-127602438D02*
X107672857Y-127650057D01*
X106720476Y-128554819D02*
X107291904Y-128554819D01*
X107006190Y-128554819D02*
X107006190Y-127554819D01*
X107006190Y-127554819D02*
X107101428Y-127697676D01*
X107101428Y-127697676D02*
X107196666Y-127792914D01*
X107196666Y-127792914D02*
X107291904Y-127840533D01*
X105768095Y-128554819D02*
X106339523Y-128554819D01*
X106053809Y-128554819D02*
X106053809Y-127554819D01*
X106053809Y-127554819D02*
X106149047Y-127697676D01*
X106149047Y-127697676D02*
X106244285Y-127792914D01*
X106244285Y-127792914D02*
X106339523Y-127840533D01*
D11*
X109951762Y-97109318D02*
X109951762Y-95839318D01*
X108621285Y-96988365D02*
X108681761Y-97048842D01*
X108681761Y-97048842D02*
X108863190Y-97109318D01*
X108863190Y-97109318D02*
X108984142Y-97109318D01*
X108984142Y-97109318D02*
X109165571Y-97048842D01*
X109165571Y-97048842D02*
X109286523Y-96927889D01*
X109286523Y-96927889D02*
X109347000Y-96806937D01*
X109347000Y-96806937D02*
X109407476Y-96565032D01*
X109407476Y-96565032D02*
X109407476Y-96383603D01*
X109407476Y-96383603D02*
X109347000Y-96141699D01*
X109347000Y-96141699D02*
X109286523Y-96020746D01*
X109286523Y-96020746D02*
X109165571Y-95899794D01*
X109165571Y-95899794D02*
X108984142Y-95839318D01*
X108984142Y-95839318D02*
X108863190Y-95839318D01*
X108863190Y-95839318D02*
X108681761Y-95899794D01*
X108681761Y-95899794D02*
X108621285Y-95960270D01*
X107532714Y-96262651D02*
X107532714Y-97109318D01*
X107835095Y-95778842D02*
X108137476Y-96685984D01*
X108137476Y-96685984D02*
X107351285Y-96685984D01*
D10*
X131895357Y-72739580D02*
X131942976Y-72787200D01*
X131942976Y-72787200D02*
X132085833Y-72834819D01*
X132085833Y-72834819D02*
X132181071Y-72834819D01*
X132181071Y-72834819D02*
X132323928Y-72787200D01*
X132323928Y-72787200D02*
X132419166Y-72691961D01*
X132419166Y-72691961D02*
X132466785Y-72596723D01*
X132466785Y-72596723D02*
X132514404Y-72406247D01*
X132514404Y-72406247D02*
X132514404Y-72263390D01*
X132514404Y-72263390D02*
X132466785Y-72072914D01*
X132466785Y-72072914D02*
X132419166Y-71977676D01*
X132419166Y-71977676D02*
X132323928Y-71882438D01*
X132323928Y-71882438D02*
X132181071Y-71834819D01*
X132181071Y-71834819D02*
X132085833Y-71834819D01*
X132085833Y-71834819D02*
X131942976Y-71882438D01*
X131942976Y-71882438D02*
X131895357Y-71930057D01*
X130942976Y-72834819D02*
X131514404Y-72834819D01*
X131228690Y-72834819D02*
X131228690Y-71834819D01*
X131228690Y-71834819D02*
X131323928Y-71977676D01*
X131323928Y-71977676D02*
X131419166Y-72072914D01*
X131419166Y-72072914D02*
X131514404Y-72120533D01*
X130038214Y-71834819D02*
X130514404Y-71834819D01*
X130514404Y-71834819D02*
X130562023Y-72311009D01*
X130562023Y-72311009D02*
X130514404Y-72263390D01*
X130514404Y-72263390D02*
X130419166Y-72215771D01*
X130419166Y-72215771D02*
X130181071Y-72215771D01*
X130181071Y-72215771D02*
X130085833Y-72263390D01*
X130085833Y-72263390D02*
X130038214Y-72311009D01*
X130038214Y-72311009D02*
X129990595Y-72406247D01*
X129990595Y-72406247D02*
X129990595Y-72644342D01*
X129990595Y-72644342D02*
X130038214Y-72739580D01*
X130038214Y-72739580D02*
X130085833Y-72787200D01*
X130085833Y-72787200D02*
X130181071Y-72834819D01*
X130181071Y-72834819D02*
X130419166Y-72834819D01*
X130419166Y-72834819D02*
X130514404Y-72787200D01*
X130514404Y-72787200D02*
X130562023Y-72739580D01*
X109802857Y-87224819D02*
X110136190Y-86748628D01*
X110374285Y-87224819D02*
X110374285Y-86224819D01*
X110374285Y-86224819D02*
X109993333Y-86224819D01*
X109993333Y-86224819D02*
X109898095Y-86272438D01*
X109898095Y-86272438D02*
X109850476Y-86320057D01*
X109850476Y-86320057D02*
X109802857Y-86415295D01*
X109802857Y-86415295D02*
X109802857Y-86558152D01*
X109802857Y-86558152D02*
X109850476Y-86653390D01*
X109850476Y-86653390D02*
X109898095Y-86701009D01*
X109898095Y-86701009D02*
X109993333Y-86748628D01*
X109993333Y-86748628D02*
X110374285Y-86748628D01*
X108850476Y-87224819D02*
X109421904Y-87224819D01*
X109136190Y-87224819D02*
X109136190Y-86224819D01*
X109136190Y-86224819D02*
X109231428Y-86367676D01*
X109231428Y-86367676D02*
X109326666Y-86462914D01*
X109326666Y-86462914D02*
X109421904Y-86510533D01*
X107945714Y-86224819D02*
X108421904Y-86224819D01*
X108421904Y-86224819D02*
X108469523Y-86701009D01*
X108469523Y-86701009D02*
X108421904Y-86653390D01*
X108421904Y-86653390D02*
X108326666Y-86605771D01*
X108326666Y-86605771D02*
X108088571Y-86605771D01*
X108088571Y-86605771D02*
X107993333Y-86653390D01*
X107993333Y-86653390D02*
X107945714Y-86701009D01*
X107945714Y-86701009D02*
X107898095Y-86796247D01*
X107898095Y-86796247D02*
X107898095Y-87034342D01*
X107898095Y-87034342D02*
X107945714Y-87129580D01*
X107945714Y-87129580D02*
X107993333Y-87177200D01*
X107993333Y-87177200D02*
X108088571Y-87224819D01*
X108088571Y-87224819D02*
X108326666Y-87224819D01*
X108326666Y-87224819D02*
X108421904Y-87177200D01*
X108421904Y-87177200D02*
X108469523Y-87129580D01*
X31663333Y-84014819D02*
X31663333Y-84729104D01*
X31663333Y-84729104D02*
X31710952Y-84871961D01*
X31710952Y-84871961D02*
X31806190Y-84967200D01*
X31806190Y-84967200D02*
X31949047Y-85014819D01*
X31949047Y-85014819D02*
X32044285Y-85014819D01*
X31282380Y-84014819D02*
X30663333Y-84014819D01*
X30663333Y-84014819D02*
X30996666Y-84395771D01*
X30996666Y-84395771D02*
X30853809Y-84395771D01*
X30853809Y-84395771D02*
X30758571Y-84443390D01*
X30758571Y-84443390D02*
X30710952Y-84491009D01*
X30710952Y-84491009D02*
X30663333Y-84586247D01*
X30663333Y-84586247D02*
X30663333Y-84824342D01*
X30663333Y-84824342D02*
X30710952Y-84919580D01*
X30710952Y-84919580D02*
X30758571Y-84967200D01*
X30758571Y-84967200D02*
X30853809Y-85014819D01*
X30853809Y-85014819D02*
X31139523Y-85014819D01*
X31139523Y-85014819D02*
X31234761Y-84967200D01*
X31234761Y-84967200D02*
X31282380Y-84919580D01*
X140449047Y-68714819D02*
X140782380Y-68238628D01*
X141020475Y-68714819D02*
X141020475Y-67714819D01*
X141020475Y-67714819D02*
X140639523Y-67714819D01*
X140639523Y-67714819D02*
X140544285Y-67762438D01*
X140544285Y-67762438D02*
X140496666Y-67810057D01*
X140496666Y-67810057D02*
X140449047Y-67905295D01*
X140449047Y-67905295D02*
X140449047Y-68048152D01*
X140449047Y-68048152D02*
X140496666Y-68143390D01*
X140496666Y-68143390D02*
X140544285Y-68191009D01*
X140544285Y-68191009D02*
X140639523Y-68238628D01*
X140639523Y-68238628D02*
X141020475Y-68238628D01*
X140115713Y-67714819D02*
X139449047Y-67714819D01*
X139449047Y-67714819D02*
X139877618Y-68714819D01*
X138877618Y-67714819D02*
X138782380Y-67714819D01*
X138782380Y-67714819D02*
X138687142Y-67762438D01*
X138687142Y-67762438D02*
X138639523Y-67810057D01*
X138639523Y-67810057D02*
X138591904Y-67905295D01*
X138591904Y-67905295D02*
X138544285Y-68095771D01*
X138544285Y-68095771D02*
X138544285Y-68333866D01*
X138544285Y-68333866D02*
X138591904Y-68524342D01*
X138591904Y-68524342D02*
X138639523Y-68619580D01*
X138639523Y-68619580D02*
X138687142Y-68667200D01*
X138687142Y-68667200D02*
X138782380Y-68714819D01*
X138782380Y-68714819D02*
X138877618Y-68714819D01*
X138877618Y-68714819D02*
X138972856Y-68667200D01*
X138972856Y-68667200D02*
X139020475Y-68619580D01*
X139020475Y-68619580D02*
X139068094Y-68524342D01*
X139068094Y-68524342D02*
X139115713Y-68333866D01*
X139115713Y-68333866D02*
X139115713Y-68095771D01*
X139115713Y-68095771D02*
X139068094Y-67905295D01*
X139068094Y-67905295D02*
X139020475Y-67810057D01*
X139020475Y-67810057D02*
X138972856Y-67762438D01*
X138972856Y-67762438D02*
X138877618Y-67714819D01*
X138210951Y-67714819D02*
X137591904Y-67714819D01*
X137591904Y-67714819D02*
X137925237Y-68095771D01*
X137925237Y-68095771D02*
X137782380Y-68095771D01*
X137782380Y-68095771D02*
X137687142Y-68143390D01*
X137687142Y-68143390D02*
X137639523Y-68191009D01*
X137639523Y-68191009D02*
X137591904Y-68286247D01*
X137591904Y-68286247D02*
X137591904Y-68524342D01*
X137591904Y-68524342D02*
X137639523Y-68619580D01*
X137639523Y-68619580D02*
X137687142Y-68667200D01*
X137687142Y-68667200D02*
X137782380Y-68714819D01*
X137782380Y-68714819D02*
X138068094Y-68714819D01*
X138068094Y-68714819D02*
X138163332Y-68667200D01*
X138163332Y-68667200D02*
X138210951Y-68619580D01*
D11*
X126951762Y-97109318D02*
X126951762Y-95839318D01*
X125621285Y-96988365D02*
X125681761Y-97048842D01*
X125681761Y-97048842D02*
X125863190Y-97109318D01*
X125863190Y-97109318D02*
X125984142Y-97109318D01*
X125984142Y-97109318D02*
X126165571Y-97048842D01*
X126165571Y-97048842D02*
X126286523Y-96927889D01*
X126286523Y-96927889D02*
X126347000Y-96806937D01*
X126347000Y-96806937D02*
X126407476Y-96565032D01*
X126407476Y-96565032D02*
X126407476Y-96383603D01*
X126407476Y-96383603D02*
X126347000Y-96141699D01*
X126347000Y-96141699D02*
X126286523Y-96020746D01*
X126286523Y-96020746D02*
X126165571Y-95899794D01*
X126165571Y-95899794D02*
X125984142Y-95839318D01*
X125984142Y-95839318D02*
X125863190Y-95839318D01*
X125863190Y-95839318D02*
X125681761Y-95899794D01*
X125681761Y-95899794D02*
X125621285Y-95960270D01*
X125137476Y-95960270D02*
X125077000Y-95899794D01*
X125077000Y-95899794D02*
X124956047Y-95839318D01*
X124956047Y-95839318D02*
X124653666Y-95839318D01*
X124653666Y-95839318D02*
X124532714Y-95899794D01*
X124532714Y-95899794D02*
X124472238Y-95960270D01*
X124472238Y-95960270D02*
X124411761Y-96081222D01*
X124411761Y-96081222D02*
X124411761Y-96202175D01*
X124411761Y-96202175D02*
X124472238Y-96383603D01*
X124472238Y-96383603D02*
X125197952Y-97109318D01*
X125197952Y-97109318D02*
X124411761Y-97109318D01*
D10*
X81249580Y-77253333D02*
X81297200Y-77205714D01*
X81297200Y-77205714D02*
X81344819Y-77062857D01*
X81344819Y-77062857D02*
X81344819Y-76967619D01*
X81344819Y-76967619D02*
X81297200Y-76824762D01*
X81297200Y-76824762D02*
X81201961Y-76729524D01*
X81201961Y-76729524D02*
X81106723Y-76681905D01*
X81106723Y-76681905D02*
X80916247Y-76634286D01*
X80916247Y-76634286D02*
X80773390Y-76634286D01*
X80773390Y-76634286D02*
X80582914Y-76681905D01*
X80582914Y-76681905D02*
X80487676Y-76729524D01*
X80487676Y-76729524D02*
X80392438Y-76824762D01*
X80392438Y-76824762D02*
X80344819Y-76967619D01*
X80344819Y-76967619D02*
X80344819Y-77062857D01*
X80344819Y-77062857D02*
X80392438Y-77205714D01*
X80392438Y-77205714D02*
X80440057Y-77253333D01*
X80344819Y-77586667D02*
X80344819Y-78253333D01*
X80344819Y-78253333D02*
X81344819Y-77824762D01*
X143199047Y-77599580D02*
X143246666Y-77647200D01*
X143246666Y-77647200D02*
X143389523Y-77694819D01*
X143389523Y-77694819D02*
X143484761Y-77694819D01*
X143484761Y-77694819D02*
X143627618Y-77647200D01*
X143627618Y-77647200D02*
X143722856Y-77551961D01*
X143722856Y-77551961D02*
X143770475Y-77456723D01*
X143770475Y-77456723D02*
X143818094Y-77266247D01*
X143818094Y-77266247D02*
X143818094Y-77123390D01*
X143818094Y-77123390D02*
X143770475Y-76932914D01*
X143770475Y-76932914D02*
X143722856Y-76837676D01*
X143722856Y-76837676D02*
X143627618Y-76742438D01*
X143627618Y-76742438D02*
X143484761Y-76694819D01*
X143484761Y-76694819D02*
X143389523Y-76694819D01*
X143389523Y-76694819D02*
X143246666Y-76742438D01*
X143246666Y-76742438D02*
X143199047Y-76790057D01*
X142865713Y-76694819D02*
X142199047Y-76694819D01*
X142199047Y-76694819D02*
X142627618Y-77694819D01*
X141627618Y-76694819D02*
X141532380Y-76694819D01*
X141532380Y-76694819D02*
X141437142Y-76742438D01*
X141437142Y-76742438D02*
X141389523Y-76790057D01*
X141389523Y-76790057D02*
X141341904Y-76885295D01*
X141341904Y-76885295D02*
X141294285Y-77075771D01*
X141294285Y-77075771D02*
X141294285Y-77313866D01*
X141294285Y-77313866D02*
X141341904Y-77504342D01*
X141341904Y-77504342D02*
X141389523Y-77599580D01*
X141389523Y-77599580D02*
X141437142Y-77647200D01*
X141437142Y-77647200D02*
X141532380Y-77694819D01*
X141532380Y-77694819D02*
X141627618Y-77694819D01*
X141627618Y-77694819D02*
X141722856Y-77647200D01*
X141722856Y-77647200D02*
X141770475Y-77599580D01*
X141770475Y-77599580D02*
X141818094Y-77504342D01*
X141818094Y-77504342D02*
X141865713Y-77313866D01*
X141865713Y-77313866D02*
X141865713Y-77075771D01*
X141865713Y-77075771D02*
X141818094Y-76885295D01*
X141818094Y-76885295D02*
X141770475Y-76790057D01*
X141770475Y-76790057D02*
X141722856Y-76742438D01*
X141722856Y-76742438D02*
X141627618Y-76694819D01*
X140913332Y-76790057D02*
X140865713Y-76742438D01*
X140865713Y-76742438D02*
X140770475Y-76694819D01*
X140770475Y-76694819D02*
X140532380Y-76694819D01*
X140532380Y-76694819D02*
X140437142Y-76742438D01*
X140437142Y-76742438D02*
X140389523Y-76790057D01*
X140389523Y-76790057D02*
X140341904Y-76885295D01*
X140341904Y-76885295D02*
X140341904Y-76980533D01*
X140341904Y-76980533D02*
X140389523Y-77123390D01*
X140389523Y-77123390D02*
X140960951Y-77694819D01*
X140960951Y-77694819D02*
X140341904Y-77694819D01*
X140509047Y-70404819D02*
X140842380Y-69928628D01*
X141080475Y-70404819D02*
X141080475Y-69404819D01*
X141080475Y-69404819D02*
X140699523Y-69404819D01*
X140699523Y-69404819D02*
X140604285Y-69452438D01*
X140604285Y-69452438D02*
X140556666Y-69500057D01*
X140556666Y-69500057D02*
X140509047Y-69595295D01*
X140509047Y-69595295D02*
X140509047Y-69738152D01*
X140509047Y-69738152D02*
X140556666Y-69833390D01*
X140556666Y-69833390D02*
X140604285Y-69881009D01*
X140604285Y-69881009D02*
X140699523Y-69928628D01*
X140699523Y-69928628D02*
X141080475Y-69928628D01*
X140175713Y-69404819D02*
X139509047Y-69404819D01*
X139509047Y-69404819D02*
X139937618Y-70404819D01*
X138937618Y-69404819D02*
X138842380Y-69404819D01*
X138842380Y-69404819D02*
X138747142Y-69452438D01*
X138747142Y-69452438D02*
X138699523Y-69500057D01*
X138699523Y-69500057D02*
X138651904Y-69595295D01*
X138651904Y-69595295D02*
X138604285Y-69785771D01*
X138604285Y-69785771D02*
X138604285Y-70023866D01*
X138604285Y-70023866D02*
X138651904Y-70214342D01*
X138651904Y-70214342D02*
X138699523Y-70309580D01*
X138699523Y-70309580D02*
X138747142Y-70357200D01*
X138747142Y-70357200D02*
X138842380Y-70404819D01*
X138842380Y-70404819D02*
X138937618Y-70404819D01*
X138937618Y-70404819D02*
X139032856Y-70357200D01*
X139032856Y-70357200D02*
X139080475Y-70309580D01*
X139080475Y-70309580D02*
X139128094Y-70214342D01*
X139128094Y-70214342D02*
X139175713Y-70023866D01*
X139175713Y-70023866D02*
X139175713Y-69785771D01*
X139175713Y-69785771D02*
X139128094Y-69595295D01*
X139128094Y-69595295D02*
X139080475Y-69500057D01*
X139080475Y-69500057D02*
X139032856Y-69452438D01*
X139032856Y-69452438D02*
X138937618Y-69404819D01*
X138223332Y-69500057D02*
X138175713Y-69452438D01*
X138175713Y-69452438D02*
X138080475Y-69404819D01*
X138080475Y-69404819D02*
X137842380Y-69404819D01*
X137842380Y-69404819D02*
X137747142Y-69452438D01*
X137747142Y-69452438D02*
X137699523Y-69500057D01*
X137699523Y-69500057D02*
X137651904Y-69595295D01*
X137651904Y-69595295D02*
X137651904Y-69690533D01*
X137651904Y-69690533D02*
X137699523Y-69833390D01*
X137699523Y-69833390D02*
X138270951Y-70404819D01*
X138270951Y-70404819D02*
X137651904Y-70404819D01*
X135920357Y-80569580D02*
X135967976Y-80617200D01*
X135967976Y-80617200D02*
X136110833Y-80664819D01*
X136110833Y-80664819D02*
X136206071Y-80664819D01*
X136206071Y-80664819D02*
X136348928Y-80617200D01*
X136348928Y-80617200D02*
X136444166Y-80521961D01*
X136444166Y-80521961D02*
X136491785Y-80426723D01*
X136491785Y-80426723D02*
X136539404Y-80236247D01*
X136539404Y-80236247D02*
X136539404Y-80093390D01*
X136539404Y-80093390D02*
X136491785Y-79902914D01*
X136491785Y-79902914D02*
X136444166Y-79807676D01*
X136444166Y-79807676D02*
X136348928Y-79712438D01*
X136348928Y-79712438D02*
X136206071Y-79664819D01*
X136206071Y-79664819D02*
X136110833Y-79664819D01*
X136110833Y-79664819D02*
X135967976Y-79712438D01*
X135967976Y-79712438D02*
X135920357Y-79760057D01*
X134967976Y-80664819D02*
X135539404Y-80664819D01*
X135253690Y-80664819D02*
X135253690Y-79664819D01*
X135253690Y-79664819D02*
X135348928Y-79807676D01*
X135348928Y-79807676D02*
X135444166Y-79902914D01*
X135444166Y-79902914D02*
X135539404Y-79950533D01*
X134587023Y-79760057D02*
X134539404Y-79712438D01*
X134539404Y-79712438D02*
X134444166Y-79664819D01*
X134444166Y-79664819D02*
X134206071Y-79664819D01*
X134206071Y-79664819D02*
X134110833Y-79712438D01*
X134110833Y-79712438D02*
X134063214Y-79760057D01*
X134063214Y-79760057D02*
X134015595Y-79855295D01*
X134015595Y-79855295D02*
X134015595Y-79950533D01*
X134015595Y-79950533D02*
X134063214Y-80093390D01*
X134063214Y-80093390D02*
X134634642Y-80664819D01*
X134634642Y-80664819D02*
X134015595Y-80664819D01*
X136036666Y-90814819D02*
X136369999Y-90338628D01*
X136608094Y-90814819D02*
X136608094Y-89814819D01*
X136608094Y-89814819D02*
X136227142Y-89814819D01*
X136227142Y-89814819D02*
X136131904Y-89862438D01*
X136131904Y-89862438D02*
X136084285Y-89910057D01*
X136084285Y-89910057D02*
X136036666Y-90005295D01*
X136036666Y-90005295D02*
X136036666Y-90148152D01*
X136036666Y-90148152D02*
X136084285Y-90243390D01*
X136084285Y-90243390D02*
X136131904Y-90291009D01*
X136131904Y-90291009D02*
X136227142Y-90338628D01*
X136227142Y-90338628D02*
X136608094Y-90338628D01*
X135084285Y-90814819D02*
X135655713Y-90814819D01*
X135369999Y-90814819D02*
X135369999Y-89814819D01*
X135369999Y-89814819D02*
X135465237Y-89957676D01*
X135465237Y-89957676D02*
X135560475Y-90052914D01*
X135560475Y-90052914D02*
X135655713Y-90100533D01*
X145734819Y-72998214D02*
X146544342Y-72998214D01*
X146544342Y-72998214D02*
X146639580Y-73045833D01*
X146639580Y-73045833D02*
X146687200Y-73093452D01*
X146687200Y-73093452D02*
X146734819Y-73188690D01*
X146734819Y-73188690D02*
X146734819Y-73379166D01*
X146734819Y-73379166D02*
X146687200Y-73474404D01*
X146687200Y-73474404D02*
X146639580Y-73522023D01*
X146639580Y-73522023D02*
X146544342Y-73569642D01*
X146544342Y-73569642D02*
X145734819Y-73569642D01*
X145734819Y-73950595D02*
X145734819Y-74617261D01*
X145734819Y-74617261D02*
X146734819Y-74188690D01*
X145734819Y-75188690D02*
X145734819Y-75283928D01*
X145734819Y-75283928D02*
X145782438Y-75379166D01*
X145782438Y-75379166D02*
X145830057Y-75426785D01*
X145830057Y-75426785D02*
X145925295Y-75474404D01*
X145925295Y-75474404D02*
X146115771Y-75522023D01*
X146115771Y-75522023D02*
X146353866Y-75522023D01*
X146353866Y-75522023D02*
X146544342Y-75474404D01*
X146544342Y-75474404D02*
X146639580Y-75426785D01*
X146639580Y-75426785D02*
X146687200Y-75379166D01*
X146687200Y-75379166D02*
X146734819Y-75283928D01*
X146734819Y-75283928D02*
X146734819Y-75188690D01*
X146734819Y-75188690D02*
X146687200Y-75093452D01*
X146687200Y-75093452D02*
X146639580Y-75045833D01*
X146639580Y-75045833D02*
X146544342Y-74998214D01*
X146544342Y-74998214D02*
X146353866Y-74950595D01*
X146353866Y-74950595D02*
X146115771Y-74950595D01*
X146115771Y-74950595D02*
X145925295Y-74998214D01*
X145925295Y-74998214D02*
X145830057Y-75045833D01*
X145830057Y-75045833D02*
X145782438Y-75093452D01*
X145782438Y-75093452D02*
X145734819Y-75188690D01*
X146734819Y-76474404D02*
X146734819Y-75902976D01*
X146734819Y-76188690D02*
X145734819Y-76188690D01*
X145734819Y-76188690D02*
X145877676Y-76093452D01*
X145877676Y-76093452D02*
X145972914Y-75998214D01*
X145972914Y-75998214D02*
X146020533Y-75902976D01*
X130164819Y-103983333D02*
X129688628Y-103650000D01*
X130164819Y-103411905D02*
X129164819Y-103411905D01*
X129164819Y-103411905D02*
X129164819Y-103792857D01*
X129164819Y-103792857D02*
X129212438Y-103888095D01*
X129212438Y-103888095D02*
X129260057Y-103935714D01*
X129260057Y-103935714D02*
X129355295Y-103983333D01*
X129355295Y-103983333D02*
X129498152Y-103983333D01*
X129498152Y-103983333D02*
X129593390Y-103935714D01*
X129593390Y-103935714D02*
X129641009Y-103888095D01*
X129641009Y-103888095D02*
X129688628Y-103792857D01*
X129688628Y-103792857D02*
X129688628Y-103411905D01*
X129593390Y-104554762D02*
X129545771Y-104459524D01*
X129545771Y-104459524D02*
X129498152Y-104411905D01*
X129498152Y-104411905D02*
X129402914Y-104364286D01*
X129402914Y-104364286D02*
X129355295Y-104364286D01*
X129355295Y-104364286D02*
X129260057Y-104411905D01*
X129260057Y-104411905D02*
X129212438Y-104459524D01*
X129212438Y-104459524D02*
X129164819Y-104554762D01*
X129164819Y-104554762D02*
X129164819Y-104745238D01*
X129164819Y-104745238D02*
X129212438Y-104840476D01*
X129212438Y-104840476D02*
X129260057Y-104888095D01*
X129260057Y-104888095D02*
X129355295Y-104935714D01*
X129355295Y-104935714D02*
X129402914Y-104935714D01*
X129402914Y-104935714D02*
X129498152Y-104888095D01*
X129498152Y-104888095D02*
X129545771Y-104840476D01*
X129545771Y-104840476D02*
X129593390Y-104745238D01*
X129593390Y-104745238D02*
X129593390Y-104554762D01*
X129593390Y-104554762D02*
X129641009Y-104459524D01*
X129641009Y-104459524D02*
X129688628Y-104411905D01*
X129688628Y-104411905D02*
X129783866Y-104364286D01*
X129783866Y-104364286D02*
X129974342Y-104364286D01*
X129974342Y-104364286D02*
X130069580Y-104411905D01*
X130069580Y-104411905D02*
X130117200Y-104459524D01*
X130117200Y-104459524D02*
X130164819Y-104554762D01*
X130164819Y-104554762D02*
X130164819Y-104745238D01*
X130164819Y-104745238D02*
X130117200Y-104840476D01*
X130117200Y-104840476D02*
X130069580Y-104888095D01*
X130069580Y-104888095D02*
X129974342Y-104935714D01*
X129974342Y-104935714D02*
X129783866Y-104935714D01*
X129783866Y-104935714D02*
X129688628Y-104888095D01*
X129688628Y-104888095D02*
X129641009Y-104840476D01*
X129641009Y-104840476D02*
X129593390Y-104745238D01*
X101652857Y-126649580D02*
X101700476Y-126697200D01*
X101700476Y-126697200D02*
X101843333Y-126744819D01*
X101843333Y-126744819D02*
X101938571Y-126744819D01*
X101938571Y-126744819D02*
X102081428Y-126697200D01*
X102081428Y-126697200D02*
X102176666Y-126601961D01*
X102176666Y-126601961D02*
X102224285Y-126506723D01*
X102224285Y-126506723D02*
X102271904Y-126316247D01*
X102271904Y-126316247D02*
X102271904Y-126173390D01*
X102271904Y-126173390D02*
X102224285Y-125982914D01*
X102224285Y-125982914D02*
X102176666Y-125887676D01*
X102176666Y-125887676D02*
X102081428Y-125792438D01*
X102081428Y-125792438D02*
X101938571Y-125744819D01*
X101938571Y-125744819D02*
X101843333Y-125744819D01*
X101843333Y-125744819D02*
X101700476Y-125792438D01*
X101700476Y-125792438D02*
X101652857Y-125840057D01*
X100700476Y-126744819D02*
X101271904Y-126744819D01*
X100986190Y-126744819D02*
X100986190Y-125744819D01*
X100986190Y-125744819D02*
X101081428Y-125887676D01*
X101081428Y-125887676D02*
X101176666Y-125982914D01*
X101176666Y-125982914D02*
X101271904Y-126030533D01*
X99843333Y-126078152D02*
X99843333Y-126744819D01*
X100081428Y-125697200D02*
X100319523Y-126411485D01*
X100319523Y-126411485D02*
X99700476Y-126411485D01*
X126304285Y-68164819D02*
X126304285Y-68974342D01*
X126304285Y-68974342D02*
X126256666Y-69069580D01*
X126256666Y-69069580D02*
X126209047Y-69117200D01*
X126209047Y-69117200D02*
X126113809Y-69164819D01*
X126113809Y-69164819D02*
X125923333Y-69164819D01*
X125923333Y-69164819D02*
X125828095Y-69117200D01*
X125828095Y-69117200D02*
X125780476Y-69069580D01*
X125780476Y-69069580D02*
X125732857Y-68974342D01*
X125732857Y-68974342D02*
X125732857Y-68164819D01*
X124828095Y-68164819D02*
X125018571Y-68164819D01*
X125018571Y-68164819D02*
X125113809Y-68212438D01*
X125113809Y-68212438D02*
X125161428Y-68260057D01*
X125161428Y-68260057D02*
X125256666Y-68402914D01*
X125256666Y-68402914D02*
X125304285Y-68593390D01*
X125304285Y-68593390D02*
X125304285Y-68974342D01*
X125304285Y-68974342D02*
X125256666Y-69069580D01*
X125256666Y-69069580D02*
X125209047Y-69117200D01*
X125209047Y-69117200D02*
X125113809Y-69164819D01*
X125113809Y-69164819D02*
X124923333Y-69164819D01*
X124923333Y-69164819D02*
X124828095Y-69117200D01*
X124828095Y-69117200D02*
X124780476Y-69069580D01*
X124780476Y-69069580D02*
X124732857Y-68974342D01*
X124732857Y-68974342D02*
X124732857Y-68736247D01*
X124732857Y-68736247D02*
X124780476Y-68641009D01*
X124780476Y-68641009D02*
X124828095Y-68593390D01*
X124828095Y-68593390D02*
X124923333Y-68545771D01*
X124923333Y-68545771D02*
X125113809Y-68545771D01*
X125113809Y-68545771D02*
X125209047Y-68593390D01*
X125209047Y-68593390D02*
X125256666Y-68641009D01*
X125256666Y-68641009D02*
X125304285Y-68736247D01*
X124113809Y-68164819D02*
X124018571Y-68164819D01*
X124018571Y-68164819D02*
X123923333Y-68212438D01*
X123923333Y-68212438D02*
X123875714Y-68260057D01*
X123875714Y-68260057D02*
X123828095Y-68355295D01*
X123828095Y-68355295D02*
X123780476Y-68545771D01*
X123780476Y-68545771D02*
X123780476Y-68783866D01*
X123780476Y-68783866D02*
X123828095Y-68974342D01*
X123828095Y-68974342D02*
X123875714Y-69069580D01*
X123875714Y-69069580D02*
X123923333Y-69117200D01*
X123923333Y-69117200D02*
X124018571Y-69164819D01*
X124018571Y-69164819D02*
X124113809Y-69164819D01*
X124113809Y-69164819D02*
X124209047Y-69117200D01*
X124209047Y-69117200D02*
X124256666Y-69069580D01*
X124256666Y-69069580D02*
X124304285Y-68974342D01*
X124304285Y-68974342D02*
X124351904Y-68783866D01*
X124351904Y-68783866D02*
X124351904Y-68545771D01*
X124351904Y-68545771D02*
X124304285Y-68355295D01*
X124304285Y-68355295D02*
X124256666Y-68260057D01*
X124256666Y-68260057D02*
X124209047Y-68212438D01*
X124209047Y-68212438D02*
X124113809Y-68164819D01*
X123399523Y-68260057D02*
X123351904Y-68212438D01*
X123351904Y-68212438D02*
X123256666Y-68164819D01*
X123256666Y-68164819D02*
X123018571Y-68164819D01*
X123018571Y-68164819D02*
X122923333Y-68212438D01*
X122923333Y-68212438D02*
X122875714Y-68260057D01*
X122875714Y-68260057D02*
X122828095Y-68355295D01*
X122828095Y-68355295D02*
X122828095Y-68450533D01*
X122828095Y-68450533D02*
X122875714Y-68593390D01*
X122875714Y-68593390D02*
X123447142Y-69164819D01*
X123447142Y-69164819D02*
X122828095Y-69164819D01*
X74140357Y-114664819D02*
X74473690Y-114188628D01*
X74711785Y-114664819D02*
X74711785Y-113664819D01*
X74711785Y-113664819D02*
X74330833Y-113664819D01*
X74330833Y-113664819D02*
X74235595Y-113712438D01*
X74235595Y-113712438D02*
X74187976Y-113760057D01*
X74187976Y-113760057D02*
X74140357Y-113855295D01*
X74140357Y-113855295D02*
X74140357Y-113998152D01*
X74140357Y-113998152D02*
X74187976Y-114093390D01*
X74187976Y-114093390D02*
X74235595Y-114141009D01*
X74235595Y-114141009D02*
X74330833Y-114188628D01*
X74330833Y-114188628D02*
X74711785Y-114188628D01*
X73187976Y-114664819D02*
X73759404Y-114664819D01*
X73473690Y-114664819D02*
X73473690Y-113664819D01*
X73473690Y-113664819D02*
X73568928Y-113807676D01*
X73568928Y-113807676D02*
X73664166Y-113902914D01*
X73664166Y-113902914D02*
X73759404Y-113950533D01*
X72616547Y-114093390D02*
X72711785Y-114045771D01*
X72711785Y-114045771D02*
X72759404Y-113998152D01*
X72759404Y-113998152D02*
X72807023Y-113902914D01*
X72807023Y-113902914D02*
X72807023Y-113855295D01*
X72807023Y-113855295D02*
X72759404Y-113760057D01*
X72759404Y-113760057D02*
X72711785Y-113712438D01*
X72711785Y-113712438D02*
X72616547Y-113664819D01*
X72616547Y-113664819D02*
X72426071Y-113664819D01*
X72426071Y-113664819D02*
X72330833Y-113712438D01*
X72330833Y-113712438D02*
X72283214Y-113760057D01*
X72283214Y-113760057D02*
X72235595Y-113855295D01*
X72235595Y-113855295D02*
X72235595Y-113902914D01*
X72235595Y-113902914D02*
X72283214Y-113998152D01*
X72283214Y-113998152D02*
X72330833Y-114045771D01*
X72330833Y-114045771D02*
X72426071Y-114093390D01*
X72426071Y-114093390D02*
X72616547Y-114093390D01*
X72616547Y-114093390D02*
X72711785Y-114141009D01*
X72711785Y-114141009D02*
X72759404Y-114188628D01*
X72759404Y-114188628D02*
X72807023Y-114283866D01*
X72807023Y-114283866D02*
X72807023Y-114474342D01*
X72807023Y-114474342D02*
X72759404Y-114569580D01*
X72759404Y-114569580D02*
X72711785Y-114617200D01*
X72711785Y-114617200D02*
X72616547Y-114664819D01*
X72616547Y-114664819D02*
X72426071Y-114664819D01*
X72426071Y-114664819D02*
X72330833Y-114617200D01*
X72330833Y-114617200D02*
X72283214Y-114569580D01*
X72283214Y-114569580D02*
X72235595Y-114474342D01*
X72235595Y-114474342D02*
X72235595Y-114283866D01*
X72235595Y-114283866D02*
X72283214Y-114188628D01*
X72283214Y-114188628D02*
X72330833Y-114141009D01*
X72330833Y-114141009D02*
X72426071Y-114093390D01*
D11*
X145679762Y-97044318D02*
X145679762Y-95774318D01*
X144349285Y-96923365D02*
X144409761Y-96983842D01*
X144409761Y-96983842D02*
X144591190Y-97044318D01*
X144591190Y-97044318D02*
X144712142Y-97044318D01*
X144712142Y-97044318D02*
X144893571Y-96983842D01*
X144893571Y-96983842D02*
X145014523Y-96862889D01*
X145014523Y-96862889D02*
X145075000Y-96741937D01*
X145075000Y-96741937D02*
X145135476Y-96500032D01*
X145135476Y-96500032D02*
X145135476Y-96318603D01*
X145135476Y-96318603D02*
X145075000Y-96076699D01*
X145075000Y-96076699D02*
X145014523Y-95955746D01*
X145014523Y-95955746D02*
X144893571Y-95834794D01*
X144893571Y-95834794D02*
X144712142Y-95774318D01*
X144712142Y-95774318D02*
X144591190Y-95774318D01*
X144591190Y-95774318D02*
X144409761Y-95834794D01*
X144409761Y-95834794D02*
X144349285Y-95895270D01*
X143200238Y-95774318D02*
X143805000Y-95774318D01*
X143805000Y-95774318D02*
X143865476Y-96379080D01*
X143865476Y-96379080D02*
X143805000Y-96318603D01*
X143805000Y-96318603D02*
X143684047Y-96258127D01*
X143684047Y-96258127D02*
X143381666Y-96258127D01*
X143381666Y-96258127D02*
X143260714Y-96318603D01*
X143260714Y-96318603D02*
X143200238Y-96379080D01*
X143200238Y-96379080D02*
X143139761Y-96500032D01*
X143139761Y-96500032D02*
X143139761Y-96802413D01*
X143139761Y-96802413D02*
X143200238Y-96923365D01*
X143200238Y-96923365D02*
X143260714Y-96983842D01*
X143260714Y-96983842D02*
X143381666Y-97044318D01*
X143381666Y-97044318D02*
X143684047Y-97044318D01*
X143684047Y-97044318D02*
X143805000Y-96983842D01*
X143805000Y-96983842D02*
X143865476Y-96923365D01*
D10*
X63994819Y-117033333D02*
X63518628Y-116700000D01*
X63994819Y-116461905D02*
X62994819Y-116461905D01*
X62994819Y-116461905D02*
X62994819Y-116842857D01*
X62994819Y-116842857D02*
X63042438Y-116938095D01*
X63042438Y-116938095D02*
X63090057Y-116985714D01*
X63090057Y-116985714D02*
X63185295Y-117033333D01*
X63185295Y-117033333D02*
X63328152Y-117033333D01*
X63328152Y-117033333D02*
X63423390Y-116985714D01*
X63423390Y-116985714D02*
X63471009Y-116938095D01*
X63471009Y-116938095D02*
X63518628Y-116842857D01*
X63518628Y-116842857D02*
X63518628Y-116461905D01*
X63090057Y-117414286D02*
X63042438Y-117461905D01*
X63042438Y-117461905D02*
X62994819Y-117557143D01*
X62994819Y-117557143D02*
X62994819Y-117795238D01*
X62994819Y-117795238D02*
X63042438Y-117890476D01*
X63042438Y-117890476D02*
X63090057Y-117938095D01*
X63090057Y-117938095D02*
X63185295Y-117985714D01*
X63185295Y-117985714D02*
X63280533Y-117985714D01*
X63280533Y-117985714D02*
X63423390Y-117938095D01*
X63423390Y-117938095D02*
X63994819Y-117366667D01*
X63994819Y-117366667D02*
X63994819Y-117985714D01*
X44032857Y-86989580D02*
X44080476Y-87037200D01*
X44080476Y-87037200D02*
X44223333Y-87084819D01*
X44223333Y-87084819D02*
X44318571Y-87084819D01*
X44318571Y-87084819D02*
X44461428Y-87037200D01*
X44461428Y-87037200D02*
X44556666Y-86941961D01*
X44556666Y-86941961D02*
X44604285Y-86846723D01*
X44604285Y-86846723D02*
X44651904Y-86656247D01*
X44651904Y-86656247D02*
X44651904Y-86513390D01*
X44651904Y-86513390D02*
X44604285Y-86322914D01*
X44604285Y-86322914D02*
X44556666Y-86227676D01*
X44556666Y-86227676D02*
X44461428Y-86132438D01*
X44461428Y-86132438D02*
X44318571Y-86084819D01*
X44318571Y-86084819D02*
X44223333Y-86084819D01*
X44223333Y-86084819D02*
X44080476Y-86132438D01*
X44080476Y-86132438D02*
X44032857Y-86180057D01*
X43080476Y-87084819D02*
X43651904Y-87084819D01*
X43366190Y-87084819D02*
X43366190Y-86084819D01*
X43366190Y-86084819D02*
X43461428Y-86227676D01*
X43461428Y-86227676D02*
X43556666Y-86322914D01*
X43556666Y-86322914D02*
X43651904Y-86370533D01*
X42461428Y-86084819D02*
X42366190Y-86084819D01*
X42366190Y-86084819D02*
X42270952Y-86132438D01*
X42270952Y-86132438D02*
X42223333Y-86180057D01*
X42223333Y-86180057D02*
X42175714Y-86275295D01*
X42175714Y-86275295D02*
X42128095Y-86465771D01*
X42128095Y-86465771D02*
X42128095Y-86703866D01*
X42128095Y-86703866D02*
X42175714Y-86894342D01*
X42175714Y-86894342D02*
X42223333Y-86989580D01*
X42223333Y-86989580D02*
X42270952Y-87037200D01*
X42270952Y-87037200D02*
X42366190Y-87084819D01*
X42366190Y-87084819D02*
X42461428Y-87084819D01*
X42461428Y-87084819D02*
X42556666Y-87037200D01*
X42556666Y-87037200D02*
X42604285Y-86989580D01*
X42604285Y-86989580D02*
X42651904Y-86894342D01*
X42651904Y-86894342D02*
X42699523Y-86703866D01*
X42699523Y-86703866D02*
X42699523Y-86465771D01*
X42699523Y-86465771D02*
X42651904Y-86275295D01*
X42651904Y-86275295D02*
X42604285Y-86180057D01*
X42604285Y-86180057D02*
X42556666Y-86132438D01*
X42556666Y-86132438D02*
X42461428Y-86084819D01*
X110922857Y-106114819D02*
X111256190Y-105638628D01*
X111494285Y-106114819D02*
X111494285Y-105114819D01*
X111494285Y-105114819D02*
X111113333Y-105114819D01*
X111113333Y-105114819D02*
X111018095Y-105162438D01*
X111018095Y-105162438D02*
X110970476Y-105210057D01*
X110970476Y-105210057D02*
X110922857Y-105305295D01*
X110922857Y-105305295D02*
X110922857Y-105448152D01*
X110922857Y-105448152D02*
X110970476Y-105543390D01*
X110970476Y-105543390D02*
X111018095Y-105591009D01*
X111018095Y-105591009D02*
X111113333Y-105638628D01*
X111113333Y-105638628D02*
X111494285Y-105638628D01*
X109970476Y-106114819D02*
X110541904Y-106114819D01*
X110256190Y-106114819D02*
X110256190Y-105114819D01*
X110256190Y-105114819D02*
X110351428Y-105257676D01*
X110351428Y-105257676D02*
X110446666Y-105352914D01*
X110446666Y-105352914D02*
X110541904Y-105400533D01*
X109113333Y-105114819D02*
X109303809Y-105114819D01*
X109303809Y-105114819D02*
X109399047Y-105162438D01*
X109399047Y-105162438D02*
X109446666Y-105210057D01*
X109446666Y-105210057D02*
X109541904Y-105352914D01*
X109541904Y-105352914D02*
X109589523Y-105543390D01*
X109589523Y-105543390D02*
X109589523Y-105924342D01*
X109589523Y-105924342D02*
X109541904Y-106019580D01*
X109541904Y-106019580D02*
X109494285Y-106067200D01*
X109494285Y-106067200D02*
X109399047Y-106114819D01*
X109399047Y-106114819D02*
X109208571Y-106114819D01*
X109208571Y-106114819D02*
X109113333Y-106067200D01*
X109113333Y-106067200D02*
X109065714Y-106019580D01*
X109065714Y-106019580D02*
X109018095Y-105924342D01*
X109018095Y-105924342D02*
X109018095Y-105686247D01*
X109018095Y-105686247D02*
X109065714Y-105591009D01*
X109065714Y-105591009D02*
X109113333Y-105543390D01*
X109113333Y-105543390D02*
X109208571Y-105495771D01*
X109208571Y-105495771D02*
X109399047Y-105495771D01*
X109399047Y-105495771D02*
X109494285Y-105543390D01*
X109494285Y-105543390D02*
X109541904Y-105591009D01*
X109541904Y-105591009D02*
X109589523Y-105686247D01*
X143456666Y-90744819D02*
X143789999Y-90268628D01*
X144028094Y-90744819D02*
X144028094Y-89744819D01*
X144028094Y-89744819D02*
X143647142Y-89744819D01*
X143647142Y-89744819D02*
X143551904Y-89792438D01*
X143551904Y-89792438D02*
X143504285Y-89840057D01*
X143504285Y-89840057D02*
X143456666Y-89935295D01*
X143456666Y-89935295D02*
X143456666Y-90078152D01*
X143456666Y-90078152D02*
X143504285Y-90173390D01*
X143504285Y-90173390D02*
X143551904Y-90221009D01*
X143551904Y-90221009D02*
X143647142Y-90268628D01*
X143647142Y-90268628D02*
X144028094Y-90268628D01*
X143123332Y-89744819D02*
X142504285Y-89744819D01*
X142504285Y-89744819D02*
X142837618Y-90125771D01*
X142837618Y-90125771D02*
X142694761Y-90125771D01*
X142694761Y-90125771D02*
X142599523Y-90173390D01*
X142599523Y-90173390D02*
X142551904Y-90221009D01*
X142551904Y-90221009D02*
X142504285Y-90316247D01*
X142504285Y-90316247D02*
X142504285Y-90554342D01*
X142504285Y-90554342D02*
X142551904Y-90649580D01*
X142551904Y-90649580D02*
X142599523Y-90697200D01*
X142599523Y-90697200D02*
X142694761Y-90744819D01*
X142694761Y-90744819D02*
X142980475Y-90744819D01*
X142980475Y-90744819D02*
X143075713Y-90697200D01*
X143075713Y-90697200D02*
X143123332Y-90649580D01*
X114582857Y-86494819D02*
X114916190Y-86018628D01*
X115154285Y-86494819D02*
X115154285Y-85494819D01*
X115154285Y-85494819D02*
X114773333Y-85494819D01*
X114773333Y-85494819D02*
X114678095Y-85542438D01*
X114678095Y-85542438D02*
X114630476Y-85590057D01*
X114630476Y-85590057D02*
X114582857Y-85685295D01*
X114582857Y-85685295D02*
X114582857Y-85828152D01*
X114582857Y-85828152D02*
X114630476Y-85923390D01*
X114630476Y-85923390D02*
X114678095Y-85971009D01*
X114678095Y-85971009D02*
X114773333Y-86018628D01*
X114773333Y-86018628D02*
X115154285Y-86018628D01*
X113630476Y-86494819D02*
X114201904Y-86494819D01*
X113916190Y-86494819D02*
X113916190Y-85494819D01*
X113916190Y-85494819D02*
X114011428Y-85637676D01*
X114011428Y-85637676D02*
X114106666Y-85732914D01*
X114106666Y-85732914D02*
X114201904Y-85780533D01*
X113249523Y-85590057D02*
X113201904Y-85542438D01*
X113201904Y-85542438D02*
X113106666Y-85494819D01*
X113106666Y-85494819D02*
X112868571Y-85494819D01*
X112868571Y-85494819D02*
X112773333Y-85542438D01*
X112773333Y-85542438D02*
X112725714Y-85590057D01*
X112725714Y-85590057D02*
X112678095Y-85685295D01*
X112678095Y-85685295D02*
X112678095Y-85780533D01*
X112678095Y-85780533D02*
X112725714Y-85923390D01*
X112725714Y-85923390D02*
X113297142Y-86494819D01*
X113297142Y-86494819D02*
X112678095Y-86494819D01*
D11*
X118451762Y-97109318D02*
X118451762Y-95839318D01*
X117121285Y-96988365D02*
X117181761Y-97048842D01*
X117181761Y-97048842D02*
X117363190Y-97109318D01*
X117363190Y-97109318D02*
X117484142Y-97109318D01*
X117484142Y-97109318D02*
X117665571Y-97048842D01*
X117665571Y-97048842D02*
X117786523Y-96927889D01*
X117786523Y-96927889D02*
X117847000Y-96806937D01*
X117847000Y-96806937D02*
X117907476Y-96565032D01*
X117907476Y-96565032D02*
X117907476Y-96383603D01*
X117907476Y-96383603D02*
X117847000Y-96141699D01*
X117847000Y-96141699D02*
X117786523Y-96020746D01*
X117786523Y-96020746D02*
X117665571Y-95899794D01*
X117665571Y-95899794D02*
X117484142Y-95839318D01*
X117484142Y-95839318D02*
X117363190Y-95839318D01*
X117363190Y-95839318D02*
X117181761Y-95899794D01*
X117181761Y-95899794D02*
X117121285Y-95960270D01*
X116697952Y-95839318D02*
X115911761Y-95839318D01*
X115911761Y-95839318D02*
X116335095Y-96323127D01*
X116335095Y-96323127D02*
X116153666Y-96323127D01*
X116153666Y-96323127D02*
X116032714Y-96383603D01*
X116032714Y-96383603D02*
X115972238Y-96444080D01*
X115972238Y-96444080D02*
X115911761Y-96565032D01*
X115911761Y-96565032D02*
X115911761Y-96867413D01*
X115911761Y-96867413D02*
X115972238Y-96988365D01*
X115972238Y-96988365D02*
X116032714Y-97048842D01*
X116032714Y-97048842D02*
X116153666Y-97109318D01*
X116153666Y-97109318D02*
X116516523Y-97109318D01*
X116516523Y-97109318D02*
X116637476Y-97048842D01*
X116637476Y-97048842D02*
X116697952Y-96988365D01*
D10*
X120514819Y-103747142D02*
X120038628Y-103413809D01*
X120514819Y-103175714D02*
X119514819Y-103175714D01*
X119514819Y-103175714D02*
X119514819Y-103556666D01*
X119514819Y-103556666D02*
X119562438Y-103651904D01*
X119562438Y-103651904D02*
X119610057Y-103699523D01*
X119610057Y-103699523D02*
X119705295Y-103747142D01*
X119705295Y-103747142D02*
X119848152Y-103747142D01*
X119848152Y-103747142D02*
X119943390Y-103699523D01*
X119943390Y-103699523D02*
X119991009Y-103651904D01*
X119991009Y-103651904D02*
X120038628Y-103556666D01*
X120038628Y-103556666D02*
X120038628Y-103175714D01*
X120514819Y-104699523D02*
X120514819Y-104128095D01*
X120514819Y-104413809D02*
X119514819Y-104413809D01*
X119514819Y-104413809D02*
X119657676Y-104318571D01*
X119657676Y-104318571D02*
X119752914Y-104223333D01*
X119752914Y-104223333D02*
X119800533Y-104128095D01*
X119514819Y-105032857D02*
X119514819Y-105651904D01*
X119514819Y-105651904D02*
X119895771Y-105318571D01*
X119895771Y-105318571D02*
X119895771Y-105461428D01*
X119895771Y-105461428D02*
X119943390Y-105556666D01*
X119943390Y-105556666D02*
X119991009Y-105604285D01*
X119991009Y-105604285D02*
X120086247Y-105651904D01*
X120086247Y-105651904D02*
X120324342Y-105651904D01*
X120324342Y-105651904D02*
X120419580Y-105604285D01*
X120419580Y-105604285D02*
X120467200Y-105556666D01*
X120467200Y-105556666D02*
X120514819Y-105461428D01*
X120514819Y-105461428D02*
X120514819Y-105175714D01*
X120514819Y-105175714D02*
X120467200Y-105080476D01*
X120467200Y-105080476D02*
X120419580Y-105032857D01*
X111104819Y-66245714D02*
X111914342Y-66245714D01*
X111914342Y-66245714D02*
X112009580Y-66293333D01*
X112009580Y-66293333D02*
X112057200Y-66340952D01*
X112057200Y-66340952D02*
X112104819Y-66436190D01*
X112104819Y-66436190D02*
X112104819Y-66626666D01*
X112104819Y-66626666D02*
X112057200Y-66721904D01*
X112057200Y-66721904D02*
X112009580Y-66769523D01*
X112009580Y-66769523D02*
X111914342Y-66817142D01*
X111914342Y-66817142D02*
X111104819Y-66817142D01*
X111438152Y-67721904D02*
X112104819Y-67721904D01*
X111057200Y-67483809D02*
X111771485Y-67245714D01*
X111771485Y-67245714D02*
X111771485Y-67864761D01*
X111104819Y-68436190D02*
X111104819Y-68531428D01*
X111104819Y-68531428D02*
X111152438Y-68626666D01*
X111152438Y-68626666D02*
X111200057Y-68674285D01*
X111200057Y-68674285D02*
X111295295Y-68721904D01*
X111295295Y-68721904D02*
X111485771Y-68769523D01*
X111485771Y-68769523D02*
X111723866Y-68769523D01*
X111723866Y-68769523D02*
X111914342Y-68721904D01*
X111914342Y-68721904D02*
X112009580Y-68674285D01*
X112009580Y-68674285D02*
X112057200Y-68626666D01*
X112057200Y-68626666D02*
X112104819Y-68531428D01*
X112104819Y-68531428D02*
X112104819Y-68436190D01*
X112104819Y-68436190D02*
X112057200Y-68340952D01*
X112057200Y-68340952D02*
X112009580Y-68293333D01*
X112009580Y-68293333D02*
X111914342Y-68245714D01*
X111914342Y-68245714D02*
X111723866Y-68198095D01*
X111723866Y-68198095D02*
X111485771Y-68198095D01*
X111485771Y-68198095D02*
X111295295Y-68245714D01*
X111295295Y-68245714D02*
X111200057Y-68293333D01*
X111200057Y-68293333D02*
X111152438Y-68340952D01*
X111152438Y-68340952D02*
X111104819Y-68436190D01*
X111104819Y-69674285D02*
X111104819Y-69198095D01*
X111104819Y-69198095D02*
X111581009Y-69150476D01*
X111581009Y-69150476D02*
X111533390Y-69198095D01*
X111533390Y-69198095D02*
X111485771Y-69293333D01*
X111485771Y-69293333D02*
X111485771Y-69531428D01*
X111485771Y-69531428D02*
X111533390Y-69626666D01*
X111533390Y-69626666D02*
X111581009Y-69674285D01*
X111581009Y-69674285D02*
X111676247Y-69721904D01*
X111676247Y-69721904D02*
X111914342Y-69721904D01*
X111914342Y-69721904D02*
X112009580Y-69674285D01*
X112009580Y-69674285D02*
X112057200Y-69626666D01*
X112057200Y-69626666D02*
X112104819Y-69531428D01*
X112104819Y-69531428D02*
X112104819Y-69293333D01*
X112104819Y-69293333D02*
X112057200Y-69198095D01*
X112057200Y-69198095D02*
X112009580Y-69150476D01*
X69549047Y-89474819D02*
X69882380Y-88998628D01*
X70120475Y-89474819D02*
X70120475Y-88474819D01*
X70120475Y-88474819D02*
X69739523Y-88474819D01*
X69739523Y-88474819D02*
X69644285Y-88522438D01*
X69644285Y-88522438D02*
X69596666Y-88570057D01*
X69596666Y-88570057D02*
X69549047Y-88665295D01*
X69549047Y-88665295D02*
X69549047Y-88808152D01*
X69549047Y-88808152D02*
X69596666Y-88903390D01*
X69596666Y-88903390D02*
X69644285Y-88951009D01*
X69644285Y-88951009D02*
X69739523Y-88998628D01*
X69739523Y-88998628D02*
X70120475Y-88998628D01*
X68691904Y-88808152D02*
X68691904Y-89474819D01*
X68929999Y-88427200D02*
X69168094Y-89141485D01*
X69168094Y-89141485D02*
X68549047Y-89141485D01*
X67977618Y-88474819D02*
X67882380Y-88474819D01*
X67882380Y-88474819D02*
X67787142Y-88522438D01*
X67787142Y-88522438D02*
X67739523Y-88570057D01*
X67739523Y-88570057D02*
X67691904Y-88665295D01*
X67691904Y-88665295D02*
X67644285Y-88855771D01*
X67644285Y-88855771D02*
X67644285Y-89093866D01*
X67644285Y-89093866D02*
X67691904Y-89284342D01*
X67691904Y-89284342D02*
X67739523Y-89379580D01*
X67739523Y-89379580D02*
X67787142Y-89427200D01*
X67787142Y-89427200D02*
X67882380Y-89474819D01*
X67882380Y-89474819D02*
X67977618Y-89474819D01*
X67977618Y-89474819D02*
X68072856Y-89427200D01*
X68072856Y-89427200D02*
X68120475Y-89379580D01*
X68120475Y-89379580D02*
X68168094Y-89284342D01*
X68168094Y-89284342D02*
X68215713Y-89093866D01*
X68215713Y-89093866D02*
X68215713Y-88855771D01*
X68215713Y-88855771D02*
X68168094Y-88665295D01*
X68168094Y-88665295D02*
X68120475Y-88570057D01*
X68120475Y-88570057D02*
X68072856Y-88522438D01*
X68072856Y-88522438D02*
X67977618Y-88474819D01*
X66691904Y-89474819D02*
X67263332Y-89474819D01*
X66977618Y-89474819D02*
X66977618Y-88474819D01*
X66977618Y-88474819D02*
X67072856Y-88617676D01*
X67072856Y-88617676D02*
X67168094Y-88712914D01*
X67168094Y-88712914D02*
X67263332Y-88760533D01*
X130224819Y-103457142D02*
X129748628Y-103123809D01*
X130224819Y-102885714D02*
X129224819Y-102885714D01*
X129224819Y-102885714D02*
X129224819Y-103266666D01*
X129224819Y-103266666D02*
X129272438Y-103361904D01*
X129272438Y-103361904D02*
X129320057Y-103409523D01*
X129320057Y-103409523D02*
X129415295Y-103457142D01*
X129415295Y-103457142D02*
X129558152Y-103457142D01*
X129558152Y-103457142D02*
X129653390Y-103409523D01*
X129653390Y-103409523D02*
X129701009Y-103361904D01*
X129701009Y-103361904D02*
X129748628Y-103266666D01*
X129748628Y-103266666D02*
X129748628Y-102885714D01*
X130224819Y-104409523D02*
X130224819Y-103838095D01*
X130224819Y-104123809D02*
X129224819Y-104123809D01*
X129224819Y-104123809D02*
X129367676Y-104028571D01*
X129367676Y-104028571D02*
X129462914Y-103933333D01*
X129462914Y-103933333D02*
X129510533Y-103838095D01*
X129224819Y-105028571D02*
X129224819Y-105123809D01*
X129224819Y-105123809D02*
X129272438Y-105219047D01*
X129272438Y-105219047D02*
X129320057Y-105266666D01*
X129320057Y-105266666D02*
X129415295Y-105314285D01*
X129415295Y-105314285D02*
X129605771Y-105361904D01*
X129605771Y-105361904D02*
X129843866Y-105361904D01*
X129843866Y-105361904D02*
X130034342Y-105314285D01*
X130034342Y-105314285D02*
X130129580Y-105266666D01*
X130129580Y-105266666D02*
X130177200Y-105219047D01*
X130177200Y-105219047D02*
X130224819Y-105123809D01*
X130224819Y-105123809D02*
X130224819Y-105028571D01*
X130224819Y-105028571D02*
X130177200Y-104933333D01*
X130177200Y-104933333D02*
X130129580Y-104885714D01*
X130129580Y-104885714D02*
X130034342Y-104838095D01*
X130034342Y-104838095D02*
X129843866Y-104790476D01*
X129843866Y-104790476D02*
X129605771Y-104790476D01*
X129605771Y-104790476D02*
X129415295Y-104838095D01*
X129415295Y-104838095D02*
X129320057Y-104885714D01*
X129320057Y-104885714D02*
X129272438Y-104933333D01*
X129272438Y-104933333D02*
X129224819Y-105028571D01*
X138354819Y-104363333D02*
X137878628Y-104030000D01*
X138354819Y-103791905D02*
X137354819Y-103791905D01*
X137354819Y-103791905D02*
X137354819Y-104172857D01*
X137354819Y-104172857D02*
X137402438Y-104268095D01*
X137402438Y-104268095D02*
X137450057Y-104315714D01*
X137450057Y-104315714D02*
X137545295Y-104363333D01*
X137545295Y-104363333D02*
X137688152Y-104363333D01*
X137688152Y-104363333D02*
X137783390Y-104315714D01*
X137783390Y-104315714D02*
X137831009Y-104268095D01*
X137831009Y-104268095D02*
X137878628Y-104172857D01*
X137878628Y-104172857D02*
X137878628Y-103791905D01*
X137354819Y-105268095D02*
X137354819Y-104791905D01*
X137354819Y-104791905D02*
X137831009Y-104744286D01*
X137831009Y-104744286D02*
X137783390Y-104791905D01*
X137783390Y-104791905D02*
X137735771Y-104887143D01*
X137735771Y-104887143D02*
X137735771Y-105125238D01*
X137735771Y-105125238D02*
X137783390Y-105220476D01*
X137783390Y-105220476D02*
X137831009Y-105268095D01*
X137831009Y-105268095D02*
X137926247Y-105315714D01*
X137926247Y-105315714D02*
X138164342Y-105315714D01*
X138164342Y-105315714D02*
X138259580Y-105268095D01*
X138259580Y-105268095D02*
X138307200Y-105220476D01*
X138307200Y-105220476D02*
X138354819Y-105125238D01*
X138354819Y-105125238D02*
X138354819Y-104887143D01*
X138354819Y-104887143D02*
X138307200Y-104791905D01*
X138307200Y-104791905D02*
X138259580Y-104744286D01*
X135426666Y-105824819D02*
X135759999Y-105348628D01*
X135998094Y-105824819D02*
X135998094Y-104824819D01*
X135998094Y-104824819D02*
X135617142Y-104824819D01*
X135617142Y-104824819D02*
X135521904Y-104872438D01*
X135521904Y-104872438D02*
X135474285Y-104920057D01*
X135474285Y-104920057D02*
X135426666Y-105015295D01*
X135426666Y-105015295D02*
X135426666Y-105158152D01*
X135426666Y-105158152D02*
X135474285Y-105253390D01*
X135474285Y-105253390D02*
X135521904Y-105301009D01*
X135521904Y-105301009D02*
X135617142Y-105348628D01*
X135617142Y-105348628D02*
X135998094Y-105348628D01*
X135093332Y-104824819D02*
X134426666Y-104824819D01*
X134426666Y-104824819D02*
X134855237Y-105824819D01*
D11*
X135451762Y-97109318D02*
X135451762Y-95839318D01*
X134121285Y-96988365D02*
X134181761Y-97048842D01*
X134181761Y-97048842D02*
X134363190Y-97109318D01*
X134363190Y-97109318D02*
X134484142Y-97109318D01*
X134484142Y-97109318D02*
X134665571Y-97048842D01*
X134665571Y-97048842D02*
X134786523Y-96927889D01*
X134786523Y-96927889D02*
X134847000Y-96806937D01*
X134847000Y-96806937D02*
X134907476Y-96565032D01*
X134907476Y-96565032D02*
X134907476Y-96383603D01*
X134907476Y-96383603D02*
X134847000Y-96141699D01*
X134847000Y-96141699D02*
X134786523Y-96020746D01*
X134786523Y-96020746D02*
X134665571Y-95899794D01*
X134665571Y-95899794D02*
X134484142Y-95839318D01*
X134484142Y-95839318D02*
X134363190Y-95839318D01*
X134363190Y-95839318D02*
X134181761Y-95899794D01*
X134181761Y-95899794D02*
X134121285Y-95960270D01*
X132911761Y-97109318D02*
X133637476Y-97109318D01*
X133274619Y-97109318D02*
X133274619Y-95839318D01*
X133274619Y-95839318D02*
X133395571Y-96020746D01*
X133395571Y-96020746D02*
X133516523Y-96141699D01*
X133516523Y-96141699D02*
X133637476Y-96202175D01*
D10*
X66719047Y-88444819D02*
X67052380Y-87968628D01*
X67290475Y-88444819D02*
X67290475Y-87444819D01*
X67290475Y-87444819D02*
X66909523Y-87444819D01*
X66909523Y-87444819D02*
X66814285Y-87492438D01*
X66814285Y-87492438D02*
X66766666Y-87540057D01*
X66766666Y-87540057D02*
X66719047Y-87635295D01*
X66719047Y-87635295D02*
X66719047Y-87778152D01*
X66719047Y-87778152D02*
X66766666Y-87873390D01*
X66766666Y-87873390D02*
X66814285Y-87921009D01*
X66814285Y-87921009D02*
X66909523Y-87968628D01*
X66909523Y-87968628D02*
X67290475Y-87968628D01*
X65861904Y-87778152D02*
X65861904Y-88444819D01*
X66099999Y-87397200D02*
X66338094Y-88111485D01*
X66338094Y-88111485D02*
X65719047Y-88111485D01*
X65147618Y-87444819D02*
X65052380Y-87444819D01*
X65052380Y-87444819D02*
X64957142Y-87492438D01*
X64957142Y-87492438D02*
X64909523Y-87540057D01*
X64909523Y-87540057D02*
X64861904Y-87635295D01*
X64861904Y-87635295D02*
X64814285Y-87825771D01*
X64814285Y-87825771D02*
X64814285Y-88063866D01*
X64814285Y-88063866D02*
X64861904Y-88254342D01*
X64861904Y-88254342D02*
X64909523Y-88349580D01*
X64909523Y-88349580D02*
X64957142Y-88397200D01*
X64957142Y-88397200D02*
X65052380Y-88444819D01*
X65052380Y-88444819D02*
X65147618Y-88444819D01*
X65147618Y-88444819D02*
X65242856Y-88397200D01*
X65242856Y-88397200D02*
X65290475Y-88349580D01*
X65290475Y-88349580D02*
X65338094Y-88254342D01*
X65338094Y-88254342D02*
X65385713Y-88063866D01*
X65385713Y-88063866D02*
X65385713Y-87825771D01*
X65385713Y-87825771D02*
X65338094Y-87635295D01*
X65338094Y-87635295D02*
X65290475Y-87540057D01*
X65290475Y-87540057D02*
X65242856Y-87492438D01*
X65242856Y-87492438D02*
X65147618Y-87444819D01*
X64433332Y-87540057D02*
X64385713Y-87492438D01*
X64385713Y-87492438D02*
X64290475Y-87444819D01*
X64290475Y-87444819D02*
X64052380Y-87444819D01*
X64052380Y-87444819D02*
X63957142Y-87492438D01*
X63957142Y-87492438D02*
X63909523Y-87540057D01*
X63909523Y-87540057D02*
X63861904Y-87635295D01*
X63861904Y-87635295D02*
X63861904Y-87730533D01*
X63861904Y-87730533D02*
X63909523Y-87873390D01*
X63909523Y-87873390D02*
X64480951Y-88444819D01*
X64480951Y-88444819D02*
X63861904Y-88444819D01*
D12*
%TO.C,R9*%
X129392936Y-89155000D02*
X129847064Y-89155000D01*
X129392936Y-90625000D02*
X129847064Y-90625000D01*
%TO.C,C703*%
X142408748Y-67495000D02*
X142931252Y-67495000D01*
X142408748Y-68965000D02*
X142931252Y-68965000D01*
%TO.C,R4*%
X143632936Y-103185000D02*
X144087064Y-103185000D01*
X143632936Y-104655000D02*
X144087064Y-104655000D01*
%TO.C,R104*%
X123843641Y-112730000D02*
X123536359Y-112730000D01*
X123843641Y-113490000D02*
X123536359Y-113490000D01*
%TO.C,C13*%
X109851252Y-121925000D02*
X109328748Y-121925000D01*
X109851252Y-123395000D02*
X109328748Y-123395000D01*
%TO.C,R14*%
X118215000Y-108662936D02*
X118215000Y-109117064D01*
X119685000Y-108662936D02*
X119685000Y-109117064D01*
%TO.C,R11*%
X121967064Y-104345000D02*
X121512936Y-104345000D01*
X121967064Y-105815000D02*
X121512936Y-105815000D01*
%TO.C,C8*%
X79025000Y-77188748D02*
X79025000Y-77711252D01*
X80495000Y-77188748D02*
X80495000Y-77711252D01*
%TO.C,C501*%
X105610000Y-68002164D02*
X105610000Y-68217836D01*
X106330000Y-68002164D02*
X106330000Y-68217836D01*
%TO.C,C9*%
X43651252Y-89885000D02*
X43128748Y-89885000D01*
X43651252Y-91355000D02*
X43128748Y-91355000D01*
%TO.C,R17*%
X102347064Y-102465000D02*
X101892936Y-102465000D01*
X102347064Y-103935000D02*
X101892936Y-103935000D01*
%TO.C,C502*%
X109477836Y-70450000D02*
X109262164Y-70450000D01*
X109477836Y-71170000D02*
X109262164Y-71170000D01*
%TO.C,C401*%
X68357836Y-85850000D02*
X68142164Y-85850000D01*
X68357836Y-86570000D02*
X68142164Y-86570000D01*
%TO.C,C11*%
X107291252Y-129045000D02*
X106768748Y-129045000D01*
X107291252Y-130515000D02*
X106768748Y-130515000D01*
D13*
%TO.C,IC4*%
X107112000Y-91585000D02*
X107112000Y-101485000D01*
X107112000Y-101485000D02*
X110312000Y-101485000D01*
X110312000Y-91585000D02*
X107112000Y-91585000D01*
X110312000Y-101485000D02*
X110312000Y-91585000D01*
X112187000Y-91415000D02*
X110662000Y-91415000D01*
D12*
%TO.C,C15*%
X130991248Y-69965000D02*
X131513752Y-69965000D01*
X130991248Y-71435000D02*
X131513752Y-71435000D01*
%TO.C,R15*%
X108932936Y-84385000D02*
X109387064Y-84385000D01*
X108932936Y-85855000D02*
X109387064Y-85855000D01*
%TO.C,J3*%
X26770000Y-85450000D02*
X26770000Y-108570000D01*
X26770000Y-108570000D02*
X35890000Y-108570000D01*
X28080000Y-86750000D02*
X28080000Y-107270000D01*
X28080000Y-107270000D02*
X34580000Y-107270000D01*
X34580000Y-86750000D02*
X28080000Y-86750000D01*
X34580000Y-94960000D02*
X34580000Y-86750000D01*
X34580000Y-99060000D02*
X35890000Y-99060000D01*
X34580000Y-107270000D02*
X34580000Y-99060000D01*
X35890000Y-85450000D02*
X26770000Y-85450000D01*
X35890000Y-94960000D02*
X34580000Y-94960000D01*
X35890000Y-108570000D02*
X35890000Y-85450000D01*
X36280000Y-90660000D02*
X37280000Y-90160000D01*
X37280000Y-90160000D02*
X37280000Y-91160000D01*
X37280000Y-91160000D02*
X36280000Y-90660000D01*
%TO.C,R703*%
X139176359Y-66710000D02*
X139483641Y-66710000D01*
X139176359Y-67470000D02*
X139483641Y-67470000D01*
D13*
%TO.C,IC2*%
X124112000Y-91585000D02*
X124112000Y-101485000D01*
X124112000Y-101485000D02*
X127312000Y-101485000D01*
X127312000Y-91585000D02*
X124112000Y-91585000D01*
X127312000Y-101485000D02*
X127312000Y-91585000D01*
X129187000Y-91415000D02*
X127662000Y-91415000D01*
D12*
%TO.C,C7*%
X81835000Y-77158748D02*
X81835000Y-77681252D01*
X83305000Y-77158748D02*
X83305000Y-77681252D01*
%TO.C,C702*%
X138430000Y-78080000D02*
X146495000Y-78080000D01*
X146495000Y-78080000D02*
X146495000Y-82600000D01*
X146495000Y-82600000D02*
X138430000Y-82600000D01*
%TO.C,R702*%
X139236359Y-68400000D02*
X139543641Y-68400000D01*
X139236359Y-69160000D02*
X139543641Y-69160000D01*
%TO.C,C12*%
X135016248Y-77795000D02*
X135538752Y-77795000D01*
X135016248Y-79265000D02*
X135538752Y-79265000D01*
%TO.C,R1*%
X135642936Y-87975000D02*
X136097064Y-87975000D01*
X135642936Y-89445000D02*
X136097064Y-89445000D01*
%TO.C,U701*%
X142320000Y-74712500D02*
X142320000Y-73912500D01*
X142320000Y-74712500D02*
X142320000Y-75512500D01*
X145440000Y-74712500D02*
X145440000Y-73912500D01*
X145440000Y-74712500D02*
X145440000Y-75512500D01*
X145720000Y-76252500D02*
X145390000Y-76012500D01*
X145720000Y-75772500D01*
X145720000Y-76252500D01*
G36*
X145720000Y-76252500D02*
G01*
X145390000Y-76012500D01*
X145720000Y-75772500D01*
X145720000Y-76252500D01*
G37*
%TO.C,R8*%
X130625000Y-103922936D02*
X130625000Y-104377064D01*
X132095000Y-103922936D02*
X132095000Y-104377064D01*
%TO.C,C14*%
X101271252Y-127235000D02*
X100748748Y-127235000D01*
X101271252Y-128705000D02*
X100748748Y-128705000D01*
%TO.C,U602*%
X125290000Y-72120000D02*
X123890000Y-72120000D01*
X125300000Y-69800000D02*
X123890000Y-69800000D01*
X125670000Y-69850000D02*
X125430000Y-69520000D01*
X125910000Y-69520000D01*
X125670000Y-69850000D01*
G36*
X125670000Y-69850000D02*
G01*
X125430000Y-69520000D01*
X125910000Y-69520000D01*
X125670000Y-69850000D01*
G37*
%TO.C,R18*%
X73758752Y-115155000D02*
X73236248Y-115155000D01*
X73758752Y-116625000D02*
X73236248Y-116625000D01*
D13*
%TO.C,IC5*%
X142840000Y-91520000D02*
X142840000Y-101420000D01*
X142840000Y-101420000D02*
X146040000Y-101420000D01*
X146040000Y-91520000D02*
X142840000Y-91520000D01*
X146040000Y-101420000D02*
X146040000Y-91520000D01*
X147915000Y-91350000D02*
X146390000Y-91350000D01*
D12*
%TO.C,R2*%
X61125000Y-117461252D02*
X61125000Y-116938748D01*
X62595000Y-117461252D02*
X62595000Y-116938748D01*
%TO.C,C10*%
X43651252Y-87575000D02*
X43128748Y-87575000D01*
X43651252Y-89045000D02*
X43128748Y-89045000D01*
%TO.C,R16*%
X110052936Y-103275000D02*
X110507064Y-103275000D01*
X110052936Y-104745000D02*
X110507064Y-104745000D01*
%TO.C,R3*%
X143062936Y-87905000D02*
X143517064Y-87905000D01*
X143062936Y-89375000D02*
X143517064Y-89375000D01*
%TO.C,R12*%
X113712936Y-83655000D02*
X114167064Y-83655000D01*
X113712936Y-85125000D02*
X114167064Y-85125000D01*
D13*
%TO.C,IC3*%
X115612000Y-91585000D02*
X115612000Y-101485000D01*
X115612000Y-101485000D02*
X118812000Y-101485000D01*
X118812000Y-91585000D02*
X115612000Y-91585000D01*
X118812000Y-101485000D02*
X118812000Y-91585000D01*
X120687000Y-91415000D02*
X119162000Y-91415000D01*
D12*
%TO.C,R13*%
X117675000Y-104617064D02*
X117675000Y-104162936D01*
X119145000Y-104617064D02*
X119145000Y-104162936D01*
%TO.C,U405*%
X107690000Y-67960000D02*
X107690000Y-67160000D01*
X107690000Y-67960000D02*
X107690000Y-68760000D01*
X110810000Y-67960000D02*
X110810000Y-67160000D01*
X110810000Y-67960000D02*
X110810000Y-68760000D01*
X111090000Y-69500000D02*
X110760000Y-69260000D01*
X111090000Y-69020000D01*
X111090000Y-69500000D01*
G36*
X111090000Y-69500000D02*
G01*
X110760000Y-69260000D01*
X111090000Y-69020000D01*
X111090000Y-69500000D01*
G37*
%TO.C,R401*%
X65213641Y-88390000D02*
X64906359Y-88390000D01*
X65213641Y-89150000D02*
X64906359Y-89150000D01*
%TO.C,R10*%
X127385000Y-104327064D02*
X127385000Y-103872936D01*
X128855000Y-104327064D02*
X128855000Y-103872936D01*
%TO.C,R5*%
X138815000Y-104302936D02*
X138815000Y-104757064D01*
X140285000Y-104302936D02*
X140285000Y-104757064D01*
%TO.C,R7*%
X135032936Y-102985000D02*
X135487064Y-102985000D01*
X135032936Y-104455000D02*
X135487064Y-104455000D01*
D13*
%TO.C,IC1*%
X132612000Y-91585000D02*
X132612000Y-101485000D01*
X132612000Y-101485000D02*
X135812000Y-101485000D01*
X135812000Y-91585000D02*
X132612000Y-91585000D01*
X135812000Y-101485000D02*
X135812000Y-91585000D01*
X137687000Y-91415000D02*
X136162000Y-91415000D01*
D12*
%TO.C,R402*%
X65446359Y-86440000D02*
X65753641Y-86440000D01*
X65446359Y-87200000D02*
X65753641Y-87200000D01*
%TD*%
M02*
