%TF.GenerationSoftware,KiCad,Pcbnew,9.0.4*%
%TF.CreationDate,2026-03-31T17:48:17-04:00*%
%TF.ProjectId,MainPCB,4d61696e-5043-4422-9e6b-696361645f70,rev?*%
%TF.SameCoordinates,Original*%
%TF.FileFunction,Paste,Top*%
%TF.FilePolarity,Positive*%
%FSLAX46Y46*%
G04 Gerber Fmt 4.6, Leading zero omitted, Abs format (unit mm)*
G04 Created by KiCad (PCBNEW 9.0.4) date 2026-03-31 17:48:17*
%MOMM*%
%LPD*%
G01*
G04 APERTURE LIST*
G04 Aperture macros list*
%AMRoundRect*
0 Rectangle with rounded corners*
0 $1 Rounding radius*
0 $2 $3 $4 $5 $6 $7 $8 $9 X,Y pos of 4 corners*
0 Add a 4 corners polygon primitive as box body*
4,1,4,$2,$3,$4,$5,$6,$7,$8,$9,$2,$3,0*
0 Add four circle primitives for the rounded corners*
1,1,$1+$1,$2,$3*
1,1,$1+$1,$4,$5*
1,1,$1+$1,$6,$7*
1,1,$1+$1,$8,$9*
0 Add four rect primitives between the rounded corners*
20,1,$1+$1,$2,$3,$4,$5,0*
20,1,$1+$1,$4,$5,$6,$7,0*
20,1,$1+$1,$6,$7,$8,$9,0*
20,1,$1+$1,$8,$9,$2,$3,0*%
G04 Aperture macros list end*
%ADD10R,0.203200X0.762000*%
%ADD11R,0.203200X0.711200*%
%ADD12R,1.240000X0.600000*%
%ADD13R,1.240000X0.300000*%
%ADD14RoundRect,0.250000X0.475000X-0.250000X0.475000X0.250000X-0.475000X0.250000X-0.475000X-0.250000X0*%
%ADD15RoundRect,0.250000X-0.475000X0.250000X-0.475000X-0.250000X0.475000X-0.250000X0.475000X0.250000X0*%
%ADD16R,0.300000X2.600000*%
%ADD17RoundRect,0.075000X-0.075000X-0.200000X0.075000X-0.200000X0.075000X0.200000X-0.075000X0.200000X0*%
%ADD18RoundRect,0.125000X-0.175000X-0.125000X0.175000X-0.125000X0.175000X0.125000X-0.175000X0.125000X0*%
%ADD19RoundRect,0.250000X0.250000X0.475000X-0.250000X0.475000X-0.250000X-0.475000X0.250000X-0.475000X0*%
%ADD20RoundRect,0.090000X-0.139000X-0.090000X0.139000X-0.090000X0.139000X0.090000X-0.139000X0.090000X0*%
%ADD21RoundRect,0.140000X0.140000X0.170000X-0.140000X0.170000X-0.140000X-0.170000X0.140000X-0.170000X0*%
%ADD22RoundRect,0.135000X0.135000X0.185000X-0.135000X0.185000X-0.135000X-0.185000X0.135000X-0.185000X0*%
%ADD23R,0.600000X1.240000*%
%ADD24R,0.300000X1.240000*%
%ADD25R,0.710000X3.000000*%
%ADD26R,1.400000X3.000000*%
%ADD27RoundRect,0.125000X0.125000X-0.175000X0.125000X0.175000X-0.125000X0.175000X-0.125000X-0.175000X0*%
%ADD28R,0.200000X0.700000*%
%ADD29RoundRect,0.135000X-0.185000X0.135000X-0.185000X-0.135000X0.185000X-0.135000X0.185000X0.135000X0*%
%ADD30R,2.100000X1.400000*%
%ADD31R,1.300000X0.300000*%
%ADD32R,2.200000X1.800000*%
G04 APERTURE END LIST*
D10*
%TO.C,D403*%
X110470001Y-76910000D03*
D11*
X109969999Y-76884600D03*
X109470000Y-76884600D03*
X108970001Y-76884600D03*
X108469999Y-76884600D03*
X108469999Y-77875200D03*
X108970001Y-77875200D03*
X109470000Y-77875200D03*
X109969999Y-77875200D03*
X110470001Y-77875200D03*
%TD*%
D12*
%TO.C,J101*%
X147685000Y-78400000D03*
X147685000Y-77600000D03*
D13*
X147685000Y-76450000D03*
X147685000Y-75450000D03*
X147685000Y-74950000D03*
X147685000Y-73950000D03*
D12*
X147685000Y-72800000D03*
X147685000Y-72000000D03*
X147685000Y-72000000D03*
X147685000Y-72800000D03*
D13*
X147685000Y-73450000D03*
X147685000Y-74450000D03*
X147685000Y-75950000D03*
X147685000Y-76950000D03*
D12*
X147685000Y-77600000D03*
X147685000Y-78400000D03*
%TD*%
D14*
%TO.C,C3*%
X34720000Y-109470000D03*
X34720000Y-107570000D03*
%TD*%
D15*
%TO.C,C2*%
X51370000Y-87230000D03*
X51370000Y-89130000D03*
%TD*%
D16*
%TO.C,J501*%
X101450000Y-74190000D03*
X101950000Y-74190000D03*
X102450000Y-74190000D03*
X102950000Y-74190000D03*
X103450000Y-74190000D03*
X103950000Y-74190000D03*
X104450000Y-74190000D03*
X104950000Y-74190000D03*
X105450000Y-74190000D03*
X105950000Y-74190000D03*
X106450000Y-74190000D03*
X106950000Y-74190000D03*
X107450000Y-74190000D03*
X107950000Y-74190000D03*
X108450000Y-74190000D03*
X108950000Y-74190000D03*
X109450000Y-74190000D03*
X109950000Y-74190000D03*
X110450000Y-74190000D03*
%TD*%
D17*
%TO.C,U401*%
X56500000Y-87100000D03*
X57000000Y-87100000D03*
X57500000Y-87100000D03*
X58000000Y-87100000D03*
X58500000Y-87100000D03*
X58500000Y-86330000D03*
X58000000Y-86330000D03*
X57500000Y-86330000D03*
X57000000Y-86330000D03*
X56500000Y-86330000D03*
%TD*%
D15*
%TO.C,C1*%
X54630000Y-87160000D03*
X54630000Y-89060000D03*
%TD*%
D18*
%TO.C,D701*%
X147300000Y-68050000D03*
X147300000Y-69050000D03*
X148600000Y-68550000D03*
%TD*%
D14*
%TO.C,C4*%
X32000000Y-109420000D03*
X32000000Y-107520000D03*
%TD*%
D19*
%TO.C,C701*%
X145230000Y-75800000D03*
X143330000Y-75800000D03*
%TD*%
D15*
%TO.C,C6*%
X121650000Y-121840000D03*
X121650000Y-123740000D03*
%TD*%
D20*
%TO.C,D605*%
X123975000Y-66390000D03*
X124840000Y-66390000D03*
%TD*%
D10*
%TO.C,D402*%
X101309999Y-79975200D03*
D11*
X101810001Y-80000600D03*
X102310000Y-80000600D03*
X102809999Y-80000600D03*
X103310001Y-80000600D03*
X103310001Y-79010000D03*
X102809999Y-79010000D03*
X102310000Y-79010000D03*
X101810001Y-79010000D03*
X101309999Y-79010000D03*
%TD*%
D21*
%TO.C,C602*%
X134850000Y-125480000D03*
X133890000Y-125480000D03*
%TD*%
D17*
%TO.C,U402*%
X59880000Y-87120000D03*
X60380000Y-87120000D03*
X60880000Y-87120000D03*
X61380000Y-87120000D03*
X61880000Y-87120000D03*
X61880000Y-86350000D03*
X61380000Y-86350000D03*
X60880000Y-86350000D03*
X60380000Y-86350000D03*
X59880000Y-86350000D03*
%TD*%
D22*
%TO.C,R605*%
X124140000Y-67820000D03*
X123120000Y-67820000D03*
%TD*%
D23*
%TO.C,USB701*%
X144420000Y-71485000D03*
X143620000Y-71485000D03*
D24*
X142470000Y-71485000D03*
X141470000Y-71485000D03*
X140970000Y-71485000D03*
X139970000Y-71485000D03*
D23*
X138820000Y-71485000D03*
X138020000Y-71485000D03*
X138020000Y-71485000D03*
X138820000Y-71485000D03*
D24*
X139470000Y-71485000D03*
X140470000Y-71485000D03*
X141970000Y-71485000D03*
X142970000Y-71485000D03*
D23*
X143620000Y-71485000D03*
X144420000Y-71485000D03*
%TD*%
D25*
%TO.C,T401*%
X51870000Y-82915000D03*
X52890000Y-82915000D03*
X53910000Y-82915000D03*
X54930000Y-82915000D03*
X55950000Y-82915000D03*
X56970000Y-82915000D03*
X57990000Y-82915000D03*
X59010000Y-82915000D03*
X60030000Y-82915000D03*
X61050000Y-82915000D03*
X62070000Y-82915000D03*
X63090000Y-82915000D03*
X64110000Y-82915000D03*
X65130000Y-82915000D03*
D26*
X49775000Y-69215000D03*
X67225000Y-69215000D03*
%TD*%
D27*
%TO.C,D101*%
X150050000Y-68650000D03*
X151050000Y-68650000D03*
X150550000Y-67350000D03*
%TD*%
D28*
%TO.C,Module1*%
X118700000Y-119480000D03*
X118700000Y-116400000D03*
X119100000Y-119480000D03*
X119100000Y-116400000D03*
X119500000Y-119480000D03*
X119500000Y-116400000D03*
X119900000Y-119480000D03*
X119900000Y-116400000D03*
X120300000Y-119480000D03*
X120300000Y-116400000D03*
X120700000Y-119480000D03*
X120700000Y-116400000D03*
X121100000Y-119480000D03*
X121100000Y-116400000D03*
X121500000Y-119480000D03*
X121500000Y-116400000D03*
X121900000Y-119480000D03*
X121900000Y-116400000D03*
X122300000Y-119480000D03*
X122300000Y-116400000D03*
X122700000Y-119480000D03*
X122700000Y-116400000D03*
X123100000Y-119480000D03*
X123100000Y-116400000D03*
X123500000Y-119480000D03*
X123500000Y-116400000D03*
X123900000Y-119480000D03*
X123900000Y-116400000D03*
X124300000Y-119480000D03*
X124300000Y-116400000D03*
X124700000Y-119480000D03*
X124700000Y-116400000D03*
X125100000Y-119480000D03*
X125100000Y-116400000D03*
X125500000Y-119480000D03*
X125500000Y-116400000D03*
X125900000Y-119480000D03*
X125900000Y-116400000D03*
X126300000Y-119480000D03*
X126300000Y-116400000D03*
X126700000Y-119480000D03*
X126700000Y-116400000D03*
X127100000Y-119480000D03*
X127100000Y-116400000D03*
X127500000Y-119480000D03*
X127500000Y-116400000D03*
X127900000Y-119480000D03*
X127900000Y-116400000D03*
X128300000Y-119480000D03*
X128300000Y-116400000D03*
X128700000Y-119480000D03*
X128700000Y-116400000D03*
X129100000Y-119480000D03*
X129100000Y-116400000D03*
X129500000Y-119480000D03*
X129500000Y-116400000D03*
X129900000Y-119480000D03*
X129900000Y-116400000D03*
X130300000Y-119480000D03*
X130300000Y-116400000D03*
X130700000Y-119480000D03*
X130700000Y-116400000D03*
X131100000Y-119480000D03*
X131100000Y-116400000D03*
X131500000Y-119480000D03*
X131500000Y-116400000D03*
X131900000Y-119480000D03*
X131900000Y-116400000D03*
X132300000Y-119480000D03*
X132300000Y-116400000D03*
X132700000Y-119480000D03*
X132700000Y-116400000D03*
X133100000Y-119480000D03*
X133100000Y-116400000D03*
X133500000Y-119480000D03*
X133500000Y-116400000D03*
X133900000Y-119480000D03*
X133900000Y-116400000D03*
X134300000Y-119480000D03*
X134300000Y-116400000D03*
X134700000Y-119480000D03*
X134700000Y-116400000D03*
X135100000Y-119480000D03*
X135100000Y-116400000D03*
X135500000Y-119480000D03*
X135500000Y-116400000D03*
X135900000Y-119480000D03*
X135900000Y-116400000D03*
X136300000Y-119480000D03*
X136300000Y-116400000D03*
X136700000Y-119480000D03*
X136700000Y-116400000D03*
X137100000Y-119480000D03*
X137100000Y-116400000D03*
X137500000Y-119480000D03*
X137500000Y-116400000D03*
X137900000Y-119480000D03*
X137900000Y-116400000D03*
X138300000Y-119480000D03*
X138300000Y-116400000D03*
X118700000Y-85480000D03*
X118700000Y-82400000D03*
X119100000Y-85480000D03*
X119100000Y-82400000D03*
X119500000Y-85480000D03*
X119500000Y-82400000D03*
X119900000Y-85480000D03*
X119900000Y-82400000D03*
X120300000Y-85480000D03*
X120300000Y-82400000D03*
X120700000Y-85480000D03*
X120700000Y-82400000D03*
X121100000Y-85480000D03*
X121100000Y-82400000D03*
X121500000Y-85480000D03*
X121500000Y-82400000D03*
X121900000Y-85480000D03*
X121900000Y-82400000D03*
X122300000Y-85480000D03*
X122300000Y-82400000D03*
X122700000Y-85480000D03*
X122700000Y-82400000D03*
X123100000Y-85480000D03*
X123100000Y-82400000D03*
X123500000Y-85480000D03*
X123500000Y-82400000D03*
X123900000Y-85480000D03*
X123900000Y-82400000D03*
X124300000Y-85480000D03*
X124300000Y-82400000D03*
X124700000Y-85480000D03*
X124700000Y-82400000D03*
X125100000Y-85480000D03*
X125100000Y-82400000D03*
X125500000Y-85480000D03*
X125500000Y-82400000D03*
X125900000Y-85480000D03*
X125900000Y-82400000D03*
X126300000Y-85480000D03*
X126300000Y-82400000D03*
X126700000Y-85480000D03*
X126700000Y-82400000D03*
X127100000Y-85480000D03*
X127100000Y-82400000D03*
X127500000Y-85480000D03*
X127500000Y-82400000D03*
X127900000Y-85480000D03*
X127900000Y-82400000D03*
X128300000Y-85480000D03*
X128300000Y-82400000D03*
X128700000Y-85480000D03*
X128700000Y-82400000D03*
X129100000Y-85480000D03*
X129100000Y-82400000D03*
X129500000Y-85480000D03*
X129500000Y-82400000D03*
X129900000Y-85480000D03*
X129900000Y-82400000D03*
X130300000Y-85480000D03*
X130300000Y-82400000D03*
X130700000Y-85480000D03*
X130700000Y-82400000D03*
X131100000Y-85480000D03*
X131100000Y-82400000D03*
X131500000Y-85480000D03*
X131500000Y-82400000D03*
X131900000Y-85480000D03*
X131900000Y-82400000D03*
X132300000Y-85480000D03*
X132300000Y-82400000D03*
X132700000Y-85480000D03*
X132700000Y-82400000D03*
X133100000Y-85480000D03*
X133100000Y-82400000D03*
X133500000Y-85480000D03*
X133500000Y-82400000D03*
X133900000Y-85480000D03*
X133900000Y-82400000D03*
X134300000Y-85480000D03*
X134300000Y-82400000D03*
X134700000Y-85480000D03*
X134700000Y-82400000D03*
X135100000Y-85480000D03*
X135100000Y-82400000D03*
X135500000Y-85480000D03*
X135500000Y-82400000D03*
X135900000Y-85480000D03*
X135900000Y-82400000D03*
X136300000Y-85480000D03*
X136300000Y-82400000D03*
X136700000Y-85480000D03*
X136700000Y-82400000D03*
X137100000Y-85480000D03*
X137100000Y-82400000D03*
X137500000Y-85480000D03*
X137500000Y-82400000D03*
X137900000Y-85480000D03*
X137900000Y-82400000D03*
X138300000Y-85480000D03*
X138300000Y-82400000D03*
%TD*%
D19*
%TO.C,C601*%
X135330000Y-122770000D03*
X133430000Y-122770000D03*
%TD*%
D29*
%TO.C,R606*%
X95110000Y-69110000D03*
X95110000Y-70130000D03*
%TD*%
D30*
%TO.C,S1*%
X137012500Y-150650000D03*
X137012500Y-146150000D03*
X127912500Y-150650000D03*
X127912500Y-146150000D03*
%TD*%
D10*
%TO.C,D401*%
X104629999Y-77854600D03*
D11*
X105130001Y-77880000D03*
X105630000Y-77880000D03*
X106129999Y-77880000D03*
X106630001Y-77880000D03*
X106630001Y-76889400D03*
X106129999Y-76889400D03*
X105630000Y-76889400D03*
X105130001Y-76889400D03*
X104629999Y-76889400D03*
%TD*%
D31*
%TO.C,J802*%
X104000000Y-139100000D03*
X104000000Y-139600000D03*
X104000000Y-140100000D03*
X104000000Y-140600000D03*
X104000000Y-141100000D03*
X104000000Y-141600000D03*
X104000000Y-142100000D03*
X104000000Y-142600000D03*
X104000000Y-143100000D03*
X104000000Y-143600000D03*
X104000000Y-144100000D03*
X104000000Y-144600000D03*
X104000000Y-145100000D03*
X104000000Y-145600000D03*
X104000000Y-146100000D03*
X104000000Y-146600000D03*
X104000000Y-147100000D03*
X104000000Y-147600000D03*
X104000000Y-148100000D03*
X104000000Y-148600000D03*
X104000000Y-149100000D03*
X104000000Y-149600000D03*
D32*
X107250000Y-151500000D03*
X107250000Y-137200000D03*
%TD*%
D15*
%TO.C,C5*%
X124200000Y-121860000D03*
X124200000Y-123760000D03*
%TD*%
D22*
%TO.C,R701*%
X143890000Y-73480000D03*
X142870000Y-73480000D03*
%TD*%
M02*
