%TF.GenerationSoftware,KiCad,Pcbnew,9.0.4*%
%TF.CreationDate,2026-03-31T17:48:18-04:00*%
%TF.ProjectId,MainPCB,4d61696e-5043-4422-9e6b-696361645f70,rev?*%
%TF.SameCoordinates,Original*%
%TF.FileFunction,Profile,NP*%
%FSLAX46Y46*%
G04 Gerber Fmt 4.6, Leading zero omitted, Abs format (unit mm)*
G04 Created by KiCad (PCBNEW 9.0.4) date 2026-03-31 17:48:18*
%MOMM*%
%LPD*%
G01*
G04 APERTURE LIST*
%TA.AperFunction,Profile*%
%ADD10C,0.200000*%
%TD*%
%TA.AperFunction,Profile*%
%ADD11C,0.100000*%
%TD*%
%TA.AperFunction,Profile*%
%ADD12C,0.050000*%
%TD*%
G04 APERTURE END LIST*
D10*
X149082397Y-127000000D02*
G75*
G02*
X151082400Y-124999997I2000003J0D01*
G01*
X148582400Y-65000000D02*
G75*
G02*
X154582400Y-71000000I0J-6000000D01*
G01*
X154582397Y-123000000D02*
G75*
G02*
X152582400Y-124999997I-1999997J0D01*
G01*
X154582397Y-71000000D02*
X154582397Y-100000000D01*
X121582400Y-154500000D02*
X146582400Y-154500000D01*
X54582400Y-154500000D02*
X109582400Y-154500000D01*
X27577043Y-115393085D02*
G75*
G02*
X26582376Y-112253956I4505557J3154785D01*
G01*
X50675000Y-66915000D02*
X50662022Y-65047768D01*
X45417603Y-71000000D02*
G75*
G02*
X50662023Y-65047768I5999997J0D01*
G01*
X26582397Y-105885852D02*
X26582397Y-112253956D01*
X83183983Y-71112819D02*
G75*
G02*
X79983983Y-71112819I-1600000J0D01*
G01*
X79983983Y-71112819D02*
G75*
G02*
X83183983Y-71112819I1600000J0D01*
G01*
X112082397Y-152000000D02*
G75*
G02*
X109582400Y-154499997I-2499997J0D01*
G01*
X130350000Y-75500000D02*
G75*
G02*
X127650000Y-75500000I-1350000J0D01*
G01*
X127650000Y-75500000D02*
G75*
G02*
X130350000Y-75500000I1350000J0D01*
G01*
X117082400Y-133000000D02*
X114082400Y-133000000D01*
X112082397Y-135000000D02*
G75*
G02*
X114082400Y-132999997I2000003J0D01*
G01*
X54582400Y-154500000D02*
G75*
G02*
X52087852Y-152165009I0J2500000D01*
G01*
X50837157Y-148611970D02*
G75*
G02*
X52087829Y-152165010I-5734057J-4015030D01*
G01*
X83183983Y-128887181D02*
G75*
G02*
X79983983Y-128887181I-1600000J0D01*
G01*
X79983983Y-128887181D02*
G75*
G02*
X83183983Y-128887181I1600000J0D01*
G01*
X149082397Y-152000000D02*
G75*
G02*
X146582400Y-154499997I-2499997J0D01*
G01*
X45417603Y-72000000D02*
G75*
G02*
X35417600Y-82000003I-10000003J0D01*
G01*
X72350000Y-124500000D02*
G75*
G02*
X69650000Y-124500000I-1350000J0D01*
G01*
X69650000Y-124500000D02*
G75*
G02*
X72350000Y-124500000I1350000J0D01*
G01*
X27577043Y-115393085D02*
X50837157Y-148611970D01*
X45417603Y-71000000D02*
X45417603Y-72000000D01*
X66325000Y-66915000D02*
X66325000Y-64990000D01*
X26582397Y-87885850D02*
G75*
G02*
X31417622Y-81999998I5999983J10D01*
G01*
X112082397Y-135000000D02*
X112082397Y-152000000D01*
X121582400Y-154500000D02*
G75*
G02*
X119082400Y-152000000I0J2500000D01*
G01*
X120016017Y-71112819D02*
G75*
G02*
X116816017Y-71112819I-1600000J0D01*
G01*
X116816017Y-71112819D02*
G75*
G02*
X120016017Y-71112819I1600000J0D01*
G01*
X26582397Y-87885850D02*
X26582397Y-105885852D01*
X154582397Y-100000000D02*
X154582397Y-123000000D01*
X130350000Y-124500000D02*
G75*
G02*
X127650000Y-124500000I-1350000J0D01*
G01*
X127650000Y-124500000D02*
G75*
G02*
X130350000Y-124500000I1350000J0D01*
G01*
X66325000Y-64990000D02*
X148582400Y-65000000D01*
X35417600Y-82000000D02*
X31417622Y-82000000D01*
X149082397Y-152000000D02*
X149082397Y-127000000D01*
X117082400Y-133000000D02*
G75*
G02*
X119082400Y-135000000I0J-2000000D01*
G01*
X119082397Y-135000000D02*
X119082397Y-152000000D01*
X151082400Y-124999997D02*
X152582400Y-125000000D01*
X120016017Y-128887181D02*
G75*
G02*
X116816017Y-128887181I-1600000J0D01*
G01*
X116816017Y-128887181D02*
G75*
G02*
X120016017Y-128887181I1600000J0D01*
G01*
D11*
%TO.C,SW6*%
X40049300Y-82999999D02*
G75*
G02*
X38350700Y-82999999I-849300J0D01*
G01*
X38350700Y-82999999D02*
G75*
G02*
X40049300Y-82999999I849300J0D01*
G01*
%TO.C,SW1*%
X87449299Y-128200000D02*
G75*
G02*
X85750699Y-128200000I-849300J0D01*
G01*
X85750699Y-128200000D02*
G75*
G02*
X87449299Y-128200000I849300J0D01*
G01*
D12*
%TO.C,U3*%
X62270000Y-134000000D02*
G75*
G02*
X59270000Y-134000000I-1500000J0D01*
G01*
X59270000Y-134000000D02*
G75*
G02*
X62270000Y-134000000I1500000J0D01*
G01*
X95270000Y-151000000D02*
G75*
G02*
X92270000Y-151000000I-1500000J0D01*
G01*
X92270000Y-151000000D02*
G75*
G02*
X95270000Y-151000000I1500000J0D01*
G01*
D10*
%TO.C,T401*%
X50675000Y-66915000D02*
X50675000Y-74215000D01*
X51675000Y-75215000D02*
X65325000Y-75215000D01*
X66325000Y-74215000D02*
X66325000Y-66915000D01*
X51675000Y-75215000D02*
G75*
G02*
X50675000Y-74215000I-1J999999D01*
G01*
X66325000Y-74215000D02*
G75*
G02*
X65325000Y-75215000I-1000000J0D01*
G01*
%TD*%
M02*
