%TF.GenerationSoftware,KiCad,Pcbnew,9.0.4*%
%TF.CreationDate,2025-11-15T17:02:02-05:00*%
%TF.ProjectId,MainPCB,4d61696e-5043-4422-9e6b-696361645f70,rev?*%
%TF.SameCoordinates,Original*%
%TF.FileFunction,Profile,NP*%
%FSLAX46Y46*%
G04 Gerber Fmt 4.6, Leading zero omitted, Abs format (unit mm)*
G04 Created by KiCad (PCBNEW 9.0.4) date 2025-11-15 17:02:02*
%MOMM*%
%LPD*%
G01*
G04 APERTURE LIST*
%TA.AperFunction,Profile*%
%ADD10C,0.200000*%
%TD*%
%TA.AperFunction,Profile*%
%ADD11C,0.100000*%
%TD*%
G04 APERTURE END LIST*
D10*
X148500000Y-152000000D02*
G75*
G02*
X146000000Y-154500000I-2500000J0D01*
G01*
X111500000Y-135000000D02*
X111500000Y-152000000D01*
X157000000Y-111538498D02*
X169026700Y-111538498D01*
X46000000Y-71000000D02*
X46000000Y-123000000D01*
X51500000Y-127000000D02*
X51500000Y-152000000D01*
X154000023Y-114550000D02*
G75*
G02*
X157000000Y-111538501I2999977J11500D01*
G01*
X154000000Y-123000000D02*
G75*
G02*
X152000000Y-125000000I-2000000J0D01*
G01*
X157000000Y-88461502D02*
X169026700Y-88461502D01*
X52000000Y-65000000D02*
X148000000Y-65000000D01*
X46000000Y-71000000D02*
G75*
G02*
X52000000Y-65000000I6000000J0D01*
G01*
X148500000Y-152000000D02*
X148500000Y-127000000D01*
X48000000Y-125000000D02*
X49500000Y-125000000D01*
X54000000Y-154500000D02*
X109000000Y-154500000D01*
X172026695Y-91461500D02*
X172026695Y-108538500D01*
X148500000Y-127000000D02*
G75*
G02*
X150500000Y-125000000I2000000J0D01*
G01*
X54000000Y-154500000D02*
G75*
G02*
X51500000Y-152000000I0J2500000D01*
G01*
X150500000Y-125000000D02*
X152000000Y-125000000D01*
X154000000Y-71000000D02*
X154000000Y-85461500D01*
X49500000Y-125000000D02*
G75*
G02*
X51500000Y-127000000I0J-2000000D01*
G01*
X48000000Y-125000000D02*
G75*
G02*
X46000000Y-123000000I0J2000000D01*
G01*
X121000000Y-154500000D02*
X146000000Y-154500000D01*
X118500000Y-135000000D02*
X118500000Y-152000000D01*
X116500000Y-133000000D02*
G75*
G02*
X118500000Y-135000000I0J-2000000D01*
G01*
X148000000Y-65000000D02*
G75*
G02*
X154000000Y-71000000I0J-6000000D01*
G01*
X172026695Y-108538500D02*
G75*
G02*
X169026700Y-111538495I-2999995J0D01*
G01*
X116500000Y-133000000D02*
X113500000Y-133000000D01*
X111500000Y-135000000D02*
G75*
G02*
X113500000Y-133000000I2000000J0D01*
G01*
X83183983Y-71112819D02*
G75*
G02*
X79983983Y-71112819I-1600000J0D01*
G01*
X79983983Y-71112819D02*
G75*
G02*
X83183983Y-71112819I1600000J0D01*
G01*
X154000023Y-114550000D02*
X154000000Y-123000000D01*
X111500000Y-152000000D02*
G75*
G02*
X109000000Y-154500000I-2500000J0D01*
G01*
X121000000Y-154500000D02*
G75*
G02*
X118500000Y-152000000I0J2500000D01*
G01*
X157000000Y-88461502D02*
G75*
G02*
X153999998Y-85461500I0J3000002D01*
G01*
X169026700Y-88461502D02*
G75*
G02*
X172026698Y-91461500I0J-2999998D01*
G01*
D11*
%TO.C,SW1*%
X48399299Y-71750000D02*
G75*
G02*
X46700699Y-71750000I-849300J0D01*
G01*
X46700699Y-71750000D02*
G75*
G02*
X48399299Y-71750000I849300J0D01*
G01*
X56499300Y-71750000D02*
G75*
G02*
X55000700Y-71750000I-749300J0D01*
G01*
X55000700Y-71750000D02*
G75*
G02*
X56499300Y-71750000I749300J0D01*
G01*
%TO.C,SW4*%
X48099299Y-86053000D02*
G75*
G02*
X46400699Y-86053000I-849300J0D01*
G01*
X46400699Y-86053000D02*
G75*
G02*
X48099299Y-86053000I849300J0D01*
G01*
X56199300Y-86053000D02*
G75*
G02*
X54700700Y-86053000I-749300J0D01*
G01*
X54700700Y-86053000D02*
G75*
G02*
X56199300Y-86053000I749300J0D01*
G01*
%TO.C,SW6*%
X55449299Y-126700000D02*
G75*
G02*
X53750699Y-126700000I-849300J0D01*
G01*
X53750699Y-126700000D02*
G75*
G02*
X55449299Y-126700000I849300J0D01*
G01*
X63549300Y-126700000D02*
G75*
G02*
X62050700Y-126700000I-749300J0D01*
G01*
X62050700Y-126700000D02*
G75*
G02*
X63549300Y-126700000I749300J0D01*
G01*
%TO.C,SW3*%
X48299299Y-111847000D02*
G75*
G02*
X46600699Y-111847000I-849300J0D01*
G01*
X46600699Y-111847000D02*
G75*
G02*
X48299299Y-111847000I849300J0D01*
G01*
X56399300Y-111847000D02*
G75*
G02*
X54900700Y-111847000I-749300J0D01*
G01*
X54900700Y-111847000D02*
G75*
G02*
X56399300Y-111847000I749300J0D01*
G01*
%TO.C,SW2*%
X48299299Y-117800000D02*
G75*
G02*
X46600699Y-117800000I-849300J0D01*
G01*
X46600699Y-117800000D02*
G75*
G02*
X48299299Y-117800000I849300J0D01*
G01*
X56399300Y-117800000D02*
G75*
G02*
X54900700Y-117800000I-749300J0D01*
G01*
X54900700Y-117800000D02*
G75*
G02*
X56399300Y-117800000I749300J0D01*
G01*
%TO.C,SW5*%
X48099299Y-80100000D02*
G75*
G02*
X46400699Y-80100000I-849300J0D01*
G01*
X46400699Y-80100000D02*
G75*
G02*
X48099299Y-80100000I849300J0D01*
G01*
X56199300Y-80100000D02*
G75*
G02*
X54700700Y-80100000I-749300J0D01*
G01*
X54700700Y-80100000D02*
G75*
G02*
X56199300Y-80100000I749300J0D01*
G01*
%TD*%
M02*
