M48
; DRILL file {KiCad 9.0.4} date 2026-03-31T17:48:20-0400
; FORMAT={-:-/ absolute / metric / decimal}
; #@! TF.CreationDate,2026-03-31T17:48:20-04:00
; #@! TF.GenerationSoftware,Kicad,Pcbnew,9.0.4
; #@! TF.FileFunction,Plated,1,6,PTH
FMAT,2
METRIC
; #@! TA.AperFunction,Plated,PTH,ViaDrill
T1C0.300
; #@! TA.AperFunction,Plated,PTH,ComponentDrill
T2C0.600
; #@! TA.AperFunction,Plated,PTH,ComponentDrill
T3C0.787
; #@! TA.AperFunction,Plated,PTH,ComponentDrill
T4C0.900
; #@! TA.AperFunction,Plated,PTH,ComponentDrill
T5C0.950
; #@! TA.AperFunction,Plated,PTH,ComponentDrill
T6C1.000
; #@! TA.AperFunction,Plated,PTH,ComponentDrill
T7C1.100
; #@! TA.AperFunction,Plated,PTH,ComponentDrill
T8C2.700
; #@! TA.AperFunction,Plated,PTH,ComponentDrill
T9C3.200
; #@! TA.AperFunction,Plated,PTH,ComponentDrill
T10C4.500
%
G90
G05
T1
X42.44Y-90.62
X51.87Y-82.915
X52.932Y-82.957
X53.44Y-111.68
X55.7Y-90.47
X56.42Y-85.23
X59.56Y-98.64
X60.99Y-103.64
X62.48Y-88.784
X62.975Y-88.289
X63.012Y-119.892
X63.09Y-82.915
X63.63Y-86.68
X63.67Y-136.75
X63.81Y-136.14
X64.16Y-135.79
X64.54Y-88.792
X65.09Y-86.82
X65.57Y-88.77
X66.11Y-86.82
X66.912Y-88.733
X67.407Y-89.227
X67.43Y-117.34
X67.43Y-117.92
X67.43Y-118.54
X67.63Y-87.38
X67.77Y-86.21
X68.156Y-84.76
X68.856Y-84.76
X70.0Y-96.79
X85.656Y-133.446
X90.92Y-106.11
X90.92Y-106.81
X91.14Y-103.85
X91.14Y-104.55
X93.21Y-112.28
X94.501Y-88.437
X94.832Y-132.967
X94.94Y-95.77
X95.247Y-71.008
X95.328Y-132.473
X96.203Y-124.547
X96.472Y-131.767
X96.51Y-88.42
X96.697Y-124.053
X96.968Y-131.273
X98.512Y-89.763
X99.007Y-90.257
X100.08Y-90.72
X100.567Y-110.422
X100.78Y-90.72
X100.943Y-97.522
X101.01Y-127.539
X101.062Y-109.927
X101.12Y-103.2
X101.437Y-98.017
X101.99Y-89.12
X102.15Y-146.23
X102.3Y-77.93
X103.363Y-89.432
X103.39Y-108.53
X103.65Y-93.37
X103.857Y-89.927
X103.986Y-125.036
X104.09Y-108.53
X104.35Y-93.37
X105.142Y-146.126
X105.26Y-123.98
X105.5Y-138.73
X105.51Y-79.53
X105.51Y-80.23
X105.761Y-146.75
X105.93Y-114.52
X105.93Y-115.22
X105.96Y-123.98
X105.97Y-67.63
X106.0Y-97.17
X106.03Y-144.11
X106.12Y-72.07
X106.58Y-80.74
X107.58Y-78.29
X107.62Y-77.223
X107.996Y-148.698
X108.47Y-94.38
X108.47Y-95.08
X108.508Y-128.505
X108.54Y-112.28
X108.66Y-98.435
X108.78Y-106.74
X108.89Y-70.81
X109.36Y-98.435
X109.59Y-123.22
X109.85Y-70.81
X109.906Y-107.128
X109.963Y-98.007
X109.963Y-94.807
X109.982Y-119.573
X110.245Y-148.993
X110.297Y-102.386
X110.845Y-146.75
X111.003Y-77.866
X111.39Y-110.94
X111.39Y-111.64
X111.424Y-95.9
X111.424Y-97.17
X111.424Y-100.98
X111.573Y-78.522
X111.879Y-102.42
X111.915Y-106.806
X112.067Y-79.017
X112.16Y-123.24
X112.494Y-131.226
X112.56Y-81.17
X112.56Y-81.87
X112.616Y-86.1
X112.673Y-91.062
X112.903Y-123.533
X112.94Y-84.39
X113.167Y-91.557
X113.397Y-124.027
X113.92Y-114.69
X114.5Y-97.17
X114.5Y-98.44
X114.5Y-100.98
X114.617Y-129.988
X114.94Y-84.39
X115.09Y-112.93
X115.498Y-102.363
X115.67Y-113.939
X115.743Y-94.897
X115.99Y-98.435
X115.992Y-102.857
X116.13Y-119.04
X116.237Y-94.402
X116.69Y-98.435
X116.86Y-94.78
X116.88Y-83.7
X117.07Y-117.91
X117.348Y-86.51
X117.5Y-93.69
X117.56Y-94.78
X117.783Y-98.657
X118.13Y-86.44
X118.277Y-98.162
X118.41Y-103.089
X118.41Y-105.39
X118.95Y-107.89
X118.95Y-109.89
X119.053Y-111.082
X119.57Y-83.59
X119.57Y-84.29
X119.739Y-102.42
X119.924Y-95.9
X119.924Y-97.17
X119.924Y-98.44
X119.924Y-100.98
X120.03Y-111.27
X120.13Y-120.665
X120.21Y-123.37
X120.671Y-105.219
X120.855Y-88.64
X120.855Y-89.34
X120.86Y-79.988
X120.87Y-80.69
X120.901Y-86.347
X121.63Y-91.48
X121.86Y-90.05
X121.86Y-90.75
X121.933Y-89.138
X122.37Y-120.665
X122.427Y-88.642
X122.69Y-99.7
X122.75Y-101.12
X123.0Y-93.36
X123.0Y-97.17
X123.0Y-100.98
X123.02Y-120.64
X123.083Y-117.825
X123.09Y-68.947
X123.15Y-99.7
X123.41Y-88.59
X123.59Y-93.35
X124.0Y-79.53
X124.0Y-80.23
X124.012Y-102.271
X124.11Y-88.59
X124.138Y-112.292
X124.2Y-113.11
X124.332Y-120.324
X124.763Y-78.897
X124.934Y-117.914
X125.257Y-78.403
X125.28Y-89.95
X125.28Y-90.65
X125.545Y-88.261
X125.6Y-118.04
X125.815Y-121.072
X126.0Y-103.27
X126.04Y-87.766
X126.08Y-123.423
X126.123Y-66.069
X126.3Y-118.04
X127.313Y-80.873
X127.543Y-87.343
X127.807Y-81.367
X127.89Y-99.7
X127.9Y-117.84
X128.037Y-87.837
X128.12Y-105.1
X128.239Y-70.495
X128.24Y-93.364
X128.269Y-106.601
X128.424Y-92.09
X128.424Y-95.9
X128.424Y-97.17
X128.424Y-100.98
X128.46Y-84.62
X128.543Y-114.663
X128.59Y-99.713
X128.62Y-89.89
X128.94Y-93.35
X129.037Y-115.157
X129.781Y-118.176
X130.05Y-98.05
X130.09Y-114.92
X130.488Y-84.634
X130.609Y-117.854
X131.06Y-115.02
X131.36Y-105.15
X131.5Y-92.09
X131.5Y-97.17
X131.5Y-100.98
X132.25Y-111.47
X132.92Y-124.7
X133.03Y-118.44
X133.13Y-115.16
X133.275Y-101.732
X133.393Y-98.585
X133.78Y-83.59
X133.78Y-84.29
X133.926Y-117.387
X134.26Y-103.72
X134.378Y-127.461
X134.579Y-94.807
X134.579Y-98.05
X134.87Y-88.71
X134.91Y-117.822
X135.18Y-84.0
X135.21Y-114.3
X135.94Y-111.04
X136.299Y-122.675
X136.481Y-118.408
X136.924Y-92.09
X136.924Y-95.9
X136.924Y-97.17
X136.924Y-100.98
X137.012Y-150.65
X137.129Y-101.778
X137.133Y-124.406
X137.319Y-90.746
X137.353Y-117.536
X137.366Y-83.825
X137.88Y-66.604
X137.88Y-84.37
X137.885Y-118.193
X138.02Y-71.485
X138.162Y-120.344
X138.34Y-115.59
X139.103Y-121.311
X139.337Y-72.87
X139.34Y-70.119
X139.55Y-105.53
X141.434Y-104.137
X141.696Y-69.477
X141.728Y-92.025
X141.728Y-97.105
X141.728Y-100.915
X141.882Y-73.128
X142.13Y-86.0
X143.17Y-80.17
X143.3Y-94.807
X143.62Y-68.23
X143.817Y-115.351
X143.88Y-75.85
X144.065Y-77.517
X144.102Y-70.272
X144.434Y-92.364
X145.54Y-72.743
X146.198Y-72.796
X146.398Y-76.24
X146.443Y-74.408
X146.634Y-72.15
X146.736Y-79.644
X147.152Y-92.025
X147.152Y-95.835
X147.152Y-97.105
X147.152Y-100.915
X147.677Y-71.992
X147.685Y-78.4
X148.801Y-92.883
T3
X39.2Y-85.1
X39.2Y-87.1
X39.2Y-89.1
X88.7Y-128.2
X90.7Y-128.2
X92.7Y-128.2
T4
X121.81Y-144.04
X121.81Y-146.58
X121.81Y-149.12
X121.81Y-151.66
X144.67Y-138.96
X144.67Y-141.5
X144.67Y-144.04
X144.67Y-146.58
X144.67Y-149.12
X144.67Y-151.66
T5
X34.298Y-117.096
X35.732Y-119.144
X37.166Y-121.192
X38.6Y-123.24
X42.69Y-129.05
X44.124Y-131.098
X45.558Y-133.146
X46.992Y-135.194
X82.7Y-115.4
X85.2Y-115.4
X87.7Y-115.4
X90.2Y-115.4
X92.7Y-115.4
X144.23Y-124.94
X144.23Y-127.44
X144.23Y-129.94
T6
X30.06Y-90.66
X30.06Y-93.2
X30.06Y-95.74
X30.06Y-98.28
X30.06Y-100.82
X30.06Y-103.36
X32.6Y-90.66
X32.6Y-93.2
X32.6Y-95.74
X32.6Y-98.28
X32.6Y-100.82
X32.6Y-103.36
X46.9Y-76.84
X46.9Y-79.38
X46.9Y-81.92
X46.9Y-84.46
X46.9Y-87.0
X46.9Y-89.54
X47.42Y-113.72
X47.42Y-116.26
X54.27Y-132.25
X54.27Y-152.75
X69.41Y-88.215
X71.91Y-88.215
X76.46Y-72.36
X76.46Y-74.9
X76.46Y-77.44
X76.46Y-79.98
X76.46Y-82.52
X76.46Y-85.06
X77.3Y-121.6
X79.8Y-121.6
X86.0Y-121.6
X88.5Y-121.6
X91.7Y-74.9
X91.7Y-77.44
X91.7Y-79.98
X91.7Y-82.52
X100.0Y-125.5
X100.27Y-132.25
X100.27Y-152.75
X102.5Y-125.5
X105.79Y-132.385
X108.29Y-132.385
X108.5Y-125.19
X111.0Y-125.19
X129.87Y-68.15
X132.37Y-68.15
X135.7Y-75.9
X138.2Y-75.9
X149.745Y-122.78
X152.285Y-122.78
T7
X37.98Y-93.8
X37.98Y-109.04
X40.52Y-93.8
X40.52Y-109.04
X43.06Y-93.8
X43.06Y-109.04
X45.6Y-93.8
X45.6Y-109.04
X48.14Y-93.8
X48.14Y-109.04
X50.68Y-93.8
X50.68Y-109.04
X53.22Y-93.8
X53.22Y-109.04
X55.76Y-93.8
X55.76Y-109.04
X58.3Y-93.8
X58.3Y-109.04
X60.84Y-93.8
X60.84Y-109.04
X63.38Y-93.8
X63.38Y-109.04
X65.25Y-114.66
X65.25Y-117.2
X65.25Y-119.74
X65.92Y-93.8
X65.92Y-109.04
X68.46Y-93.8
X68.46Y-109.04
X70.96Y-113.35
X71.0Y-93.8
X71.0Y-109.04
X73.5Y-113.35
X73.54Y-93.8
X73.54Y-109.04
X76.04Y-113.35
X76.08Y-93.8
X76.08Y-109.04
X78.62Y-93.8
X78.62Y-109.04
X81.16Y-93.8
X81.16Y-109.04
X83.7Y-93.8
X83.7Y-109.04
X86.24Y-93.8
X86.24Y-109.04
X88.78Y-93.8
X88.78Y-109.04
X91.32Y-93.8
X91.32Y-109.04
X93.86Y-93.8
X93.86Y-109.04
X96.4Y-93.8
X96.4Y-109.04
T8
X71.0Y-75.5
X71.0Y-124.5
X129.0Y-75.5
X129.0Y-124.5
T9
X81.539Y-128.887
X81.584Y-71.113
X118.416Y-71.113
X118.416Y-128.887
T10
X55.6Y-116.2
X55.6Y-123.4
T2
G00X136.9Y-67.085
M15
G01X136.9Y-66.285
M16
G05
G00X136.9Y-71.435
M15
G01X136.9Y-70.335
M16
G05
G00X145.54Y-67.085
M15
G01X145.54Y-66.285
M16
G05
G00X145.54Y-71.435
M15
G01X145.54Y-70.335
M16
G05
G00X147.735Y-70.88
M15
G01X148.835Y-70.88
M16
G05
G00X147.735Y-79.52
M15
G01X148.835Y-79.52
M16
G05
G00X152.085Y-70.88
M15
G01X152.885Y-70.88
M16
G05
G00X152.085Y-79.52
M15
G01X152.885Y-79.52
M16
G05
T4
G00X98.7Y-67.9
M15
G01X98.7Y-67.1
M16
G05
G00X98.7Y-74.36
M15
G01X98.7Y-72.56
M16
G05
G00X113.2Y-67.9
M15
G01X113.2Y-67.1
M16
G05
G00X113.2Y-74.36
M15
G01X113.2Y-72.56
M16
G05
M30
